<?xml version="1.0" encoding="iso-8859-1"?>
<!-- Generator: Adobe Illustrator 19.0.0, SVG Export Plug-In . SVG Version: 6.00 Build 0)  -->
<svg version="1.1" id="Capa_1" xmlns="http://www.w3.org/2000/svg" xmlns:xlink="http://www.w3.org/1999/xlink" x="0px" y="0px"
	 viewBox="0 0 512 512" style="enable-background:new 0 0 512 512;" xml:space="preserve">
<g>
	<g>
		<path d="M458.504,463.552l-15.019-98.453c-4.203-37.888-36.117-66.432-74.219-66.432h-70.72c-5.888,0-10.667-4.779-10.667-10.667
			v-38.251l11.968,11.968c10.091,10.069,23.488,15.616,37.717,15.616h46.315c17.643,0,32-14.357,32-32c0-17.643-14.357-32-32-32
			h-33.813c-2.816,0-5.568-1.131-7.531-3.136l-45.269-45.248c-10.091-10.069-23.488-15.616-37.717-15.616h-25.003
			c-17.643,0-32,14.357-32,32v128c0,41.173,33.493,74.667,74.667,74.667h67.264c5.248,0,9.664,3.755,10.624,9.408l17.813,82.475
			c3.52,20.928,21.44,36.117,42.667,36.117c12.288,0,24.043-5.248,32.235-14.4C456.008,488.448,459.912,476.181,458.504,463.552z
			 M431.923,483.371c-4.224,4.693-10.027,7.296-16.341,7.296c-10.752,0-19.84-7.701-21.739-18.795l-17.813-82.475
			c-2.581-15.488-15.851-26.731-31.552-26.731h-67.264c-29.397,0-53.333-23.936-53.333-53.333v-128
			c0-5.888,4.779-10.667,10.667-10.667h25.003c8.427,0,16.661,3.413,22.613,9.387l45.269,45.248
			c6.059,6.037,14.101,9.365,22.635,9.365h33.813c5.888,0,10.667,4.779,10.667,10.667S389.768,256,383.88,256h-46.315
			c-8.427,0-16.661-3.413-22.613-9.387l-30.187-30.165c-3.072-3.029-7.616-3.968-11.627-2.304c-3.989,1.664-6.592,5.547-6.592,9.856
			v64c0,17.643,14.357,32,32,32h70.72c27.221,0,50.005,20.395,53.077,47.893l15.019,98.453
			C438.067,472.619,436.147,478.677,431.923,483.371z"/>
	</g>
</g>
<g>
	<g>
		<path d="M245.213,0c-35.285,0-64,28.715-64,64s28.715,64,64,64s64-28.715,64-64S280.499,0,245.213,0z M245.213,106.667
			c-23.531,0-42.667-19.136-42.667-42.667s19.136-42.667,42.667-42.667S287.88,40.469,287.88,64
			C287.88,87.531,268.744,106.667,245.213,106.667z"/>
	</g>
</g>
<g>
	<g>
		<path d="M315.997,405.952c-5.547-1.984-11.648,0.939-13.611,6.485c-16.555,46.784-60.971,78.229-110.507,78.229
			c-64.704,0-117.333-52.629-117.333-117.333c0-57.429,41.109-106.027,97.771-115.563c5.803-0.981,9.728-6.485,8.747-12.288
			s-6.421-9.685-12.288-8.747C101.811,248,53.213,305.451,53.213,373.333C53.213,449.792,115.421,512,191.88,512
			c58.56,0,111.061-37.141,130.603-92.437C324.445,413.995,321.544,407.915,315.997,405.952z"/>
	</g>
</g>
<g>
</g>
<g>
</g>
<g>
</g>
<g>
</g>
<g>
</g>
<g>
</g>
<g>
</g>
<g>
</g>
<g>
</g>
<g>
</g>
<g>
</g>
<g>
</g>
<g>
</g>
<g>
</g>
<g>
</g>
</svg>
