<?xml version="1.0" encoding="iso-8859-1"?>
<!-- Generator: Adobe Illustrator 19.0.0, SVG Export Plug-In . SVG Version: 6.00 Build 0)  -->
<svg version="1.1" id="Capa_1" xmlns="http://www.w3.org/2000/svg" xmlns:xlink="http://www.w3.org/1999/xlink" x="0px" y="0px"
	 viewBox="0 0 512.021 512.021" style="enable-background:new 0 0 512.021 512.021;" xml:space="preserve">
<g>
	<g>
		<path d="M496.458,353.365L298.677,155.584v-87.68c0-13.845-3.072-27.797-9.131-40.832l-4.501-8.512
			C279.754,7.104,268.618,0,256.01,0s-23.744,7.104-28.8,18.048l-4.971,9.493c-5.824,12.565-8.896,26.517-8.896,40.363v87.68
			L15.626,353.301C5.557,363.392,0.01,376.789,0.01,391.019V416c0,3.904,2.133,7.509,5.568,9.365
			c3.413,1.877,7.595,1.749,10.859-0.384l201.024-128.832c1.984,32.32,4.693,59.285,7.979,92.096l3.392,33.515l-74.688,49.344
			c-3.008,1.963-4.8,5.312-4.8,8.896v21.333c0,3.243,1.472,6.293,3.989,8.341c2.539,2.027,5.867,2.795,8.981,2.091l93.696-20.821
			l93.696,20.8c0.747,0.171,1.536,0.256,2.304,0.256c2.411,0,4.757-0.811,6.677-2.347c2.517-2.027,3.989-5.077,3.989-8.32V480
			c0-3.563-1.792-6.912-4.8-8.939l-74.688-49.259l3.392-33.643c3.307-32.768,5.995-59.712,7.979-92.011L495.605,424.96
			c3.307,2.133,7.467,2.261,10.859,0.384c3.413-1.856,5.547-5.44,5.547-9.344v-24.981
			C512.01,376.768,506.485,363.392,496.458,353.365z M490.677,396.501l-200-128.128c-3.179-2.027-7.275-2.219-10.645-0.491
			c-3.392,1.749-5.589,5.163-5.781,8.96c-2.005,40.405-4.885,69.269-8.896,109.248l-4.053,40c-0.405,3.947,1.408,7.808,4.736,10.005
			l75.307,49.664v2.283l-83.029-18.453c-0.747-0.171-1.536-0.256-2.304-0.256s-1.557,0.085-2.304,0.256l-83.029,18.453v-2.283
			l75.307-49.771c3.328-2.176,5.163-6.037,4.736-10.005l-4.032-39.851c-4.011-40-6.912-68.907-8.896-109.333
			c-0.192-3.797-2.389-7.211-5.781-8.96c-3.392-1.728-7.445-1.557-10.645,0.491L21.344,396.501v-5.483
			c0-8.405,3.413-16.661,9.387-22.613l200.832-200.853c1.984-2.005,3.115-4.715,3.115-7.552V67.904
			c0-10.773,2.389-21.632,6.677-30.891l4.971-9.493c2.667-5.739,8.085-6.187,9.685-6.187s7.019,0.448,9.92,6.656l4.501,8.533
			c4.523,9.749,6.912,20.608,6.912,31.381V160c0,2.837,1.131,5.547,3.136,7.552l200.896,200.896
			c5.995,6.016,9.301,14.016,9.301,22.571V396.501z"/>
	</g>
</g>
<g>
</g>
<g>
</g>
<g>
</g>
<g>
</g>
<g>
</g>
<g>
</g>
<g>
</g>
<g>
</g>
<g>
</g>
<g>
</g>
<g>
</g>
<g>
</g>
<g>
</g>
<g>
</g>
<g>
</g>
</svg>
