<?xml version="1.0" encoding="iso-8859-1"?>
<!-- Generator: Adobe Illustrator 19.0.0, SVG Export Plug-In . SVG Version: 6.00 Build 0)  -->
<svg version="1.1" id="Capa_1" xmlns="http://www.w3.org/2000/svg" xmlns:xlink="http://www.w3.org/1999/xlink" x="0px" y="0px"
	 viewBox="0 0 490.667 490.667" style="enable-background:new 0 0 490.667 490.667;" xml:space="preserve">
<g>
	<g>
		<path d="M245.333,64C133.589,64,42.667,154.923,42.667,266.667s90.923,202.667,202.667,202.667
			C357.077,469.333,448,378.411,448,266.667S357.077,64,245.333,64z M245.333,448C145.344,448,64,366.656,64,266.667
			S145.344,85.333,245.333,85.333s181.333,81.344,181.333,181.333S345.323,448,245.333,448z"/>
	</g>
</g>
<g>
	<g>
		<path d="M173.739,35.797c-17.259-9.472-36.757-14.464-56.405-14.464C52.651,21.333,0,73.963,0,138.667
			c0,19.712,4.992,39.211,14.464,56.405c1.941,3.541,5.589,5.525,9.344,5.525c1.749,0,3.52-0.427,5.141-1.323
			c5.184-2.837,7.061-9.323,4.224-14.485c-7.765-14.059-11.84-29.995-11.84-46.123c0-52.928,43.072-96,96-96
			c16.085,0,32.021,4.096,46.144,11.84c5.12,2.816,11.648,0.96,14.485-4.224C180.8,45.12,178.901,38.635,173.739,35.797z"/>
	</g>
</g>
<g>
	<g>
		<path d="M373.333,21.333c-19.648,0-39.147,4.992-56.405,14.464c-5.163,2.837-7.061,9.323-4.224,14.485
			c2.837,5.184,9.365,6.997,14.485,4.224c14.123-7.744,30.059-11.84,46.144-11.84c52.928,0,96,43.072,96,96
			c0,16.128-4.075,32.064-11.819,46.123c-2.837,5.163-0.96,11.648,4.203,14.485c1.621,0.896,3.392,1.323,5.141,1.323
			c3.755,0,7.381-1.984,9.344-5.504c9.472-17.216,14.464-36.715,14.464-56.427C490.667,73.963,438.016,21.333,373.333,21.333z"/>
	</g>
</g>
<g>
	<g>
		<path d="M316.885,323.136L256,262.251V138.667c0-5.888-4.779-10.667-10.667-10.667s-10.667,4.779-10.667,10.667v128
			c0,2.837,1.131,5.547,3.115,7.552l64,64c2.091,2.069,4.821,3.115,7.552,3.115c2.731,0,5.461-1.045,7.552-3.115
			C321.045,334.059,321.045,327.296,316.885,323.136z"/>
	</g>
</g>
<g>
</g>
<g>
</g>
<g>
</g>
<g>
</g>
<g>
</g>
<g>
</g>
<g>
</g>
<g>
</g>
<g>
</g>
<g>
</g>
<g>
</g>
<g>
</g>
<g>
</g>
<g>
</g>
<g>
</g>
</svg>
