<?xml version="1.0" encoding="iso-8859-1"?>
<!-- Generator: Adobe Illustrator 19.0.0, SVG Export Plug-In . SVG Version: 6.00 Build 0)  -->
<svg version="1.1" id="Capa_1" xmlns="http://www.w3.org/2000/svg" xmlns:xlink="http://www.w3.org/1999/xlink" x="0px" y="0px"
	 viewBox="0 0 512 512" style="enable-background:new 0 0 512 512;" xml:space="preserve">
<g>
	<g>
		<path d="M255.991,0c-29.397,0-53.333,23.936-53.333,53.333s23.936,53.333,53.333,53.333s53.333-23.936,53.333-53.333
			S285.388,0,255.991,0z M255.991,85.333c-17.643,0-32-14.357-32-32c0-17.643,14.357-32,32-32c17.643,0,32,14.357,32,32
			C287.991,70.976,273.633,85.333,255.991,85.333z"/>
	</g>
</g>
<g>
	<g>
		<path d="M341.324,255.552H170.657c-5.888,0-10.667,4.779-10.667,10.667s4.779,10.667,10.667,10.667h170.667
			c5.888,0,10.667-4.779,10.667-10.667S347.212,255.552,341.324,255.552z"/>
	</g>
</g>
<g>
	<g>
		<path d="M255.991,85.333c-5.888,0-10.667,4.779-10.667,10.667v394.667c0,5.888,4.779,10.667,10.667,10.667
			c5.888,0,10.667-4.779,10.667-10.667V96C266.657,90.112,261.879,85.333,255.991,85.333z"/>
	</g>
</g>
<g>
	<g>
		<path d="M499.041,366.741c-2.795-3.52-7.488-4.949-11.755-3.499l-64,21.333c-5.589,1.856-8.597,7.893-6.741,13.483
			c1.856,5.589,7.872,8.597,13.483,6.741l33.067-11.029c-49.429,61.184-124.715,96.896-207.104,96.896
			c-78.848,0-155.093-36.331-205.909-96.512l31.893,10.624c5.632,1.856,11.627-1.152,13.483-6.741
			c1.856-5.589-1.152-11.627-6.741-13.483l-64-21.333c-4.309-1.451-9.045,0-11.819,3.584c-2.773,3.584-2.987,8.533-0.512,12.331
			C65.612,461.099,158.967,512,255.991,512c100.885,0,192-49.749,243.733-133.013C502.113,375.168,501.815,370.283,499.041,366.741z
			"/>
	</g>
</g>
<g>
</g>
<g>
</g>
<g>
</g>
<g>
</g>
<g>
</g>
<g>
</g>
<g>
</g>
<g>
</g>
<g>
</g>
<g>
</g>
<g>
</g>
<g>
</g>
<g>
</g>
<g>
</g>
<g>
</g>
</svg>
