<?xml version="1.0" encoding="iso-8859-1"?>
<!-- Generator: Adobe Illustrator 19.0.0, SVG Export Plug-In . SVG Version: 6.00 Build 0)  -->
<svg version="1.1" id="Capa_1" xmlns="http://www.w3.org/2000/svg" xmlns:xlink="http://www.w3.org/1999/xlink" x="0px" y="0px"
	 viewBox="0 0 512 512" style="enable-background:new 0 0 512 512;" xml:space="preserve">
<g>
	<g>
		<path d="M499.456,148.821L422.549,33.451c-13.888-20.821-37.12-33.259-62.123-33.259H163.328
			c-32.384,0-62.357,16.128-80.192,43.179L14.293,147.861C4.928,160.704,0,175.893,0,191.808v245.333
			c0,41.173,33.493,74.667,74.667,74.667h362.667c41.173,0,74.667-33.493,74.667-74.667V190.229
			C512,175.467,507.669,161.152,499.456,148.821z M490.667,437.141c0,29.419-23.915,53.333-53.333,53.333H74.667
			c-29.419,0-53.333-23.915-53.333-53.333V191.808c0-11.435,3.563-22.336,10.325-31.531c0.107-0.149,0.213-0.299,0.32-0.448
			l68.949-104.704c13.888-21.035,37.184-33.6,62.379-33.6h197.12c17.856,0,34.453,8.875,44.373,23.744l76.907,115.371
			c5.845,8.811,8.96,19.051,8.96,29.589V437.141z"/>
	</g>
</g>
<g>
	<g>
		<path d="M490.667,170.859h-53.333c-29.419,0-53.333,23.915-53.333,53.333v106.283c0,29.419-23.915,53.333-53.333,53.333H181.333
			c-29.419,0-53.333-23.915-53.333-53.333V223.808c0-29.205-23.744-52.949-52.949-52.949H21.333
			c-5.888,0-10.667,4.779-10.667,10.667s4.779,10.667,10.667,10.667h53.717c17.429,0,31.616,14.187,31.616,31.616v106.667
			c0,41.173,33.493,74.667,74.667,74.667h149.333c41.173,0,74.667-33.493,74.667-74.667V224.192c0-17.643,14.357-32,32-32h53.333
			c5.888,0,10.667-4.779,10.667-10.667S496.555,170.859,490.667,170.859z"/>
	</g>
</g>
<g>
	<g>
		<path d="M362.667,170.475H149.333c-5.888,0-10.667,4.779-10.667,10.667s4.779,10.667,10.667,10.667h213.333
			c5.888,0,10.667-4.779,10.667-10.667S368.555,170.475,362.667,170.475z"/>
	</g>
</g>
<g>
	<g>
		<path d="M352,213.141H160c-5.888,0-10.667,4.779-10.667,10.667s4.779,10.667,10.667,10.667h192
			c5.888,0,10.667-4.779,10.667-10.667S357.888,213.141,352,213.141z"/>
	</g>
</g>
<g>
	<g>
		<path d="M352,255.808H160c-5.888,0-10.667,4.779-10.667,10.667s4.779,10.667,10.667,10.667h192
			c5.888,0,10.667-4.779,10.667-10.667S357.888,255.808,352,255.808z"/>
	</g>
</g>
<g>
	<g>
		<path d="M352,298.475H160c-5.888,0-10.667,4.779-10.667,10.667s4.779,10.667,10.667,10.667h192
			c5.888,0,10.667-4.779,10.667-10.667S357.888,298.475,352,298.475z"/>
	</g>
</g>
<g>
	<g>
		<path d="M341.333,341.141H170.667c-5.888,0-10.667,4.779-10.667,10.667c0,5.888,4.779,10.667,10.667,10.667h170.667
			c5.888,0,10.667-4.779,10.667-10.667C352,345.92,347.221,341.141,341.333,341.141z"/>
	</g>
</g>
<g>
</g>
<g>
</g>
<g>
</g>
<g>
</g>
<g>
</g>
<g>
</g>
<g>
</g>
<g>
</g>
<g>
</g>
<g>
</g>
<g>
</g>
<g>
</g>
<g>
</g>
<g>
</g>
<g>
</g>
</svg>
