<?xml version="1.0" encoding="iso-8859-1"?>
<!-- Generator: Adobe Illustrator 19.0.0, SVG Export Plug-In . SVG Version: 6.00 Build 0)  -->
<svg version="1.1" id="Capa_1" xmlns="http://www.w3.org/2000/svg" xmlns:xlink="http://www.w3.org/1999/xlink" x="0px" y="0px"
	 viewBox="0 0 512 512" style="enable-background:new 0 0 512 512;" xml:space="preserve">
<g>
	<g>
		<path d="M499.456,255.296l-31.915-47.872c-3.285-4.949-9.941-6.208-14.784-2.965c-4.907,3.264-6.229,9.899-2.965,14.784
			l31.915,47.872c5.845,8.811,8.96,19.051,8.96,29.589v140.629c0,29.419-23.915,53.333-53.333,53.333H74.667
			c-29.419,0-53.333-23.915-53.333-53.333V298.667c0-11.264,3.669-22.485,10.688-32.085l30.272-47.104
			c3.2-4.949,1.749-11.563-3.2-14.741c-4.949-3.179-11.563-1.749-14.741,3.2l-29.888,46.571C4.992,267.371,0,282.667,0,298.667
			v138.667C0,478.507,33.493,512,74.667,512h362.667C478.507,512,512,478.507,512,437.333V296.704
			C512,281.941,507.669,267.627,499.456,255.296z"/>
	</g>
</g>
<g>
	<g>
		<path d="M394.667,320c-5.888,0-10.667,4.779-10.667,10.667C384,360.085,360.085,384,330.667,384H181.333
			C151.915,384,128,360.085,128,330.667c0-29.419-23.915-53.333-53.333-53.333H21.333c-5.888,0-10.667,4.779-10.667,10.667
			s4.779,10.667,10.667,10.667h53.333c17.643,0,32,14.357,32,32c0,41.173,33.493,74.667,74.667,74.667h149.333
			c41.173,0,74.667-33.493,74.667-74.667C405.333,324.779,400.555,320,394.667,320z"/>
	</g>
</g>
<g>
	<g>
		<path d="M490.667,277.333h-53.333c-29.419,0-53.333,23.915-53.333,53.333c0,5.888,4.779,10.667,10.667,10.667
			s10.667-4.779,10.667-10.667c0-17.643,14.357-32,32-32h53.333c5.888,0,10.667-4.779,10.667-10.667
			S496.555,277.333,490.667,277.333z"/>
	</g>
</g>
<g>
	<g>
		<path d="M458.667,149.333h-128c-5.867,0-10.667-4.8-10.667-10.667v-128C320,4.779,315.221,0,309.333,0H74.667
			c-17.643,0-32,14.357-32,32v256c0,5.888,4.779,10.667,10.667,10.667S64,293.888,64,288V32c0-5.867,4.8-10.667,10.667-10.667h224
			v117.333c0,17.643,14.357,32,32,32H448V288c0,5.888,4.779,10.667,10.667,10.667s10.667-4.779,10.667-10.667V160
			C469.333,154.112,464.555,149.333,458.667,149.333z"/>
	</g>
</g>
<g>
	<g>
		<path d="M466.197,152.469L316.864,3.136c-4.16-4.16-10.923-4.16-15.083,0c-4.16,4.16-4.16,10.923,0,15.083l149.333,149.333
			c2.091,2.069,4.821,3.115,7.552,3.115s5.461-1.045,7.531-3.115C470.357,163.392,470.357,156.629,466.197,152.469z"/>
	</g>
</g>
<g>
</g>
<g>
</g>
<g>
</g>
<g>
</g>
<g>
</g>
<g>
</g>
<g>
</g>
<g>
</g>
<g>
</g>
<g>
</g>
<g>
</g>
<g>
</g>
<g>
</g>
<g>
</g>
<g>
</g>
</svg>
