<?xml version="1.0" encoding="iso-8859-1"?>
<!-- Generator: Adobe Illustrator 19.0.0, SVG Export Plug-In . SVG Version: 6.00 Build 0)  -->
<svg version="1.1" id="Capa_1" xmlns="http://www.w3.org/2000/svg" xmlns:xlink="http://www.w3.org/1999/xlink" x="0px" y="0px"
	 viewBox="0 0 512.005 512.005" style="enable-background:new 0 0 512.005 512.005;" xml:space="preserve">
<g>
	<g>
		<path d="M501.339,159.995H292.421l45.781-45.781c4.16-4.16,4.16-10.923,0-15.083l-85.333-85.333c-4.16-4.16-10.923-4.16-15.083,0
			L3.12,248.464c-4.16,4.16-4.16,10.923,0,15.083l234.667,234.667c2.091,2.069,4.821,3.115,7.552,3.115
			c2.731,0,5.461-1.045,7.531-3.136l85.333-85.333c4.16-4.16,4.16-10.923,0-15.083l-45.781-45.781h208.917
			c5.888,0,10.667-4.779,10.667-10.667V170.661C512.005,164.773,507.227,159.995,501.339,159.995z M490.672,330.661h-224
			c-4.309,0-8.171,2.603-9.835,6.592c-1.664,3.989-0.747,8.576,2.304,11.627l56.448,56.448l-70.251,70.251L25.755,255.995
			L245.339,36.411l70.251,70.251l-56.469,56.448c-3.029,3.051-3.947,7.637-2.304,11.627c1.643,3.989,5.547,6.592,9.856,6.592h224
			V330.661z"/>
	</g>
</g>
<g>
</g>
<g>
</g>
<g>
</g>
<g>
</g>
<g>
</g>
<g>
</g>
<g>
</g>
<g>
</g>
<g>
</g>
<g>
</g>
<g>
</g>
<g>
</g>
<g>
</g>
<g>
</g>
<g>
</g>
</svg>
