<?xml version="1.0" encoding="iso-8859-1"?>
<!-- Generator: Adobe Illustrator 19.0.0, SVG Export Plug-In . SVG Version: 6.00 Build 0)  -->
<svg version="1.1" id="Capa_1" xmlns="http://www.w3.org/2000/svg" xmlns:xlink="http://www.w3.org/1999/xlink" x="0px" y="0px"
	 viewBox="0 0 490.667 490.667" style="enable-background:new 0 0 490.667 490.667;" xml:space="preserve">
<g>
	<g>
		<path d="M486.848,98.518c-2.411-2.027-5.547-2.859-8.704-2.347l-9.92,1.728c-73.365,12.779-147.712,12.203-220.928-1.707
			c-75.712-14.4-152.597-14.997-228.544-1.771l-9.92,1.728C3.733,97.046,0,101.483,0,106.667V384c0,3.136,1.387,6.144,3.819,8.149
			c2.411,2.027,5.568,2.859,8.704,2.347l9.92-1.728c73.365-12.8,147.712-12.203,220.928,1.707
			c39.467,7.509,79.253,11.264,119.061,11.264c36.544,0,73.131-3.157,109.483-9.493l9.92-1.728
			c5.099-0.896,8.832-5.333,8.832-10.517V106.667C490.667,103.531,489.28,100.523,486.848,98.518z M469.333,375.04l-1.109,0.192
			c-73.365,12.779-147.712,12.203-220.928-1.707c-39.467-7.509-79.253-11.264-119.061-11.264c-35.691,0-71.403,3.029-106.901,9.045
			v-255.68l1.088-0.171c73.387-12.8,147.733-12.224,220.949,1.685c74.837,14.208,150.869,14.976,225.963,2.197V375.04z"/>
	</g>
</g>
<g>
	<g>
		<path d="M426.368,338.112c-0.512-5.867-5.547-10.261-11.541-9.707c-20.672,1.771-41.792,2.539-62.656,2.176
			c-0.064,0-0.128,0-0.171,0c-5.803,0-10.581,4.672-10.667,10.496c-0.085,5.888,4.608,10.752,10.496,10.837
			c3.435,0.064,6.848,0.085,10.283,0.085c18.24,0,36.544-0.789,54.549-2.347C422.528,349.163,426.88,343.979,426.368,338.112z"/>
	</g>
</g>
<g>
	<g>
		<path d="M138.837,138.667c-21.717-0.299-43.605,0.405-65.109,2.261c-5.867,0.491-10.219,5.675-9.707,11.541
			c0.491,5.547,5.141,9.749,10.624,9.749c0.299,0,0.597-0.021,0.917-0.043c20.779-1.792,41.941-2.581,62.933-2.176
			c0.064,0,0.128,0,0.171,0c5.803,0,10.581-4.651,10.667-10.496C149.419,143.616,144.725,138.774,138.837,138.667z"/>
	</g>
</g>
<g>
	<g>
		<path d="M247.552,234.987l-2.347-0.448c-21.717-4.011-31.851-10.709-31.851-21.12c0-11.563,14.656-21.333,32.021-21.333
			c16.704,0,31.061,9.067,32,20.181c0.491,5.867,5.781,10.453,11.52,9.728c5.867-0.491,10.219-5.653,9.728-11.52
			c-1.92-22.656-24.811-39.723-53.269-39.723c-29.419,0-53.355,19.136-53.355,42.667c0,21.909,16.597,36.075,51.2,42.453
			l2.304,0.427c21.696,4.011,31.808,10.709,31.808,21.12c0,11.563-14.656,21.333-32.021,21.333c-16.704,0-31.061-9.045-32-20.181
			c-0.491-5.867-5.632-10.304-11.52-9.728c-5.867,0.491-10.219,5.653-9.728,11.52c1.899,22.635,24.811,39.723,53.269,39.723
			c29.419,0,53.355-19.136,53.376-42.645C298.688,255.509,282.112,241.365,247.552,234.987z"/>
	</g>
</g>
<g>
	<g>
		<path d="M245.333,160c-5.888,0-10.667,4.779-10.667,10.667V320c0,5.888,4.779,10.667,10.667,10.667S256,325.888,256,320V170.667
			C256,164.779,251.221,160,245.333,160z"/>
	</g>
</g>
<g>
</g>
<g>
</g>
<g>
</g>
<g>
</g>
<g>
</g>
<g>
</g>
<g>
</g>
<g>
</g>
<g>
</g>
<g>
</g>
<g>
</g>
<g>
</g>
<g>
</g>
<g>
</g>
<g>
</g>
</svg>
