<?xml version="1.0" encoding="iso-8859-1"?>
<!-- Generator: Adobe Illustrator 19.0.0, SVG Export Plug-In . SVG Version: 6.00 Build 0)  -->
<svg version="1.1" id="Capa_1" xmlns="http://www.w3.org/2000/svg" xmlns:xlink="http://www.w3.org/1999/xlink" x="0px" y="0px"
	 viewBox="0 0 512 512" style="enable-background:new 0 0 512 512;" xml:space="preserve">
<g>
	<g>
		<path d="M480,202.667h-10.667V192c0-29.397-23.936-53.333-53.333-53.333H53.333C23.936,138.667,0,162.603,0,192v128
			c0,29.397,23.936,53.333,53.333,53.333H416c29.397,0,53.333-23.936,53.333-53.333v-10.667H480c17.643,0,32-14.357,32-32v-42.667
			C512,217.024,497.643,202.667,480,202.667z M490.667,277.333c0,5.888-4.779,10.667-10.667,10.667h-21.333
			c-5.888,0-10.667,4.779-10.667,10.667V320c0,17.643-14.357,32-32,32H53.333c-17.643,0-32-14.357-32-32V192
			c0-17.643,14.357-32,32-32H416c17.643,0,32,14.357,32,32v21.333c0,5.888,4.779,10.667,10.667,10.667H480
			c5.888,0,10.667,4.779,10.667,10.667V277.333z"/>
	</g>
</g>
<g>
	<g>
		<path d="M274.923,238.571c-2.795-3.413-7.381-4.736-11.627-3.349l-37.504,12.501l28.821-50.432
			c2.923-5.12,1.152-11.627-3.968-14.549c-5.141-2.965-11.627-1.152-14.549,3.968l-42.667,74.667
			c-2.197,3.84-1.792,8.64,1.003,12.053c2.816,3.413,7.445,4.779,11.627,3.349l37.504-12.501l-28.821,50.432
			c-2.923,5.12-1.152,11.627,3.968,14.549c1.685,0.96,3.499,1.408,5.291,1.408c3.691,0,7.296-1.92,9.259-5.376l42.667-74.667
			C278.123,246.784,277.717,241.984,274.923,238.571z"/>
	</g>
</g>
<g>
	<g>
		<path d="M271.957,236.075c-5.141-2.965-11.648-1.152-14.549,3.968l-42.667,74.667c-2.923,5.12-1.152,11.627,3.968,14.549
			c1.685,0.96,3.499,1.408,5.291,1.408c3.691,0,7.296-1.92,9.259-5.376l42.667-74.667
			C278.848,245.504,277.077,238.997,271.957,236.075z"/>
	</g>
</g>
<g>
	<g>
		<path d="M196.203,181.333H53.333c-5.888,0-10.667,4.779-10.667,10.667v128c0,5.888,4.779,10.667,10.667,10.667h121.515
			c5.909,0,10.667-4.779,10.667-10.667s-4.779-10.667-10.667-10.667H64V202.667h132.203c5.888,0,10.667-4.779,10.667-10.667
			S202.091,181.333,196.203,181.333z"/>
	</g>
</g>
<g>
	<g>
		<path d="M416,181.333H294.741c-5.888,0-10.667,4.779-10.667,10.667s4.779,10.667,10.667,10.667h110.592v106.667H273.131
			c-5.888,0-10.667,4.779-10.667,10.667s4.779,10.667,10.667,10.667H416c5.888,0,10.667-4.779,10.667-10.667V192
			C426.667,186.112,421.888,181.333,416,181.333z"/>
	</g>
</g>
<g>
</g>
<g>
</g>
<g>
</g>
<g>
</g>
<g>
</g>
<g>
</g>
<g>
</g>
<g>
</g>
<g>
</g>
<g>
</g>
<g>
</g>
<g>
</g>
<g>
</g>
<g>
</g>
<g>
</g>
</svg>
