<?xml version="1.0" encoding="iso-8859-1"?>
<!-- Generator: Adobe Illustrator 19.0.0, SVG Export Plug-In . SVG Version: 6.00 Build 0)  -->
<svg version="1.1" id="Capa_1" xmlns="http://www.w3.org/2000/svg" xmlns:xlink="http://www.w3.org/1999/xlink" x="0px" y="0px"
	 viewBox="0 0 512 512" style="enable-background:new 0 0 512 512;" xml:space="preserve">
<g>
	<g>
		<path d="M480,202.667h-10.667V192c0-29.397-23.936-53.333-53.333-53.333H53.333C23.936,138.667,0,162.603,0,192v128
			c0,29.397,23.936,53.333,53.333,53.333H416c29.397,0,53.333-23.936,53.333-53.333v-10.667H480c17.643,0,32-14.357,32-32v-42.667
			C512,217.024,497.643,202.667,480,202.667z M490.667,277.333c0,5.888-4.779,10.667-10.667,10.667h-21.333
			c-5.888,0-10.667,4.779-10.667,10.667V320c0,17.643-14.357,32-32,32H53.333c-17.643,0-32-14.357-32-32V192
			c0-17.643,14.357-32,32-32H416c17.643,0,32,14.357,32,32v21.333c0,5.888,4.779,10.667,10.667,10.667H480
			c5.888,0,10.667,4.779,10.667,10.667V277.333z"/>
	</g>
</g>
<g>
	<g>
		<path d="M212.203,315.221l-64-128c-1.813-3.605-5.504-5.888-9.536-5.888H53.333c-5.888,0-10.667,4.779-10.667,10.667v128
			c0,5.888,4.779,10.667,10.667,10.667h149.333c3.691,0,7.125-1.941,9.067-5.077C213.675,322.453,213.867,318.528,212.203,315.221z
			 M64,309.333V202.667h68.075l53.333,106.667H64z"/>
	</g>
</g>
<g>
</g>
<g>
</g>
<g>
</g>
<g>
</g>
<g>
</g>
<g>
</g>
<g>
</g>
<g>
</g>
<g>
</g>
<g>
</g>
<g>
</g>
<g>
</g>
<g>
</g>
<g>
</g>
<g>
</g>
</svg>
