<?xml version="1.0" encoding="iso-8859-1"?>
<!-- Generator: Adobe Illustrator 19.0.0, SVG Export Plug-In . SVG Version: 6.00 Build 0)  -->
<svg version="1.1" id="Capa_1" xmlns="http://www.w3.org/2000/svg" xmlns:xlink="http://www.w3.org/1999/xlink" x="0px" y="0px"
	 viewBox="0 0 512.078 512.078" style="enable-background:new 0 0 512.078 512.078;" xml:space="preserve">
<g>
	<g>
		<path d="M466.471,5.86c-8.512-5.995-19.435-7.509-29.205-3.989l-256,91.435c-12.715,4.544-21.248,16.661-21.248,30.144v324.672
			c0,5.888,4.779,10.667,10.667,10.667s10.667-4.757,10.667-10.667V123.449c0-4.501,2.837-8.533,7.061-10.069l256-91.435
			c3.307-1.152,6.869-0.704,9.749,1.344c2.88,2.048,4.523,5.205,4.523,8.725v341.44c0,5.888,4.779,10.667,10.667,10.667
			s10.667-4.779,10.667-10.667V32.014C480.018,21.646,474.94,11.854,466.471,5.86z"/>
	</g>
</g>
<g>
	<g>
		<path d="M479.399,92.451c-1.984-5.547-8.149-8.469-13.632-6.464L167.1,192.654c-5.547,1.984-8.448,8.085-6.464,13.611
			c1.557,4.373,5.653,7.083,10.048,7.083c1.195,0,2.411-0.192,3.584-0.597l298.667-106.667
			C478.503,104.099,481.383,97.998,479.399,92.451z"/>
	</g>
</g>
<g>
	<g>
		<path d="M180.178,439.054c-7.36-28.971-45.333-43.776-86.507-33.664c-24.021,5.888-44.459,19.541-54.656,36.501
			c-6.549,10.88-8.533,22.421-5.781,33.344c5.781,22.827,30.549,36.843,60.928,36.843c8.192,0,16.811-1.024,25.579-3.179
			c24.021-5.888,44.459-19.541,54.656-36.501C180.946,461.518,182.93,449.977,180.178,439.054z M156.114,461.411
			c-7.232,12.011-23.104,22.272-41.451,26.773c-28.651,7.083-56.469-1.28-60.736-18.176c-1.707-6.677,0.896-13.013,3.371-17.131
			c7.232-12.011,23.104-22.272,41.451-26.773c6.933-1.707,13.803-2.517,20.309-2.517c20.395,0,37.163,7.893,40.427,20.693
			C161.191,450.958,158.588,457.294,156.114,461.411z"/>
	</g>
</g>
<g>
	<g>
		<path d="M478.844,375.054c-7.339-28.971-45.376-43.797-86.507-33.664c-24.021,5.888-44.459,19.541-54.656,36.501
			c-6.549,10.88-8.533,22.421-5.781,33.344c5.781,22.827,30.549,36.843,60.928,36.843c8.192,0,16.811-1.024,25.579-3.179
			c24.021-5.888,44.459-19.541,54.656-36.501C479.612,397.518,481.596,385.977,478.844,375.054z M454.78,397.411
			c-7.232,12.011-23.104,22.272-41.451,26.773c-28.651,7.083-56.469-1.28-60.736-18.176c-1.707-6.677,0.896-13.013,3.371-17.131
			c7.232-12.011,23.104-22.272,41.451-26.773c6.933-1.707,13.803-2.517,20.309-2.517c20.395,0,37.163,7.893,40.427,20.693
			C459.858,386.958,457.255,393.294,454.78,397.411z"/>
	</g>
</g>
<g>
</g>
<g>
</g>
<g>
</g>
<g>
</g>
<g>
</g>
<g>
</g>
<g>
</g>
<g>
</g>
<g>
</g>
<g>
</g>
<g>
</g>
<g>
</g>
<g>
</g>
<g>
</g>
<g>
</g>
</svg>
