<?xml version="1.0" encoding="iso-8859-1"?>
<!-- Generator: Adobe Illustrator 19.0.0, SVG Export Plug-In . SVG Version: 6.00 Build 0)  -->
<svg version="1.1" id="Capa_1" xmlns="http://www.w3.org/2000/svg" xmlns:xlink="http://www.w3.org/1999/xlink" x="0px" y="0px"
	 viewBox="0 0 512 512" style="enable-background:new 0 0 512 512;" xml:space="preserve">
<g>
	<g>
		<path d="M362.667,0H149.333c-17.643,0-32,14.357-32,32v106.667c0,5.888,4.779,10.667,10.667,10.667h32v352
			c0,4.309,2.603,8.171,6.592,9.835c3.989,1.664,8.576,0.768,11.627-2.304l99.115-99.115l99.115,99.136
			c2.048,2.027,4.779,3.115,7.552,3.115c1.365,0,2.752-0.277,4.075-0.811c3.989-1.643,6.592-5.547,6.592-9.856V32
			C394.667,14.357,380.309,0,362.667,0z M160,128h-21.333V32c0-5.867,4.779-10.667,10.667-10.667S160,26.133,160,32V128z
			 M373.333,475.584l-88.448-88.469c-2.091-2.069-4.821-3.115-7.552-3.115c-2.731,0-5.461,1.045-7.552,3.136l-88.448,88.448V32
			c0-3.733-0.64-7.339-1.813-10.667h183.147c5.888,0,10.667,4.8,10.667,10.667V475.584z"/>
	</g>
</g>
<g>
</g>
<g>
</g>
<g>
</g>
<g>
</g>
<g>
</g>
<g>
</g>
<g>
</g>
<g>
</g>
<g>
</g>
<g>
</g>
<g>
</g>
<g>
</g>
<g>
</g>
<g>
</g>
<g>
</g>
</svg>
