<?xml version="1.0" encoding="iso-8859-1"?>
<!-- Generator: Adobe Illustrator 19.0.0, SVG Export Plug-In . SVG Version: 6.00 Build 0)  -->
<svg version="1.1" id="Capa_1" xmlns="http://www.w3.org/2000/svg" xmlns:xlink="http://www.w3.org/1999/xlink" x="0px" y="0px"
	 viewBox="0 0 512 512" style="enable-background:new 0 0 512 512;" xml:space="preserve">
<g>
	<g>
		<path d="M480,106.667H32c-17.643,0-32,14.357-32,32v298.667c0,17.643,14.357,32,32,32h448c17.643,0,32-14.357,32-32V138.667
			C512,121.024,497.643,106.667,480,106.667z M490.667,437.333c0,5.888-4.779,10.667-10.667,10.667H32
			c-5.888,0-10.667-4.779-10.667-10.667V138.667C21.333,132.779,26.112,128,32,128h448c5.888,0,10.667,4.779,10.667,10.667V437.333z
			"/>
	</g>
</g>
<g>
	<g>
		<path d="M309.333,42.667H202.667c-17.643,0-32,14.357-32,32v42.667c0,5.888,4.779,10.667,10.667,10.667h149.333
			c5.888,0,10.667-4.779,10.667-10.667V74.667C341.333,57.024,326.976,42.667,309.333,42.667z M320,106.667H192v-32
			C192,68.779,196.779,64,202.667,64h106.667C315.221,64,320,68.779,320,74.667V106.667z"/>
	</g>
</g>
<g>
	<g>
		<path d="M256,192c-23.531,0-42.667,19.136-42.667,42.667c0,23.531,19.136,42.667,42.667,42.667s42.667-19.136,42.667-42.667
			C298.667,211.136,279.531,192,256,192z M256,256c-11.755,0-21.333-9.579-21.333-21.333c0-11.755,9.579-21.333,21.333-21.333
			s21.333,9.579,21.333,21.333C277.333,246.421,267.755,256,256,256z"/>
	</g>
</g>
<g>
	<g>
		<path d="M224,213.333H10.667C4.779,213.333,0,218.112,0,224s4.779,10.667,10.667,10.667H224c5.888,0,10.667-4.779,10.667-10.667
			S229.888,213.333,224,213.333z"/>
	</g>
</g>
<g>
	<g>
		<path d="M501.333,213.333H288c-5.888,0-10.667,4.779-10.667,10.667s4.779,10.667,10.667,10.667h213.333
			c5.888,0,10.667-4.779,10.667-10.667S507.221,213.333,501.333,213.333z"/>
	</g>
</g>
<g>
</g>
<g>
</g>
<g>
</g>
<g>
</g>
<g>
</g>
<g>
</g>
<g>
</g>
<g>
</g>
<g>
</g>
<g>
</g>
<g>
</g>
<g>
</g>
<g>
</g>
<g>
</g>
<g>
</g>
</svg>
