<?xml version="1.0" encoding="iso-8859-1"?>
<!-- Generator: Adobe Illustrator 19.0.0, SVG Export Plug-In . SVG Version: 6.00 Build 0)  -->
<svg version="1.1" id="Capa_1" xmlns="http://www.w3.org/2000/svg" xmlns:xlink="http://www.w3.org/1999/xlink" x="0px" y="0px"
	 viewBox="0 0 512 512" style="enable-background:new 0 0 512 512;" xml:space="preserve">
<g>
	<g>
		<path d="M330.645,138.155c-0.064-1.472-0.448-2.923-1.109-4.267l-32-64C295.723,66.283,292.032,64,288,64h-64
			c-4.032,0-7.723,2.283-9.536,5.888l-32,64c-0.661,1.323-1.045,2.795-1.109,4.267c-0.107,1.856-0.448,18.581,13.589,33.28
			C207.957,185.088,228.501,192,256,192s48.043-6.912,61.056-20.565C331.093,156.715,330.752,140.011,330.645,138.155z
			 M301.312,157.035c-8.747,8.917-24.427,13.632-45.312,13.632c-20.885,0-36.565-4.715-45.312-13.632
			c-6.037-6.144-7.531-12.928-7.915-16.085l27.797-55.616h50.837l27.797,55.616C308.843,144.171,307.328,150.912,301.312,157.035z"
			/>
	</g>
</g>
<g>
	<g>
		<path d="M217.643,11.008C210.816,3.819,201.963,0,192,0c-5.888,0-10.667,4.779-10.667,10.667S186.112,21.333,192,21.333
			c4.117,0,7.36,1.365,10.176,4.352c10.539,11.072,11.627,39.403,11.179,48.448c-0.299,5.867,4.224,10.88,10.112,11.179
			c0.171,0.021,0.363,0.021,0.533,0.021c5.653,0,10.347-4.416,10.645-10.091C234.901,70.741,236.395,30.763,217.643,11.008z"/>
	</g>
</g>
<g>
	<g>
		<path d="M320.085,0c-9.963,0-18.816,3.819-25.643,10.987c-18.752,19.755-17.259,59.733-17.003,64.235
			c0.299,5.696,4.992,10.112,10.645,10.112c0.192,0,0.363,0,0.555-0.021c5.888-0.277,10.411-5.312,10.091-11.2
			c-0.469-9.003,0.576-37.269,11.179-48.427c2.816-2.987,6.059-4.352,10.176-4.352c5.888,0,10.667-4.779,10.667-10.667
			S325.973,0,320.085,0z"/>
	</g>
</g>
<g>
	<g>
		<path d="M383.595,189.013c-0.619-2.112-1.877-3.989-3.584-5.355l-53.333-42.667c-4.587-3.627-11.285-2.944-14.997,1.664
			c-3.669,4.608-2.944,11.307,1.664,14.997l50.517,40.427c2.389,10.325,9.472,46.336,9.472,111.253
			c0,73.131-37.291,181.333-117.333,181.333S138.667,382.464,138.667,309.333c0-64.917,7.083-100.928,9.472-111.253l50.539-40.427
			c4.608-3.691,5.333-10.389,1.664-14.997c-3.669-4.565-10.368-5.291-14.997-1.664l-53.333,42.667
			c-1.707,1.365-2.965,3.243-3.584,5.355c-0.448,1.579-11.093,39.061-11.093,120.32C117.333,391.061,161.387,512,256,512
			s138.667-120.939,138.667-202.667C394.667,228.075,384.021,190.592,383.595,189.013z"/>
	</g>
</g>
<g>
	<g>
		<path d="M256,170.667c-5.888,0-10.667,4.779-10.667,10.667v320c0,5.888,4.779,10.667,10.667,10.667s10.667-4.779,10.667-10.667
			v-320C266.667,175.445,261.888,170.667,256,170.667z"/>
	</g>
</g>
<g>
	<g>
		<path d="M456.875,196.757c-3.307-4.928-9.92-6.208-14.784-2.965l-64,42.667c-4.907,3.264-6.229,9.899-2.965,14.784
			c2.069,3.093,5.44,4.757,8.875,4.757c2.048,0,4.096-0.576,5.909-1.792l64-42.667C458.816,208.277,460.139,201.643,456.875,196.757
			z"/>
	</g>
</g>
<g>
	<g>
		<path d="M448,320h-64c-5.888,0-10.667,4.779-10.667,10.667s4.779,10.667,10.667,10.667h64c5.888,0,10.667-4.779,10.667-10.667
			S453.888,320,448,320z"/>
	</g>
</g>
<g>
	<g>
		<path d="M434.197,472.469l-64-64c-4.16-4.16-10.923-4.16-15.083,0c-4.16,4.16-4.16,10.923,0,15.083l64,64
			c2.091,2.069,4.821,3.115,7.552,3.115c2.731,0,5.461-1.045,7.531-3.115C438.357,483.392,438.357,476.629,434.197,472.469z"/>
	</g>
</g>
<g>
	<g>
		<path d="M133.909,236.459l-64-42.667c-4.843-3.221-11.52-1.92-14.784,2.965c-3.264,4.885-1.941,11.52,2.965,14.784l64,42.667
			c1.813,1.216,3.861,1.792,5.909,1.792c3.435,0,6.805-1.664,8.875-4.757C140.139,246.357,138.795,239.723,133.909,236.459z"/>
	</g>
</g>
<g>
	<g>
		<path d="M128,320H64c-5.888,0-10.667,4.779-10.667,10.667S58.112,341.333,64,341.333h64c5.888,0,10.667-4.779,10.667-10.667
			S133.888,320,128,320z"/>
	</g>
</g>
<g>
	<g>
		<path d="M156.864,408.469c-4.16-4.16-10.923-4.16-15.083,0l-64,64c-4.16,4.16-4.16,10.923,0,15.083
			c2.091,2.069,4.821,3.115,7.552,3.115c2.731,0,5.461-1.045,7.531-3.115l64-64C161.024,419.392,161.024,412.629,156.864,408.469z"
			/>
	</g>
</g>
<g>
</g>
<g>
</g>
<g>
</g>
<g>
</g>
<g>
</g>
<g>
</g>
<g>
</g>
<g>
</g>
<g>
</g>
<g>
</g>
<g>
</g>
<g>
</g>
<g>
</g>
<g>
</g>
<g>
</g>
</svg>
