<?xml version="1.0" encoding="iso-8859-1"?>
<!-- Generator: Adobe Illustrator 19.0.0, SVG Export Plug-In . SVG Version: 6.00 Build 0)  -->
<svg version="1.1" id="Capa_1" xmlns="http://www.w3.org/2000/svg" xmlns:xlink="http://www.w3.org/1999/xlink" x="0px" y="0px"
	 viewBox="0 0 512 512" style="enable-background:new 0 0 512 512;" xml:space="preserve">
<g>
	<g>
		<path d="M373.333,0H138.667C97.493,0,64,33.493,64,74.667v362.667C64,478.507,97.493,512,138.667,512h234.667
			C414.507,512,448,478.507,448,437.333V74.667C448,33.493,414.507,0,373.333,0z M426.667,437.333
			c0,29.397-23.936,53.333-53.333,53.333H138.667c-29.397,0-53.333-23.936-53.333-53.333V74.667
			c0-29.397,23.936-53.333,53.333-53.333h234.667c29.397,0,53.333,23.936,53.333,53.333V437.333z"/>
	</g>
</g>
<g>
	<g>
		<path d="M373.333,42.667H138.667c-17.643,0-32,14.357-32,32v106.667c0,17.643,14.357,32,32,32h234.667c17.643,0,32-14.357,32-32
			V74.667C405.333,57.024,390.976,42.667,373.333,42.667z M384,181.333c0,5.888-4.779,10.667-10.667,10.667H138.667
			c-5.888,0-10.667-4.779-10.667-10.667V74.667C128,68.779,132.779,64,138.667,64h234.667C379.221,64,384,68.779,384,74.667V181.333
			z"/>
	</g>
</g>
<g>
	<g>
		<path d="M181.333,234.667c-5.888,0-10.667,4.779-10.667,10.667v85.333c0,5.888,4.779,10.667,10.667,10.667
			S192,336.555,192,330.667v-85.333C192,239.445,187.221,234.667,181.333,234.667z"/>
	</g>
</g>
<g>
	<g>
		<path d="M224,277.333h-85.333c-5.888,0-10.667,4.779-10.667,10.667s4.779,10.667,10.667,10.667H224
			c5.888,0,10.667-4.779,10.667-10.667S229.888,277.333,224,277.333z"/>
	</g>
</g>
<g>
	<g>
		<path d="M373.333,277.333H288c-5.888,0-10.667,4.779-10.667,10.667s4.779,10.667,10.667,10.667h85.333
			c5.888,0,10.667-4.779,10.667-10.667S379.221,277.333,373.333,277.333z"/>
	</g>
</g>
<g>
	<g>
		<path d="M208.576,364.459c-4.928-3.285-11.541-1.941-14.784,2.965l-42.667,64c-3.264,4.907-1.941,11.52,2.965,14.784
			c1.835,1.216,3.883,1.792,5.909,1.792c3.435,0,6.827-1.664,8.875-4.757l42.667-64
			C214.805,374.336,213.483,367.723,208.576,364.459z"/>
	</g>
</g>
<g>
	<g>
		<path d="M211.52,431.424l-42.667-64c-3.243-4.907-9.899-6.251-14.784-2.965c-4.907,3.264-6.229,9.877-2.965,14.784l42.667,64
			c2.069,3.093,5.44,4.757,8.896,4.757c2.048,0,4.096-0.576,5.888-1.792C213.461,442.944,214.784,436.331,211.52,431.424z"/>
	</g>
</g>
<g>
	<g>
		<path d="M373.333,384H288c-5.888,0-10.667,4.779-10.667,10.667s4.779,10.667,10.667,10.667h85.333
			c5.888,0,10.667-4.779,10.667-10.667S379.221,384,373.333,384z"/>
	</g>
</g>
<g>
	<g>
		<path d="M373.333,426.667H288c-5.888,0-10.667,4.779-10.667,10.667c0,5.888,4.779,10.667,10.667,10.667h85.333
			c5.888,0,10.667-4.779,10.667-10.667C384,431.445,379.221,426.667,373.333,426.667z"/>
	</g>
</g>
<g>
</g>
<g>
</g>
<g>
</g>
<g>
</g>
<g>
</g>
<g>
</g>
<g>
</g>
<g>
</g>
<g>
</g>
<g>
</g>
<g>
</g>
<g>
</g>
<g>
</g>
<g>
</g>
<g>
</g>
</svg>
