<?xml version="1.0" encoding="iso-8859-1"?>
<!-- Generator: Adobe Illustrator 19.0.0, SVG Export Plug-In . SVG Version: 6.00 Build 0)  -->
<svg version="1.1" id="Capa_1" xmlns="http://www.w3.org/2000/svg" xmlns:xlink="http://www.w3.org/1999/xlink" x="0px" y="0px"
	 viewBox="0 0 512 512" style="enable-background:new 0 0 512 512;" xml:space="preserve">
<g>
	<g>
		<path d="M437.333,85.333H74.667C33.493,85.333,0,118.827,0,160v192c0,41.173,33.493,74.667,74.667,74.667h362.667
			C478.507,426.667,512,393.173,512,352V160C512,118.827,478.507,85.333,437.333,85.333z M490.667,352
			c0,29.397-23.915,53.333-53.333,53.333H74.667c-29.419,0-53.333-23.936-53.333-53.333V160c0-29.397,23.915-53.333,53.333-53.333
			h362.667c29.419,0,53.333,23.936,53.333,53.333V352z"/>
	</g>
</g>
<g>
	<g>
		<path d="M362.667,320H149.333c-5.888,0-10.667,4.779-10.667,10.667s4.779,10.667,10.667,10.667h213.333
			c5.888,0,10.667-4.779,10.667-10.667S368.555,320,362.667,320z"/>
	</g>
</g>
<g>
	<g>
		<path d="M178.197,269.803l-42.667-42.667c-4.16-4.16-10.923-4.16-15.083,0c-4.16,4.16-4.16,10.923,0,15.083l42.667,42.667
			c2.091,2.069,4.821,3.115,7.552,3.115s5.461-1.045,7.531-3.115C182.357,280.725,182.357,273.963,178.197,269.803z"/>
	</g>
</g>
<g>
	<g>
		<path d="M178.197,227.136c-4.16-4.16-10.923-4.16-15.083,0l-42.667,42.667c-4.16,4.16-4.16,10.923,0,15.083
			c2.091,2.069,4.821,3.115,7.552,3.115s5.461-1.045,7.531-3.115l42.667-42.667C182.357,238.059,182.357,231.296,178.197,227.136z"
			/>
	</g>
</g>
<g>
	<g>
		<path d="M149.333,170.667C102.272,170.667,64,208.939,64,256s38.272,85.333,85.333,85.333s85.333-38.272,85.333-85.333
			S196.395,170.667,149.333,170.667z M149.333,320c-35.285,0-64-28.715-64-64s28.715-64,64-64s64,28.715,64,64
			S184.619,320,149.333,320z"/>
	</g>
</g>
<g>
	<g>
		<path d="M391.531,269.803l-42.667-42.667c-4.16-4.16-10.923-4.16-15.083,0c-4.16,4.16-4.16,10.923,0,15.083l42.667,42.667
			c2.091,2.069,4.821,3.115,7.552,3.115c2.731,0,5.461-1.045,7.531-3.115C395.691,280.725,395.691,273.963,391.531,269.803z"/>
	</g>
</g>
<g>
	<g>
		<path d="M391.531,227.136c-4.16-4.16-10.923-4.16-15.083,0l-42.667,42.667c-4.16,4.16-4.16,10.923,0,15.083
			c2.091,2.069,4.821,3.115,7.552,3.115c2.731,0,5.461-1.045,7.531-3.115l42.667-42.667
			C395.691,238.059,395.691,231.296,391.531,227.136z"/>
	</g>
</g>
<g>
	<g>
		<path d="M362.667,170.667c-47.061,0-85.333,38.272-85.333,85.333s38.272,85.333,85.333,85.333S448,303.061,448,256
			S409.728,170.667,362.667,170.667z M362.667,320c-35.285,0-64-28.715-64-64s28.715-64,64-64s64,28.715,64,64
			S397.952,320,362.667,320z"/>
	</g>
</g>
<g>
</g>
<g>
</g>
<g>
</g>
<g>
</g>
<g>
</g>
<g>
</g>
<g>
</g>
<g>
</g>
<g>
</g>
<g>
</g>
<g>
</g>
<g>
</g>
<g>
</g>
<g>
</g>
<g>
</g>
</svg>
