<?xml version="1.0" encoding="iso-8859-1"?>
<!-- Generator: Adobe Illustrator 19.0.0, SVG Export Plug-In . SVG Version: 6.00 Build 0)  -->
<svg version="1.1" id="Capa_1" xmlns="http://www.w3.org/2000/svg" xmlns:xlink="http://www.w3.org/1999/xlink" x="0px" y="0px"
	 viewBox="0 0 490.667 490.667" style="enable-background:new 0 0 490.667 490.667;" xml:space="preserve">
<g>
	<g>
		<path d="M245.333,0C110.059,0,0,110.059,0,245.333s110.059,245.333,245.333,245.333s245.333-110.059,245.333-245.333
			S380.608,0,245.333,0z M245.333,469.333c-123.52,0-224-100.48-224-224s100.48-224,224-224s224,100.48,224,224
			S368.853,469.333,245.333,469.333z"/>
	</g>
</g>
<g>
	<g>
		<path d="M245.333,85.333c-5.888,0-10.667,4.779-10.667,10.667v128c0,5.888,4.779,10.667,10.667,10.667S256,229.888,256,224V96
			C256,90.112,251.221,85.333,245.333,85.333z"/>
	</g>
</g>
<g>
	<g>
		<path d="M480,234.667h-21.333c-5.888,0-10.667,4.779-10.667,10.667S452.779,256,458.667,256H480
			c5.888,0,10.667-4.779,10.667-10.667S485.888,234.667,480,234.667z"/>
	</g>
</g>
<g>
	<g>
		<path d="M245.333,0c-5.888,0-10.667,4.779-10.667,10.667V32c0,5.888,4.779,10.667,10.667,10.667S256,37.888,256,32V10.667
			C256,4.779,251.221,0,245.333,0z"/>
	</g>
</g>
<g>
	<g>
		<path d="M32,234.667H10.667C4.779,234.667,0,239.445,0,245.333S4.779,256,10.667,256H32c5.888,0,10.667-4.779,10.667-10.667
			S37.888,234.667,32,234.667z"/>
	</g>
</g>
<g>
	<g>
		<path d="M245.333,448c-5.888,0-10.667,4.779-10.667,10.667V480c0,5.888,4.779,10.667,10.667,10.667S256,485.888,256,480v-21.333
			C256,452.779,251.221,448,245.333,448z"/>
	</g>
</g>
<g>
	<g>
		<path d="M245.333,213.333c-17.643,0-32,14.357-32,32c0,17.643,14.357,32,32,32c17.643,0,32-14.357,32-32
			C277.333,227.691,262.976,213.333,245.333,213.333z M245.333,256c-5.888,0-10.667-4.8-10.667-10.667
			c0-5.867,4.779-10.667,10.667-10.667S256,239.467,256,245.333C256,251.2,251.221,256,245.333,256z"/>
	</g>
</g>
<g>
	<g>
		<path d="M338.197,323.136l-64-64c-4.16-4.16-10.923-4.16-15.083,0c-4.16,4.16-4.16,10.923,0,15.083l64,64
			c2.091,2.069,4.821,3.115,7.552,3.115c2.731,0,5.461-1.045,7.531-3.115C342.357,334.059,342.357,327.296,338.197,323.136z"/>
	</g>
</g>
<g>
</g>
<g>
</g>
<g>
</g>
<g>
</g>
<g>
</g>
<g>
</g>
<g>
</g>
<g>
</g>
<g>
</g>
<g>
</g>
<g>
</g>
<g>
</g>
<g>
</g>
<g>
</g>
<g>
</g>
</svg>
