<?xml version="1.0" encoding="iso-8859-1"?>
<!-- Generator: Adobe Illustrator 19.0.0, SVG Export Plug-In . SVG Version: 6.00 Build 0)  -->
<svg version="1.1" id="Capa_1" xmlns="http://www.w3.org/2000/svg" xmlns:xlink="http://www.w3.org/1999/xlink" x="0px" y="0px"
	 viewBox="0 0 490.667 490.667" style="enable-background:new 0 0 490.667 490.667;" xml:space="preserve">
<g>
	<g>
		<path d="M245.333,0C110.059,0,0,110.059,0,245.333s110.059,245.333,245.333,245.333s245.333-110.059,245.333-245.333
			S380.608,0,245.333,0z M245.333,469.333c-123.52,0-224-100.48-224-224s100.48-224,224-224s224,100.48,224,224
			S368.853,469.333,245.333,469.333z"/>
	</g>
</g>
<g>
	<g>
		<path d="M245.333,42.667c-111.744,0-202.667,90.923-202.667,202.667S133.589,448,245.333,448C357.077,448,448,357.077,448,245.333
			S357.077,42.667,245.333,42.667z M245.333,426.667C145.344,426.667,64,345.323,64,245.333S145.344,64,245.333,64
			s181.333,81.344,181.333,181.333S345.323,426.667,245.333,426.667z"/>
	</g>
</g>
<g>
	<g>
		<path d="M245.333,224C233.579,224,224,233.579,224,245.333c0,11.755,9.579,21.333,21.333,21.333
			c11.755,0,21.333-9.579,21.333-21.333C266.667,233.579,257.088,224,245.333,224z"/>
	</g>
</g>
<g>
	<g>
		<path d="M359.531,131.136c-3.072-3.093-7.723-3.989-11.733-2.261l-149.333,64c-2.517,1.088-4.544,3.093-5.611,5.611l-64,149.333
			c-1.728,3.989-0.832,8.64,2.261,11.733c2.048,2.027,4.779,3.115,7.552,3.115c1.408,0,2.837-0.277,4.181-0.853l149.333-64
			c2.517-1.088,4.544-3.093,5.611-5.611l64-149.333C363.52,138.88,362.624,134.229,359.531,131.136z M279.872,279.872
			l-120.896,51.819l51.819-120.896l120.896-51.819L279.872,279.872z"/>
	</g>
</g>
<g>
</g>
<g>
</g>
<g>
</g>
<g>
</g>
<g>
</g>
<g>
</g>
<g>
</g>
<g>
</g>
<g>
</g>
<g>
</g>
<g>
</g>
<g>
</g>
<g>
</g>
<g>
</g>
<g>
</g>
</svg>
