<?xml version="1.0" encoding="iso-8859-1"?>
<!-- Generator: Adobe Illustrator 19.0.0, SVG Export Plug-In . SVG Version: 6.00 Build 0)  -->
<svg version="1.1" id="Capa_1" xmlns="http://www.w3.org/2000/svg" xmlns:xlink="http://www.w3.org/1999/xlink" x="0px" y="0px"
	 viewBox="0 0 490.667 490.667" style="enable-background:new 0 0 490.667 490.667;" xml:space="preserve">
<g>
	<g>
		<path d="M437.333,10.667h-384C23.915,10.667,0,34.603,0,64v277.333c0,29.397,23.915,53.333,53.333,53.333h384
			c29.419,0,53.333-23.936,53.333-53.333V64C490.667,34.603,466.752,10.667,437.333,10.667z M469.333,341.333
			c0,17.643-14.357,32-32,32h-384c-17.643,0-32-14.357-32-32V64c0-17.643,14.357-32,32-32h384c17.643,0,32,14.357,32,32V341.333z"/>
	</g>
</g>
<g>
	<g>
		<path d="M373.333,458.667h-256c-5.888,0-10.667,4.779-10.667,10.667c0,5.888,4.779,10.667,10.667,10.667h256
			c5.888,0,10.667-4.779,10.667-10.667C384,463.445,379.221,458.667,373.333,458.667z"/>
	</g>
</g>
<g>
	<g>
		<path d="M480,288H10.667C4.779,288,0,292.779,0,298.667s4.779,10.667,10.667,10.667H480c5.888,0,10.667-4.779,10.667-10.667
			S485.888,288,480,288z"/>
	</g>
</g>
<g>
	<g>
		<path d="M330.667,458.667c-14.699,0-28.075-44.139-32.064-75.989c-0.768-5.867-6.144-9.899-11.925-9.259
			c-5.845,0.725-9.984,6.059-9.259,11.904C279.403,401.131,291.243,480,330.667,480c5.888,0,10.667-4.779,10.667-10.667
			C341.333,463.445,336.555,458.667,330.667,458.667z"/>
	</g>
</g>
<g>
	<g>
		<path d="M204.011,373.419c-5.803-0.64-11.179,3.392-11.925,9.259c-4.011,31.851-17.387,75.989-32.085,75.989
			c-5.888,0-10.667,4.779-10.667,10.667c0,5.888,4.779,10.667,10.667,10.667c39.424,0,51.264-78.869,53.269-94.677
			C213.995,379.477,209.835,374.144,204.011,373.419z"/>
	</g>
</g>
<g>
</g>
<g>
</g>
<g>
</g>
<g>
</g>
<g>
</g>
<g>
</g>
<g>
</g>
<g>
</g>
<g>
</g>
<g>
</g>
<g>
</g>
<g>
</g>
<g>
</g>
<g>
</g>
<g>
</g>
</svg>
