<?xml version="1.0" encoding="iso-8859-1"?>
<!-- Generator: Adobe Illustrator 19.0.0, SVG Export Plug-In . SVG Version: 6.00 Build 0)  -->
<svg version="1.1" id="Capa_1" xmlns="http://www.w3.org/2000/svg" xmlns:xlink="http://www.w3.org/1999/xlink" x="0px" y="0px"
	 viewBox="0 0 512 512" style="enable-background:new 0 0 512 512;" xml:space="preserve">
<g>
	<g>
		<path d="M298.667,85.333h-85.333C148.651,85.333,96,137.963,96,202.667V352c0,88.235,71.765,160,160,160s160-71.765,160-160
			V202.667C416,137.963,363.349,85.333,298.667,85.333z M394.667,352c0,76.459-62.208,138.667-138.667,138.667
			S117.333,428.459,117.333,352V202.667c0-52.928,43.072-96,96-96h85.333c52.928,0,96,43.072,96,96V352z"/>
	</g>
</g>
<g>
	<g>
		<path d="M256,0c-5.888,0-10.667,4.779-10.667,10.667V96c0,5.888,4.779,10.667,10.667,10.667s10.667-4.779,10.667-10.667V10.667
			C266.667,4.779,261.888,0,256,0z"/>
	</g>
</g>
<g>
	<g>
		<path d="M256,149.333c-17.643,0-32,14.357-32,32V224c0,17.643,14.357,32,32,32c17.643,0,32-14.357,32-32v-42.667
			C288,163.691,273.643,149.333,256,149.333z M266.667,224c0,5.888-4.8,10.667-10.667,10.667c-5.867,0-10.667-4.779-10.667-10.667
			v-42.667c0-5.888,4.8-10.667,10.667-10.667c5.867,0,10.667,4.779,10.667,10.667V224z"/>
	</g>
</g>
<g>
</g>
<g>
</g>
<g>
</g>
<g>
</g>
<g>
</g>
<g>
</g>
<g>
</g>
<g>
</g>
<g>
</g>
<g>
</g>
<g>
</g>
<g>
</g>
<g>
</g>
<g>
</g>
<g>
</g>
</svg>
