<?xml version="1.0" encoding="iso-8859-1"?>
<!-- Generator: Adobe Illustrator 19.0.0, SVG Export Plug-In . SVG Version: 6.00 Build 0)  -->
<svg version="1.1" id="Capa_1" xmlns="http://www.w3.org/2000/svg" xmlns:xlink="http://www.w3.org/1999/xlink" x="0px" y="0px"
	 viewBox="0 0 490.667 490.667" style="enable-background:new 0 0 490.667 490.667;" xml:space="preserve">
<g>
	<g>
		<path d="M416,309.333c-41.173,0-74.667,33.493-74.667,74.667s33.493,74.667,74.667,74.667s74.667-33.493,74.667-74.667
			S457.173,309.333,416,309.333z M416,437.333c-29.419,0-53.333-23.915-53.333-53.333s23.915-53.333,53.333-53.333
			c29.419,0,53.333,23.915,53.333,53.333S445.419,437.333,416,437.333z"/>
	</g>
</g>
<g>
	<g>
		<path d="M245.333,10.667c-41.173,0-74.667,33.493-74.667,74.667S204.16,160,245.333,160S320,126.507,320,85.333
			S286.507,10.667,245.333,10.667z M245.333,138.667c-29.419,0-53.333-23.915-53.333-53.333S215.915,32,245.333,32
			c29.419,0,53.333,23.915,53.333,53.333C298.667,114.752,274.752,138.667,245.333,138.667z"/>
	</g>
</g>
<g>
	<g>
		<path d="M74.667,309.333C33.493,309.333,0,342.827,0,384s33.493,74.667,74.667,74.667s74.667-33.493,74.667-74.667
			S115.84,309.333,74.667,309.333z M74.667,437.333c-29.419,0-53.333-23.915-53.333-53.333s23.915-53.333,53.333-53.333
			C104.085,330.667,128,354.581,128,384S104.085,437.333,74.667,437.333z"/>
	</g>
</g>
<g>
	<g>
		<path d="M375.637,418.731c-3.755-4.565-10.517-5.205-15.019-1.429c-32.299,26.688-73.259,41.365-115.285,41.365
			c-41.984,0-82.923-14.656-115.221-41.301c-4.565-3.755-11.285-3.093-15.019,1.429c-3.755,4.565-3.115,11.264,1.429,15.019
			C152.661,463.595,198.421,480,245.333,480c46.955,0,92.736-16.427,128.875-46.251
			C378.752,429.995,379.392,423.275,375.637,418.731z"/>
	</g>
</g>
<g>
	<g>
		<path d="M312.981,86.208c-5.547-1.92-11.627,0.939-13.632,6.507c-1.941,5.568,0.96,11.648,6.507,13.632
			c72.277,25.579,120.811,94.293,120.811,170.987c0,14.336-1.664,28.565-4.949,42.283c-1.387,5.739,2.155,11.499,7.893,12.864
			c0.832,0.213,1.664,0.299,2.475,0.299c4.821,0,9.216-3.307,10.368-8.192c3.669-15.36,5.547-31.253,5.547-47.253
			C448,191.616,393.728,114.816,312.981,86.208z"/>
	</g>
</g>
<g>
	<g>
		<path d="M192.341,92.437c-1.963-5.589-8.107-8.491-13.589-6.592C97.344,114.176,42.667,191.125,42.667,277.333
			c0,15.915,1.856,31.787,5.525,47.189c1.152,4.907,5.525,8.192,10.368,8.192c0.811,0,1.643-0.085,2.475-0.299
			c5.717-1.365,9.259-7.104,7.893-12.864C65.664,305.813,64,291.584,64,277.333c0-77.141,48.939-146.005,121.749-171.307
			C191.317,104.085,194.261,98.005,192.341,92.437z"/>
	</g>
</g>
<g>
</g>
<g>
</g>
<g>
</g>
<g>
</g>
<g>
</g>
<g>
</g>
<g>
</g>
<g>
</g>
<g>
</g>
<g>
</g>
<g>
</g>
<g>
</g>
<g>
</g>
<g>
</g>
<g>
</g>
</svg>
