<?xml version="1.0" encoding="iso-8859-1"?>
<!-- Generator: Adobe Illustrator 19.0.0, SVG Export Plug-In . SVG Version: 6.00 Build 0)  -->
<svg version="1.1" id="Capa_1" xmlns="http://www.w3.org/2000/svg" xmlns:xlink="http://www.w3.org/1999/xlink" x="0px" y="0px"
	 viewBox="0 0 512 512" style="enable-background:new 0 0 512 512;" xml:space="preserve">
<g>
	<g>
		<path d="M501.333,384H128V10.667C128,4.779,123.221,0,117.333,0s-10.667,4.779-10.667,10.667v384
			c0,5.888,4.779,10.667,10.667,10.667h384c5.888,0,10.667-4.779,10.667-10.667S507.221,384,501.333,384z"/>
	</g>
</g>
<g>
	<g>
		<path d="M394.667,106.667h-384C4.779,106.667,0,111.445,0,117.333S4.779,128,10.667,128H384v373.333
			c0,5.888,4.779,10.667,10.667,10.667s10.667-4.779,10.667-10.667v-384C405.333,111.445,400.555,106.667,394.667,106.667z"/>
	</g>
</g>
<g>
	<g>
		<path d="M508.864,3.136c-4.16-4.16-10.923-4.16-15.083,0l-384,384c-4.16,4.16-4.16,10.923,0,15.083
			c2.091,2.069,4.821,3.115,7.552,3.115c2.731,0,5.461-1.045,7.531-3.115l384-384C513.024,14.059,513.024,7.296,508.864,3.136z"/>
	</g>
</g>
<g>
</g>
<g>
</g>
<g>
</g>
<g>
</g>
<g>
</g>
<g>
</g>
<g>
</g>
<g>
</g>
<g>
</g>
<g>
</g>
<g>
</g>
<g>
</g>
<g>
</g>
<g>
</g>
<g>
</g>
</svg>
