<?xml version="1.0" encoding="iso-8859-1"?>
<!-- Generator: Adobe Illustrator 19.0.0, SVG Export Plug-In . SVG Version: 6.00 Build 0)  -->
<svg version="1.1" id="Capa_1" xmlns="http://www.w3.org/2000/svg" xmlns:xlink="http://www.w3.org/1999/xlink" x="0px" y="0px"
	 viewBox="0 0 512 512" style="enable-background:new 0 0 512 512;" xml:space="preserve">
<g>
	<g>
		<path d="M453.184,172.011L261.312,65.344c-3.243-1.835-7.125-1.813-10.368-0.021L58.816,171.989
			c-3.371,1.899-5.483,5.461-5.483,9.344v213.333c0,3.883,2.112,7.445,5.483,9.323l192.128,106.667
			c1.621,0.896,3.392,1.344,5.184,1.344c1.792,0,3.563-0.448,5.184-1.344l191.872-106.667c3.371-1.877,5.483-5.44,5.483-9.323
			V181.333C458.667,177.451,456.555,173.888,453.184,172.011z M437.333,388.395L256.128,489.131L74.667,388.395V187.605
			L256.128,86.869l181.205,100.736V388.395z"/>
	</g>
</g>
<g>
	<g>
		<path d="M457.344,176.149c-2.88-5.141-9.408-6.976-14.507-4.117L256.149,275.797L69.205,172.011
			c-5.141-2.795-11.627-1.024-14.528,4.139c-0.896,1.643-1.344,3.413-1.344,5.163c0,3.755,1.984,7.403,5.483,9.365l186.645,103.595
			v207.061c0,5.888,4.779,10.667,10.667,10.667s10.667-4.779,10.709-10.667V294.272l186.389-103.616
			C458.368,187.797,460.224,181.291,457.344,176.149z"/>
	</g>
</g>
<g>
	<g>
		<path d="M285.077,24.448L263.808,3.179c-0.235-0.213-0.448-0.427-0.704-0.64c-1.621-1.387-3.563-2.197-5.568-2.453
			C257.088,0.021,256.64,0,256.192,0c-0.235,0-0.64,0.064-0.661,0c-2.496,0.149-4.949,1.173-6.869,3.093l-0.021,0.021
			l-21.333,21.333c-2.069,2.091-3.115,4.821-3.115,7.552s1.024,5.461,3.115,7.552c4.16,4.16,10.923,4.16,15.083,0l3.029-3.008
			l-0.085,16.747c-0.021,5.888,4.736,10.688,10.624,10.709c0.021,0,0.021,0,0.043,0c5.867,0,10.645-4.757,10.667-10.624
			l0.107-17.067l3.221,3.221c4.16,4.16,10.923,4.16,15.083,0C289.237,35.371,289.237,28.608,285.077,24.448z"/>
	</g>
</g>
<g>
	<g>
		<path d="M490.667,416c-5.888,0-10.667,4.779-10.667,10.667v6.251l-13.781-13.781c-4.16-4.16-10.923-4.16-15.083,0
			c-4.16,4.16-4.16,10.923,0,15.083L464.917,448h-4.416c-5.888,0-10.667,4.779-10.667,10.667s4.779,10.667,10.667,10.667h30.08
			c0.043,0,0.064,0,0.085,0c0.256,0,0.491,0,0.747-0.021c2.155-0.149,4.139-0.939,5.739-2.176c0.576-0.448,1.109-0.96,1.579-1.493
			l0.021-0.021c1.579-1.835,2.539-4.224,2.581-6.827c0-0.021,0-0.021,0-0.043c0-0.021,0-0.021,0-0.021v-0.021c0,0,0,0,0-0.021
			v-0.021v-32C501.333,420.779,496.555,416,490.667,416z"/>
	</g>
</g>
<g>
	<g>
		<path d="M51.499,448h-4.416l13.781-13.781c4.16-4.16,4.16-10.923,0-15.083c-4.16-4.16-10.923-4.16-15.083,0L32,432.917v-4.416
			c0-5.888-4.779-10.667-10.667-10.667s-10.667,4.779-10.667,10.667v30.165v0.021c0,0.021,0,0.021,0,0.021v0.021c0,0,0,0,0,0.021
			c0,0.021,0,0.021,0,0.043c0.043,2.603,1.003,4.992,2.581,6.827l0.021,0.021c0.469,0.533,1.003,1.045,1.579,1.493
			c1.621,1.237,3.584,2.027,5.739,2.176c0.256,0.021,0.491,0.021,0.747,0.021c0.021,0,0.043,0,0.085,0h30.08
			c5.888,0,10.667-4.779,10.667-10.667S57.387,448,51.499,448z"/>
	</g>
</g>
<g>
</g>
<g>
</g>
<g>
</g>
<g>
</g>
<g>
</g>
<g>
</g>
<g>
</g>
<g>
</g>
<g>
</g>
<g>
</g>
<g>
</g>
<g>
</g>
<g>
</g>
<g>
</g>
<g>
</g>
</svg>
