<?xml version="1.0" encoding="iso-8859-1"?>
<!-- Generator: Adobe Illustrator 19.0.0, SVG Export Plug-In . SVG Version: 6.00 Build 0)  -->
<svg version="1.1" id="Capa_1" xmlns="http://www.w3.org/2000/svg" xmlns:xlink="http://www.w3.org/1999/xlink" x="0px" y="0px"
	 viewBox="0 0 490.676 490.676" style="enable-background:new 0 0 490.676 490.676;" xml:space="preserve">
<g>
	<g>
		<path d="M486.836,119.82l-128-106.667c-1.92-1.6-4.331-2.475-6.827-2.475H138.676c-2.496,0-4.907,0.875-6.827,2.475L3.85,119.82
			c-4.245,3.52-5.099,9.685-1.963,14.229l234.667,341.333c2.005,2.901,5.269,4.629,8.789,4.629s6.784-1.728,8.789-4.629
			l234.667-341.333C491.914,129.505,491.06,123.34,486.836,119.82z M245.343,450.508L24.97,129.996l117.568-97.984h205.611
			l117.568,97.984L245.343,450.508z"/>
	</g>
</g>
<g>
	<g>
		<path d="M480.01,117.345H10.676c-5.888,0-10.667,4.779-10.667,10.667c0,5.888,4.779,10.667,10.667,10.667H480.01
			c5.888,0,10.667-4.779,10.667-10.667C490.676,122.124,485.898,117.345,480.01,117.345z"/>
	</g>
</g>
<g>
	<g>
		<path d="M255.604,466.444l-94.741-336.896l61.632-102.72c3.029-5.056,1.387-11.605-3.669-14.635
			c-4.992-3.029-11.584-1.387-14.635,3.669l-64,106.667c-1.515,2.496-1.92,5.547-1.109,8.384l96,341.333
			c1.323,4.672,5.589,7.765,10.261,7.765c0.96,0,1.92-0.128,2.88-0.405C253.898,478.006,257.183,472.14,255.604,466.444z"/>
	</g>
</g>
<g>
	<g>
		<path d="M350.495,122.529l-64-106.667c-3.051-5.056-9.621-6.72-14.635-3.669c-5.056,3.029-6.72,9.6-3.669,14.635l61.632,102.72
			L235.06,466.444c-1.579,5.675,1.707,11.563,7.381,13.163c0.981,0.277,1.941,0.405,2.901,0.405c4.672,0,8.939-3.093,10.283-7.765
			l96-341.333C352.415,128.076,352.01,125.025,350.495,122.529z"/>
	</g>
</g>
<g>
</g>
<g>
</g>
<g>
</g>
<g>
</g>
<g>
</g>
<g>
</g>
<g>
</g>
<g>
</g>
<g>
</g>
<g>
</g>
<g>
</g>
<g>
</g>
<g>
</g>
<g>
</g>
<g>
</g>
</svg>
