<?xml version="1.0" encoding="iso-8859-1"?>
<!-- Generator: Adobe Illustrator 19.0.0, SVG Export Plug-In . SVG Version: 6.00 Build 0)  -->
<svg version="1.1" id="Capa_1" xmlns="http://www.w3.org/2000/svg" xmlns:xlink="http://www.w3.org/1999/xlink" x="0px" y="0px"
	 viewBox="0 0 512 512" style="enable-background:new 0 0 512 512;" xml:space="preserve">
<g>
	<g>
		<path d="M256,0C114.837,0,0,114.837,0,256s114.837,256,256,256s256-114.837,256-256S397.163,0,256,0z M256,490.667
			c-129.387,0-234.667-105.28-234.667-234.667S126.613,21.333,256,21.333S490.667,126.613,490.667,256S385.387,490.667,256,490.667z
			"/>
	</g>
</g>
<g>
	<g>
		<path d="M256,149.333c-58.816,0-106.667,47.851-106.667,106.667S197.184,362.667,256,362.667S362.667,314.816,362.667,256
			S314.816,149.333,256,149.333z M256,341.333c-47.061,0-85.333-38.272-85.333-85.333s38.272-85.333,85.333-85.333
			s85.333,38.272,85.333,85.333S303.061,341.333,256,341.333z"/>
	</g>
</g>
<g>
	<g>
		<path d="M256,234.667c-11.755,0-21.333,9.557-21.333,21.333s9.579,21.333,21.333,21.333s21.333-9.557,21.333-21.333
			S267.755,234.667,256,234.667z"/>
	</g>
</g>
<g>
	<g>
		<path d="M256,42.667C138.368,42.667,42.667,138.368,42.667,256c0,5.888,4.779,10.667,10.667,10.667S64,261.888,64,256
			c0-105.877,86.144-192,192-192c5.888,0,10.667-4.779,10.667-10.667S261.888,42.667,256,42.667z"/>
	</g>
</g>
<g>
</g>
<g>
</g>
<g>
</g>
<g>
</g>
<g>
</g>
<g>
</g>
<g>
</g>
<g>
</g>
<g>
</g>
<g>
</g>
<g>
</g>
<g>
</g>
<g>
</g>
<g>
</g>
<g>
</g>
</svg>
