<?xml version="1.0" encoding="iso-8859-1"?>
<!-- Generator: Adobe Illustrator 19.0.0, SVG Export Plug-In . SVG Version: 6.00 Build 0)  -->
<svg version="1.1" id="Capa_1" xmlns="http://www.w3.org/2000/svg" xmlns:xlink="http://www.w3.org/1999/xlink" x="0px" y="0px"
	 viewBox="0 0 512 512" style="enable-background:new 0 0 512 512;" xml:space="preserve">
<g>
	<g>
		<path d="M469.333,277.333H42.667C19.136,277.333,0,296.469,0,320v85.333C0,428.864,19.136,448,42.667,448h426.667
			C492.864,448,512,428.864,512,405.333V320C512,296.469,492.864,277.333,469.333,277.333z M490.667,405.333
			c0,11.776-9.579,21.333-21.333,21.333H42.667c-11.755,0-21.333-9.557-21.333-21.333V320c0-11.776,9.579-21.333,21.333-21.333
			h426.667c11.755,0,21.333,9.557,21.333,21.333V405.333z"/>
	</g>
</g>
<g>
	<g>
		<path d="M507.968,302.016L401.195,88.341c-0.192-0.384-0.405-0.747-0.661-1.131C393.259,73.067,378.539,64,362.667,64H149.333
			c-15.851,0-30.528,9.045-37.824,23.125c-0.256,0.405-0.491,0.789-0.704,1.216L4.032,302.016
			c-2.624,5.269-0.491,11.691,4.779,14.315c5.291,2.667,11.691,0.491,14.315-4.779L129.344,98.987
			c0.299-0.448,0.555-0.917,0.789-1.408c3.584-7.552,10.944-12.245,19.2-12.245h213.333c8.256,0,15.616,4.693,19.2,12.245
			c0.235,0.448,0.469,0.896,0.768,1.323l106.261,212.651c1.877,3.712,5.632,5.888,9.557,5.888c1.6,0,3.221-0.363,4.736-1.109
			C508.459,313.707,510.613,307.285,507.968,302.016z"/>
	</g>
</g>
<g>
	<g>
		<path d="M64,320c-11.755,0-21.333,9.557-21.333,21.333c0,11.776,9.579,21.333,21.333,21.333c11.755,0,21.333-9.557,21.333-21.333
			C85.333,329.557,75.755,320,64,320z"/>
	</g>
</g>
<g>
	<g>
		<path d="M128,320c-11.755,0-21.333,9.557-21.333,21.333c0,11.776,9.579,21.333,21.333,21.333c11.755,0,21.333-9.557,21.333-21.333
			C149.333,329.557,139.755,320,128,320z"/>
	</g>
</g>
<g>
	<g>
		<path d="M458.667,384H53.333c-5.888,0-10.667,4.779-10.667,10.667s4.779,10.667,10.667,10.667h405.333
			c5.888,0,10.667-4.779,10.667-10.667S464.555,384,458.667,384z"/>
	</g>
</g>
<g>
</g>
<g>
</g>
<g>
</g>
<g>
</g>
<g>
</g>
<g>
</g>
<g>
</g>
<g>
</g>
<g>
</g>
<g>
</g>
<g>
</g>
<g>
</g>
<g>
</g>
<g>
</g>
<g>
</g>
</svg>
