<?xml version="1.0" encoding="iso-8859-1"?>
<!-- Generator: Adobe Illustrator 19.0.0, SVG Export Plug-In . SVG Version: 6.00 Build 0)  -->
<svg version="1.1" id="Capa_1" xmlns="http://www.w3.org/2000/svg" xmlns:xlink="http://www.w3.org/1999/xlink" x="0px" y="0px"
	 viewBox="0 0 512 512" style="enable-background:new 0 0 512 512;" xml:space="preserve">
<g>
	<g>
		<path d="M405.333,0H106.667c-17.643,0-32,14.357-32,32v469.333c0,5.888,4.779,10.667,10.667,10.667h341.333
			c5.888,0,10.667-4.779,10.667-10.667V32C437.333,14.357,422.976,0,405.333,0z M416,490.667H96V32
			c0-5.867,4.8-10.667,10.667-10.667h298.667C411.2,21.333,416,26.133,416,32V490.667z"/>
	</g>
</g>
<g>
	<g>
		<path d="M384,42.667H128c-5.888,0-10.667,4.779-10.667,10.667v448c0,5.888,4.779,10.667,10.667,10.667h256
			c5.888,0,10.667-4.779,10.667-10.667v-448C394.667,47.445,389.888,42.667,384,42.667z M373.333,490.667H138.667V64h234.667
			V490.667z"/>
	</g>
</g>
<g>
	<g>
		<path d="M341.333,256H320c-17.643,0-32,14.357-32,32c0,5.888,4.779,10.667,10.667,10.667s10.667-4.779,10.667-10.667
			c0-5.867,4.8-10.667,10.667-10.667h21.333c5.888,0,10.667-4.779,10.667-10.667S347.221,256,341.333,256z"/>
	</g>
</g>
<g>
</g>
<g>
</g>
<g>
</g>
<g>
</g>
<g>
</g>
<g>
</g>
<g>
</g>
<g>
</g>
<g>
</g>
<g>
</g>
<g>
</g>
<g>
</g>
<g>
</g>
<g>
</g>
<g>
</g>
</svg>
