<?xml version="1.0" encoding="iso-8859-1"?>
<!-- Generator: Adobe Illustrator 19.0.0, SVG Export Plug-In . SVG Version: 6.00 Build 0)  -->
<svg version="1.1" id="Capa_1" xmlns="http://www.w3.org/2000/svg" xmlns:xlink="http://www.w3.org/1999/xlink" x="0px" y="0px"
	 viewBox="0 0 512 512" style="enable-background:new 0 0 512 512;" xml:space="preserve">
<g>
	<g>
		<path d="M256,0c-76.459,0-138.667,62.208-138.667,138.667c0,64.853,44.352,120.171,106.667,134.805v67.861h-32
			c-5.888,0-10.667,4.779-10.667,10.667v42.667c0,5.888,4.779,10.667,10.667,10.667h32v21.333h-32
			c-5.888,0-10.667,4.779-10.667,10.667V480c0,5.888,4.779,10.667,10.667,10.667h33.813C230.229,503.083,242.091,512,256,512
			c17.643,0,32-14.357,32-32V273.472c62.315-14.635,106.667-69.952,106.667-134.805C394.667,62.208,332.459,0,256,0z
			 M275.563,254.229c-5.141,0.853-8.896,5.312-8.896,10.517V480c0,5.888-4.779,10.667-10.667,10.667
			c-5.888,0-10.667-4.779-10.667-10.667c0-5.888-4.779-10.667-10.667-10.667h-32V448h32c5.888,0,10.667-4.779,10.667-10.667v-42.667
			c0-5.888-4.779-10.667-10.667-10.667h-32v-21.333h32c5.888,0,10.667-4.779,10.667-10.667v-87.253
			c0-5.205-3.755-9.643-8.896-10.517c-56.661-9.515-97.771-58.133-97.771-115.563c0-64.704,52.629-117.333,117.333-117.333
			c64.704,0,117.333,52.629,117.333,117.333C373.333,196.096,332.224,244.715,275.563,254.229z"/>
	</g>
</g>
<g>
	<g>
		<path d="M256,42.667c-29.397,0-53.333,23.936-53.333,53.333s23.936,53.333,53.333,53.333S309.333,125.397,309.333,96
			S285.397,42.667,256,42.667z M256,128c-17.643,0-32-14.357-32-32s14.357-32,32-32c17.643,0,32,14.357,32,32
			C288,113.643,273.643,128,256,128z"/>
	</g>
</g>
<g>
</g>
<g>
</g>
<g>
</g>
<g>
</g>
<g>
</g>
<g>
</g>
<g>
</g>
<g>
</g>
<g>
</g>
<g>
</g>
<g>
</g>
<g>
</g>
<g>
</g>
<g>
</g>
<g>
</g>
</svg>
