<?xml version="1.0" encoding="iso-8859-1"?>
<!-- Generator: Adobe Illustrator 19.0.0, SVG Export Plug-In . SVG Version: 6.00 Build 0)  -->
<svg version="1.1" id="Capa_1" xmlns="http://www.w3.org/2000/svg" xmlns:xlink="http://www.w3.org/1999/xlink" x="0px" y="0px"
	 viewBox="0 0 490.667 490.667" style="enable-background:new 0 0 490.667 490.667;" xml:space="preserve">
<g>
	<g>
		<path d="M245.333,0C110.059,0,0,110.059,0,245.333s110.059,245.333,245.333,245.333s245.333-110.059,245.333-245.333
			S380.608,0,245.333,0z M245.333,469.333c-123.52,0-224-100.48-224-224s100.48-224,224-224s224,100.48,224,224
			S368.853,469.333,245.333,469.333z"/>
	</g>
</g>
<g>
	<g>
		<path d="M245.333,106.667c-76.459,0-138.667,62.208-138.667,138.667S168.875,384,245.333,384S384,321.792,384,245.333
			S321.792,106.667,245.333,106.667z M245.333,362.667C180.651,362.667,128,310.037,128,245.333S180.651,128,245.333,128
			s117.333,52.629,117.333,117.333S310.016,362.667,245.333,362.667z"/>
	</g>
</g>
<g>
	<g>
		<path d="M245.333,0c-5.888,0-10.667,4.779-10.667,10.667v106.667c0,5.888,4.779,10.667,10.667,10.667S256,123.221,256,117.333
			V10.667C256,4.779,251.221,0,245.333,0z"/>
	</g>
</g>
<g>
	<g>
		<path d="M124.608,201.365L21.675,173.291c-5.717-1.579-11.541,1.813-13.099,7.488c-1.536,5.675,1.792,11.541,7.488,13.077
			l102.933,28.075c0.939,0.277,1.899,0.384,2.816,0.384c4.693,0,9.003-3.115,10.283-7.851
			C133.632,208.789,130.304,202.923,124.608,201.365z"/>
	</g>
</g>
<g>
</g>
<g>
</g>
<g>
</g>
<g>
</g>
<g>
</g>
<g>
</g>
<g>
</g>
<g>
</g>
<g>
</g>
<g>
</g>
<g>
</g>
<g>
</g>
<g>
</g>
<g>
</g>
<g>
</g>
</svg>
