<?xml version="1.0" encoding="iso-8859-1"?>
<!-- Generator: Adobe Illustrator 19.0.0, SVG Export Plug-In . SVG Version: 6.00 Build 0)  -->
<svg version="1.1" id="Capa_1" xmlns="http://www.w3.org/2000/svg" xmlns:xlink="http://www.w3.org/1999/xlink" x="0px" y="0px"
	 viewBox="0 0 512 512" style="enable-background:new 0 0 512 512;" xml:space="preserve">
<g>
	<g>
		<path d="M402.048,128.469C387.2,54.635,321.365,0,245.333,0c-88.235,0-160,71.765-160,160c0,3.627,0.149,7.317,0.469,11.2
			C37.653,176.32,0,217.173,0,266.667c0,52.928,43.072,96,96,96h85.333c5.888,0,10.667-4.779,10.667-10.667
			c0-5.888-4.779-10.667-10.667-10.667H96c-41.173,0-74.667-33.493-74.667-74.667S54.827,192,95.296,191.979
			c3.648,0.491,8.149-0.768,10.496-3.499c2.027-2.325,2.944-5.44,2.496-8.491c-1.109-7.637-1.621-13.995-1.621-19.989
			c0-76.459,62.208-138.667,138.667-138.667c68.501,0,127.445,51.157,137.109,118.997c0.747,5.269,6.912,9.003,12.224,9.003
			c52.928,0,96,43.072,96,96c0,52.928-43.072,96-96,96h-85.333c-5.888,0-10.667,4.779-10.667,10.667
			c0,5.888,4.779,10.667,10.667,10.667h85.333c64.683,0,117.333-52.651,117.333-117.333
			C512,183.595,464.085,132.864,402.048,128.469z"/>
	</g>
</g>
<g>
	<g>
		<path d="M338.197,408.469c-4.16-4.16-10.923-4.16-15.083,0L256,475.584V181.333c0-5.888-4.779-10.667-10.667-10.667
			s-10.667,4.779-10.667,10.667v294.251l-67.136-67.136c-4.16-4.16-10.923-4.16-15.083,0c-2.069,2.091-3.115,4.821-3.115,7.552
			c0,2.731,1.045,5.461,3.136,7.531l85.333,85.333c1.92,1.92,4.395,2.965,6.912,3.115h0.021C244.928,512,245.12,512,245.333,512
			c0.405,0,0.811-0.021,1.195-0.064c0.021,0,0.021,0,0.021,0c2.048-0.256,4.032-1.067,5.675-2.475c0.021,0,0.021,0,0.021,0
			c0.235-0.192,0.469-0.405,0.683-0.64l85.269-85.269C342.357,419.392,342.357,412.629,338.197,408.469z"/>
	</g>
</g>
<g>
</g>
<g>
</g>
<g>
</g>
<g>
</g>
<g>
</g>
<g>
</g>
<g>
</g>
<g>
</g>
<g>
</g>
<g>
</g>
<g>
</g>
<g>
</g>
<g>
</g>
<g>
</g>
<g>
</g>
</svg>
