<?xml version="1.0" encoding="iso-8859-1"?>
<!-- Generator: Adobe Illustrator 19.0.0, SVG Export Plug-In . SVG Version: 6.00 Build 0)  -->
<svg version="1.1" id="Capa_1" xmlns="http://www.w3.org/2000/svg" xmlns:xlink="http://www.w3.org/1999/xlink" x="0px" y="0px"
	 viewBox="0 0 512 512" style="enable-background:new 0 0 512 512;" xml:space="preserve">
<g>
	<g>
		<path d="M256,0C114.837,0,0,114.837,0,256s114.837,256,256,256s256-114.837,256-256S397.163,0,256,0z M256,490.667
			c-129.387,0-234.667-105.28-234.667-234.667S126.613,21.333,256,21.333S490.667,126.613,490.667,256S385.387,490.667,256,490.667z
			"/>
	</g>
</g>
<g>
	<g>
		<path d="M84.843,327.488C80.981,315.2,72.64,306.859,65.28,299.499c-5.269-5.269-10.261-10.24-12.949-16.021
			c-6.357-13.525-15.701-67.648-20.437-100.736c-0.832-5.867-6.315-9.877-12.075-9.067c-5.824,0.832-9.877,6.251-9.045,12.053
			c1.237,8.747,12.501,86.059,22.229,106.816c4.309,9.131,11.157,15.979,17.195,22.016c6.443,6.421,12.011,11.989,14.293,19.307
			c6.507,20.736,2.688,70.037,0.661,87.296c-0.683,5.867,3.499,11.157,9.344,11.84c0.427,0.064,0.832,0.085,1.259,0.085
			c5.333,0,9.963-4.011,10.581-9.387C86.656,420.971,94.059,356.821,84.843,327.488z"/>
	</g>
</g>
<g>
	<g>
		<path d="M505.792,277.867c-5.867-4.288-12.501-14.784-18.901-24.96c-13.312-21.099-28.203-45.099-52.075-39.275
			c-15.296,3.733-17.301,19.861-18.645,30.528c-0.192,1.643-0.448,3.691-0.747,5.675c-12.416-13.931-34.645-37.867-47.125-45.568
			c-8.192-5.077-30.613-10.837-35.029-11.968c-3.904-0.96-8.107,0.363-10.731,3.456c-2.624,3.093-3.264,7.403-1.643,11.136
			c1.536,3.499,15.04,34.368,22.464,44.651c3.179,4.395,10.731,11.797,16.405,17.109c-6.208,10.688-16.192,28.843-18.197,38.507
			c-1.984,9.579-1.152,23.616-0.32,37.227c0.619,10.155,1.301,21.675,0.299,26.923c-3.947,20.288-42.901,53.419-65.152,55.403
			c-8.555,0.555-26.347-10.027-31.211-33.685c0.043-1.984,2.816-7.68,4.48-11.051c3.243-6.656,6.336-12.949,6.336-19.307
			c0-25.003-3.413-69.099-26.261-83.669c-10.731-6.827-26.795-4.629-42.325-2.453c-8.725,1.237-19.648,2.731-24.171,1.301
			c-3.349-1.088-12.587-10.325-14.784-15.403c-3.541-8.192-4.053-27.712-0.853-32.597c19.072-29.312,26.133-35.477,36.437-38.187
			c11.499-3.051,36.715-0.512,58.965,1.728c40.939,4.096,59.307,5.333,65.323-7.552c4.608-9.92,3.776-20.949-2.261-30.272
			c-11.904-18.368-41.621-28.608-82.219-27.563c-13.013,0.192-24.853,7.104-35.285,13.205c-6.507,3.819-13.909,8.128-18.069,9.237
			c-0.576-2.048,1.856-10.347,9.173-17.216c3.691-3.456,11.115-8.789,19.435-5.824c5.248,1.856,11.093-0.683,13.355-5.824
			c3.221-7.424,7.787-16.939,9.792-19.712c6.336-8.789,25.621-35.52,36.267-38.165c4.288-0.811,21.141,3.947,36.053,10.155
			c2.667,1.088,5.675,1.088,8.341-0.064c2.645-1.152,4.736-3.328,5.739-6.037c2.859-7.616,13.717-30.635,25.493-36.203
			c5.312-2.517,7.595-8.875,5.077-14.208c-2.517-5.312-8.853-7.552-14.208-5.077c-15.211,7.189-26.304,26.133-32.043,38.08
			c-12.416-4.565-29.824-9.728-39.552-7.36c-16.064,3.989-32.789,24.661-48.725,46.763c-2.411,3.328-5.739,10.048-8.277,15.531
			c-12.096-0.981-24.107,4.48-33.92,14.997c-9.621,10.304-16.96,26.219-11.584,38.549c3.264,7.531,10.453,11.84,19.755,11.84
			c9.771,0,18.944-5.376,28.672-11.051c8.555-5.013,17.408-10.176,24.811-10.283c38.293-0.811,58.197,8.853,64.021,17.813
			c1.579,2.432,2.091,4.843,1.6,7.296c-7.723,1.429-29.696-0.811-44.651-2.304c-25.216-2.517-51.328-5.141-66.517-1.131
			c-18.88,4.949-29.867,17.963-48.896,47.147c-8.533,13.141-6.165,40.427-0.853,52.736c3.669,8.469,16.661,23.68,27.883,27.264
			c9.195,2.901,21.035,1.237,33.6-0.469c9.493-1.323,23.787-3.285,27.925-0.683c9.813,6.251,16.405,32.64,16.405,65.579
			c-0.128,1.771-2.667,6.933-4.16,10.027c-3.883,7.936-7.915,16.171-6.272,24.192c6.592,32.448,31.125,51.285,51.285,51.285
			c0.917,0,1.835-0.043,2.795-0.128c29.461-2.624,77.973-40.597,84.181-72.597c1.536-7.893,0.811-19.733,0.064-32.256
			c-0.704-11.605-1.493-24.789-0.085-31.595c1.408-6.805,12.544-27.072,19.989-39.275c2.667-4.395,1.835-10.069-1.984-13.504
			c-6.656-5.995-17.216-16.043-19.797-19.627c-2.453-3.392-6.485-11.179-10.539-19.605c3.2,1.131,5.696,2.155,6.933,2.923
			c11.989,7.381,40.768,39.467,50.837,51.2c2.539,2.923,6.507,4.309,10.155,3.499c15.893-3.115,17.941-19.477,19.285-30.315
			c0.469-3.904,1.387-11.115,2.517-12.459c8.768-1.792,19.947,15.659,28.971,29.952c7.829,12.373,15.189,24.064,24.32,30.763
			c4.757,3.499,11.413,2.475,14.912-2.283C511.573,288.043,510.549,281.344,505.792,277.867z"/>
	</g>
</g>
<g>
</g>
<g>
</g>
<g>
</g>
<g>
</g>
<g>
</g>
<g>
</g>
<g>
</g>
<g>
</g>
<g>
</g>
<g>
</g>
<g>
</g>
<g>
</g>
<g>
</g>
<g>
</g>
<g>
</g>
</svg>
