<?xml version="1.0" encoding="iso-8859-1"?>
<!-- Generator: Adobe Illustrator 19.0.0, SVG Export Plug-In . SVG Version: 6.00 Build 0)  -->
<svg version="1.1" id="Capa_1" xmlns="http://www.w3.org/2000/svg" xmlns:xlink="http://www.w3.org/1999/xlink" x="0px" y="0px"
	 viewBox="0 0 490.676 490.676" style="enable-background:new 0 0 490.676 490.676;" xml:space="preserve">
<g>
	<g>
		<path d="M480,352.005H10.667C4.779,352.005,0,356.783,0,362.671v64c0,5.888,4.779,10.667,10.667,10.667H480
			c5.888,0,10.667-4.779,10.667-10.667v-64C490.667,356.783,485.888,352.005,480,352.005z M469.333,416.005h-448v-42.667h448
			V416.005z"/>
	</g>
</g>
<g>
	<g>
		<path d="M487.552,291.119L252.885,56.453c-2.005-1.984-4.715-3.115-7.552-3.115h-0.021c-2.837,0-5.568,1.152-7.552,3.157
			C149.995,145.242,17.003,279.151,4.928,289.69c-2.389,1.515-4.139,3.968-4.715,6.912c-0.981,5.013,1.707,10.027,6.421,11.968
			c1.237,0.469,2.304,0.939,4.032,0.512L480,309.338c4.309,0,8.213-2.603,9.856-6.592
			C491.52,298.757,490.603,294.17,487.552,291.119z M36.971,288.005c27.989-26.432,85.312-84.373,208.405-208.875l208.875,208.875
			H36.971z"/>
	</g>
</g>
<g>
</g>
<g>
</g>
<g>
</g>
<g>
</g>
<g>
</g>
<g>
</g>
<g>
</g>
<g>
</g>
<g>
</g>
<g>
</g>
<g>
</g>
<g>
</g>
<g>
</g>
<g>
</g>
<g>
</g>
</svg>
