<?xml version="1.0" encoding="iso-8859-1"?>
<!-- Generator: Adobe Illustrator 19.0.0, SVG Export Plug-In . SVG Version: 6.00 Build 0)  -->
<svg version="1.1" id="Capa_1" xmlns="http://www.w3.org/2000/svg" xmlns:xlink="http://www.w3.org/1999/xlink" x="0px" y="0px"
	 viewBox="0 0 490.687 490.687" style="enable-background:new 0 0 490.687 490.687;" xml:space="preserve">
<g>
	<g>
		<path d="M245.341,405.101c-11.776,0-21.333,9.579-21.333,21.333c0,11.755,9.557,21.333,21.333,21.333s21.333-9.579,21.333-21.333
			C266.674,414.679,257.117,405.101,245.341,405.101z"/>
	</g>
</g>
<g>
	<g>
		<path d="M245.341,149.101c-5.888,0-10.667,4.779-10.667,10.667v213.333c0,5.888,4.779,10.667,10.667,10.667
			s10.667-4.779,10.667-10.667V159.767C256.007,153.879,251.229,149.101,245.341,149.101z"/>
	</g>
</g>
<g>
	<g>
		<path d="M489.565,475.01L254.898,5.677c-3.627-7.232-15.467-7.232-19.093,0L1.138,475.01c-1.664,3.285-1.493,7.232,0.448,10.368
			c1.963,3.136,5.397,5.056,9.088,5.056h469.333c3.691,0,7.125-1.92,9.109-5.056C491.037,482.242,491.207,478.317,489.565,475.01z
			 M27.933,469.101L245.341,34.285L462.77,469.101H27.933z"/>
	</g>
</g>
<g>
</g>
<g>
</g>
<g>
</g>
<g>
</g>
<g>
</g>
<g>
</g>
<g>
</g>
<g>
</g>
<g>
</g>
<g>
</g>
<g>
</g>
<g>
</g>
<g>
</g>
<g>
</g>
<g>
</g>
</svg>
