<?xml version="1.0" encoding="iso-8859-1"?>
<!-- Generator: Adobe Illustrator 19.0.0, SVG Export Plug-In . SVG Version: 6.00 Build 0)  -->
<svg version="1.1" id="Capa_1" xmlns="http://www.w3.org/2000/svg" xmlns:xlink="http://www.w3.org/1999/xlink" x="0px" y="0px"
	 viewBox="0 0 512 512" style="enable-background:new 0 0 512 512;" xml:space="preserve">
<g>
	<g>
		<path d="M256,0C156.011,0,74.667,81.344,74.667,181.333S156.011,362.667,256,362.667s181.333-81.344,181.333-181.333
			S355.989,0,256,0z M256,341.333c-88.235,0-160-71.765-160-160s71.765-160,160-160s160,71.765,160,160S344.235,341.333,256,341.333
			z"/>
	</g>
</g>
<g>
	<g>
		<path d="M256,341.333c-5.888,0-10.667,4.779-10.667,10.667v149.333c0,5.888,4.779,10.667,10.667,10.667
			s10.667-4.779,10.667-10.667V352C266.667,346.112,261.888,341.333,256,341.333z"/>
	</g>
</g>
<g>
	<g>
		<path d="M320,426.667H192c-5.888,0-10.667,4.779-10.667,10.667c0,5.888,4.779,10.667,10.667,10.667h128
			c5.888,0,10.667-4.779,10.667-10.667C330.667,431.445,325.888,426.667,320,426.667z"/>
	</g>
</g>
<g>
</g>
<g>
</g>
<g>
</g>
<g>
</g>
<g>
</g>
<g>
</g>
<g>
</g>
<g>
</g>
<g>
</g>
<g>
</g>
<g>
</g>
<g>
</g>
<g>
</g>
<g>
</g>
<g>
</g>
</svg>
