<?xml version="1.0" encoding="iso-8859-1"?>
<!-- Generator: Adobe Illustrator 19.0.0, SVG Export Plug-In . SVG Version: 6.00 Build 0)  -->
<svg version="1.1" id="Capa_1" xmlns="http://www.w3.org/2000/svg" xmlns:xlink="http://www.w3.org/1999/xlink" x="0px" y="0px"
	 viewBox="0 0 512 512" style="enable-background:new 0 0 512 512;" xml:space="preserve">
<g>
	<g>
		<path d="M85.333,0c-5.888,0-10.667,4.779-10.667,10.667v490.667c0,5.888,4.779,10.667,10.667,10.667S96,507.221,96,501.333V10.667
			C96,4.779,91.221,0,85.333,0z"/>
	</g>
</g>
<g>
	<g>
		<path d="M426.667,42.667H288V32c0-17.643-14.357-32-32-32H85.333c-5.888,0-10.667,4.779-10.667,10.667s4.779,10.667,10.667,10.667
			H256c5.888,0,10.667,4.779,10.667,10.667v21.333c0,5.888,4.779,10.667,10.667,10.667H416v213.333H298.667
			c-5.888,0-10.667-4.779-10.667-10.667c0-17.643-14.357-32-32-32H85.333c-5.888,0-10.667,4.779-10.667,10.667
			S79.445,256,85.333,256H256c5.888,0,10.667,4.779,10.667,10.667c0,17.643,14.357,32,32,32h128c5.888,0,10.667-4.779,10.667-10.667
			V53.333C437.333,47.445,432.555,42.667,426.667,42.667z"/>
	</g>
</g>
<g>
	<g>
		<path d="M277.333,21.333c-5.888,0-10.667,4.779-10.667,10.667v106.667c0,5.888,4.779,10.667,10.667,10.667
			S288,144.555,288,138.667V32C288,26.112,283.221,21.333,277.333,21.333z"/>
	</g>
</g>
<g>
</g>
<g>
</g>
<g>
</g>
<g>
</g>
<g>
</g>
<g>
</g>
<g>
</g>
<g>
</g>
<g>
</g>
<g>
</g>
<g>
</g>
<g>
</g>
<g>
</g>
<g>
</g>
<g>
</g>
</svg>
