<?xml version="1.0" encoding="iso-8859-1"?>
<!-- Generator: Adobe Illustrator 19.0.0, SVG Export Plug-In . SVG Version: 6.00 Build 0)  -->
<svg version="1.1" id="Capa_1" xmlns="http://www.w3.org/2000/svg" xmlns:xlink="http://www.w3.org/1999/xlink" x="0px" y="0px"
	 viewBox="0 0 512 512" style="enable-background:new 0 0 512 512;" xml:space="preserve">
<g>
	<g>
		<path d="M371.753,197.056c-1.963-3.136-5.397-5.056-9.088-5.056h-49.216l59.328-177.941c1.088-3.264,0.555-6.848-1.472-9.621
			C369.321,1.643,366.1,0,362.665,0H191.998c-5.269,0-9.749,3.84-10.539,9.045l-42.667,277.333
			c-0.491,3.093,0.405,6.208,2.432,8.576c2.048,2.368,4.992,3.712,8.107,3.712h53.333v202.667c0,4.949,3.392,9.259,8.213,10.389
			c0.832,0.192,1.643,0.277,2.453,0.277c3.989,0,7.701-2.219,9.536-5.909l149.333-298.667
			C373.865,204.139,373.694,200.192,371.753,197.056z M223.998,456.149V288c0-5.888-4.779-10.667-10.667-10.667h-51.563l39.381-256
			h146.731l-59.328,177.941c-1.088,3.264-0.555,6.848,1.472,9.621c1.984,2.795,5.205,4.437,8.64,4.437h46.741L223.998,456.149z"/>
	</g>
</g>
<g>
</g>
<g>
</g>
<g>
</g>
<g>
</g>
<g>
</g>
<g>
</g>
<g>
</g>
<g>
</g>
<g>
</g>
<g>
</g>
<g>
</g>
<g>
</g>
<g>
</g>
<g>
</g>
<g>
</g>
</svg>
