<?xml version="1.0" encoding="iso-8859-1"?>
<!-- Generator: Adobe Illustrator 19.0.0, SVG Export Plug-In . SVG Version: 6.00 Build 0)  -->
<svg version="1.1" id="Capa_1" xmlns="http://www.w3.org/2000/svg" xmlns:xlink="http://www.w3.org/1999/xlink" x="0px" y="0px"
	 viewBox="0 0 512 512" style="enable-background:new 0 0 512 512;" xml:space="preserve">
<g>
	<g>
		<path d="M458.667,106.667H288c-16.021,0-31.936,5.291-44.8,14.912L192,160c-9.173,6.869-20.544,10.667-32,10.667H53.333
			C23.936,170.667,0,194.581,0,224v192c0,17.643,14.357,32,32,32h448c17.643,0,32-14.357,32-32V160
			C512,130.581,488.064,106.667,458.667,106.667z M490.667,416c0,5.867-4.779,10.667-10.667,10.667H32
			c-5.888,0-10.667-4.8-10.667-10.667V224c0-17.643,14.357-32,32-32H160c16.021,0,31.936-5.291,44.8-14.912l51.2-38.421
			c9.173-6.869,20.544-10.667,32-10.667h170.667c17.643,0,32,14.357,32,32V416z"/>
	</g>
</g>
<g>
	<g>
		<path d="M252.864,109.781l-30.165-30.165C212.629,69.547,199.232,64,184.981,64H74.667c-29.397,0-53.333,23.915-53.333,53.333v64
			C21.333,187.221,26.112,192,32,192s10.667-4.779,10.667-10.667v-64c0-17.643,14.357-32,32-32h110.315
			c8.555,0,16.597,3.328,22.635,9.365l30.165,30.165c4.16,4.16,10.923,4.16,15.083,0
			C257.024,120.704,257.024,113.941,252.864,109.781z"/>
	</g>
</g>
<g>
</g>
<g>
</g>
<g>
</g>
<g>
</g>
<g>
</g>
<g>
</g>
<g>
</g>
<g>
</g>
<g>
</g>
<g>
</g>
<g>
</g>
<g>
</g>
<g>
</g>
<g>
</g>
<g>
</g>
</svg>
