<?xml version="1.0" encoding="iso-8859-1"?>
<!-- Generator: Adobe Illustrator 19.0.0, SVG Export Plug-In . SVG Version: 6.00 Build 0)  -->
<svg version="1.1" id="Capa_1" xmlns="http://www.w3.org/2000/svg" xmlns:xlink="http://www.w3.org/1999/xlink" x="0px" y="0px"
	 viewBox="0 0 512 512" style="enable-background:new 0 0 512 512;" xml:space="preserve">
<g>
	<g>
		<path d="M181.333,245.333H10.667C4.779,245.333,0,250.112,0,256s4.779,10.667,10.667,10.667h170.667
			c5.888,0,10.667-4.779,10.667-10.667S187.221,245.333,181.333,245.333z"/>
	</g>
</g>
<g>
	<g>
		<path d="M96,245.333c-5.888,0-10.667,4.779-10.667,10.667v170.667c0,5.888,4.779,10.667,10.667,10.667s10.667-4.779,10.667-10.667
			V256C106.667,250.112,101.888,245.333,96,245.333z"/>
	</g>
</g>
<g>
	<g>
		<path d="M501.333,74.667H160c-5.888,0-10.667,4.779-10.667,10.667S154.112,96,160,96h341.333C507.221,96,512,91.221,512,85.333
			S507.221,74.667,501.333,74.667z"/>
	</g>
</g>
<g>
	<g>
		<path d="M330.667,74.667c-5.888,0-10.667,4.779-10.667,10.667v341.333c0,5.888,4.779,10.667,10.667,10.667
			s10.667-4.779,10.667-10.667V85.333C341.333,79.445,336.555,74.667,330.667,74.667z"/>
	</g>
</g>
<g>
	<g>
		<path d="M373.333,416H288c-5.888,0-10.667,4.779-10.667,10.667c0,5.888,4.779,10.667,10.667,10.667h85.333
			c5.888,0,10.667-4.779,10.667-10.667C384,420.779,379.221,416,373.333,416z"/>
	</g>
</g>
<g>
	<g>
		<path d="M117.333,416H74.667C68.779,416,64,420.779,64,426.667c0,5.888,4.779,10.667,10.667,10.667h42.667
			c5.888,0,10.667-4.779,10.667-10.667C128,420.779,123.221,416,117.333,416z"/>
	</g>
</g>
<g>
</g>
<g>
</g>
<g>
</g>
<g>
</g>
<g>
</g>
<g>
</g>
<g>
</g>
<g>
</g>
<g>
</g>
<g>
</g>
<g>
</g>
<g>
</g>
<g>
</g>
<g>
</g>
<g>
</g>
</svg>
