<?xml version="1.0" encoding="iso-8859-1"?>
<!-- Generator: Adobe Illustrator 19.0.0, SVG Export Plug-In . SVG Version: 6.00 Build 0)  -->
<svg version="1.1" id="Capa_1" xmlns="http://www.w3.org/2000/svg" xmlns:xlink="http://www.w3.org/1999/xlink" x="0px" y="0px"
	 viewBox="0 0 512 512" style="enable-background:new 0 0 512 512;" xml:space="preserve">
<g>
	<g>
		<path d="M366.784,21.888l-4.608-14.421C360.789,3.029,356.651,0,352,0H161.579c-4.437,0-8.427,2.752-9.984,6.891
			c-10.304,27.307-34.261,94.763-34.261,131.776c0,76.459,62.208,138.667,138.667,138.667s138.667-62.208,138.667-138.667
			C394.667,108.523,378.56,58.453,366.784,21.888z M256,256c-64.704,0-117.333-52.629-117.333-117.333
			c0-25.899,15.211-76.309,30.315-117.333h175.232l2.261,7.104c10.709,33.216,26.859,83.435,26.859,110.229
			C373.333,203.371,320.704,256,256,256z"/>
	</g>
</g>
<g>
	<g>
		<path d="M256,256c-5.888,0-10.667,4.779-10.667,10.667v192c0,5.888,4.779,10.667,10.667,10.667
			c5.888,0,10.667-4.779,10.667-10.667v-192C266.667,260.779,261.888,256,256,256z"/>
	</g>
</g>
<g>
	<g>
		<path d="M256,448c-56.896,0-117.333,18.688-117.333,53.333c0,5.888,4.779,10.667,10.667,10.667h213.333
			c5.888,0,10.667-4.779,10.667-10.667C373.333,466.688,312.896,448,256,448z M166.955,490.667
			c13.397-10.773,45.312-21.333,89.045-21.333c43.733,0,75.669,10.56,89.045,21.333H166.955z"/>
	</g>
</g>
<g>
	<g>
		<path d="M373.333,149.333H138.667c-5.888,0-10.667,4.779-10.667,10.667s4.779,10.667,10.667,10.667h234.667
			c5.888,0,10.667-4.779,10.667-10.667S379.221,149.333,373.333,149.333z"/>
	</g>
</g>
<g>
</g>
<g>
</g>
<g>
</g>
<g>
</g>
<g>
</g>
<g>
</g>
<g>
</g>
<g>
</g>
<g>
</g>
<g>
</g>
<g>
</g>
<g>
</g>
<g>
</g>
<g>
</g>
<g>
</g>
</svg>
