<?xml version="1.0" encoding="iso-8859-1"?>
<!-- Generator: Adobe Illustrator 19.0.0, SVG Export Plug-In . SVG Version: 6.00 Build 0)  -->
<svg version="1.1" id="Capa_1" xmlns="http://www.w3.org/2000/svg" xmlns:xlink="http://www.w3.org/1999/xlink" x="0px" y="0px"
	 viewBox="0 0 512.014 512.014" style="enable-background:new 0 0 512.014 512.014;" xml:space="preserve">
<g>
	<g>
		<path d="M124.672,152.581c-18.304-17.301-91.392-22.912-113.387-24.213c-2.837-0.171-5.781,0.875-7.936,2.88
			C1.216,133.253,0,136.069,0,139.013v192c0,5.888,4.779,10.667,10.667,10.667h64c4.608,0,8.704-2.965,10.155-7.381
			c1.557-4.757,38.293-117.568,43.136-173.035C128.256,158.021,127.019,154.821,124.672,152.581z M66.88,320.347H21.333V150.448
			c34.261,2.709,71.275,8.597,84.736,15.125C100.395,212.293,74.816,295.28,66.88,320.347z"/>
	</g>
</g>
<g>
	<g>
		<path d="M510.891,283.589c-14.784-29.611-47.616-44.693-79.723-36.672l-81.728,20.416c-5.696,1.429-9.173,7.232-7.765,12.928
			s7.083,9.109,12.928,7.765l81.728-20.416c18.667-4.715,37.632,1.877,49.387,16.128l-105.749,48.064
			c-89.664,36.736-92.821,35.627-131.243,21.077l-160-53.333c-5.568-1.813-11.605,1.152-13.504,6.741
			c-1.856,5.589,1.152,11.627,6.741,13.504l159.595,53.184c17.941,6.763,30.315,10.688,44.224,10.688
			c21.632,0,46.976-9.451,102.635-32.256l117.333-53.333c2.624-1.195,4.672-3.413,5.653-6.144
			C512.363,289.2,512.192,286.171,510.891,283.589z"/>
	</g>
</g>
<g>
	<g>
		<path d="M311.659,213.915l-192-42.667c-5.803-1.216-11.477,2.347-12.736,8.107s2.347,11.435,8.107,12.736l191.744,42.603
			c23.616,5.888,33.109,15.211,34.432,34.688l-20.48,5.12c-7.637,1.899-15.68,2.069-23.403,0.555l-92.565-18.517
			c-5.504-1.195-11.371,2.603-12.544,8.384c-1.173,5.76,2.581,11.392,8.363,12.544l92.565,18.517c4.8,0.96,9.707,1.429,14.613,1.429
			c6.101,0,12.224-0.747,18.112-2.219l28.715-7.189c4.757-1.173,8.085-5.461,8.085-10.347v-3.349
			C362.667,241.349,347.029,222.747,311.659,213.915z"/>
	</g>
</g>
<g>
</g>
<g>
</g>
<g>
</g>
<g>
</g>
<g>
</g>
<g>
</g>
<g>
</g>
<g>
</g>
<g>
</g>
<g>
</g>
<g>
</g>
<g>
</g>
<g>
</g>
<g>
</g>
<g>
</g>
</svg>
