<?xml version="1.0" encoding="iso-8859-1"?>
<!-- Generator: Adobe Illustrator 19.0.0, SVG Export Plug-In . SVG Version: 6.00 Build 0)  -->
<svg version="1.1" id="Capa_1" xmlns="http://www.w3.org/2000/svg" xmlns:xlink="http://www.w3.org/1999/xlink" x="0px" y="0px"
	 viewBox="0 0 512 512" style="enable-background:new 0 0 512 512;" xml:space="preserve">
<g>
	<g>
		<path d="M511.808,136.683C508.011,60.672,444.949,0,368,0c-43.925,0-84.779,19.797-112,53.632C228.757,19.797,187.904,0,144,0
			C67.051,0,4.011,60.672,0.192,136.683C0.064,137.323,0,137.984,0,138.667V144c0,0.683,0.064,1.344,0.192,1.963
			c6.165,126.187,168.363,315.52,250.325,364.523c1.685,1.024,3.584,1.515,5.483,1.515s3.797-0.491,5.483-1.515
			c81.941-49.003,244.16-238.336,250.325-364.523c0.128-0.619,0.192-1.28,0.192-1.963v-5.333
			C512,137.984,511.936,137.344,511.808,136.683z M256,488.768C174.059,435.755,23.723,253.931,21.355,141.333
			c1.408-66.411,55.893-120,122.645-120c41.749,0,80.277,21.035,103.04,56.277c3.925,6.101,13.995,6.08,17.92,0
			C287.701,42.368,326.229,21.333,368,21.333c66.752,0,121.237,53.589,122.645,120C488.277,253.931,337.941,435.755,256,488.768z"/>
	</g>
</g>
<g>
</g>
<g>
</g>
<g>
</g>
<g>
</g>
<g>
</g>
<g>
</g>
<g>
</g>
<g>
</g>
<g>
</g>
<g>
</g>
<g>
</g>
<g>
</g>
<g>
</g>
<g>
</g>
<g>
</g>
</svg>
