<?xml version="1.0" encoding="iso-8859-1"?>
<!-- Generator: Adobe Illustrator 19.0.0, SVG Export Plug-In . SVG Version: 6.00 Build 0)  -->
<svg version="1.1" id="Capa_1" xmlns="http://www.w3.org/2000/svg" xmlns:xlink="http://www.w3.org/1999/xlink" x="0px" y="0px"
	 viewBox="0 0 512 512" style="enable-background:new 0 0 512 512;" xml:space="preserve">
<g>
	<g>
		<path d="M256,0C114.837,0,0,114.837,0,256s114.837,256,256,256s256-114.837,256-256S397.163,0,256,0z M256,490.667
			c-129.387,0-234.667-105.28-234.667-234.667S126.613,21.333,256,21.333S490.667,126.613,490.667,256S385.387,490.667,256,490.667z
			"/>
	</g>
</g>
<g>
	<g>
		<path d="M330.667,362.667H320v-96c0-17.643-14.357-32-32-32h-85.333c-17.643,0-32,14.357-32,32c0,17.643,14.357,32,32,32h10.667
			v64h-10.667c-17.643,0-32,14.357-32,32s14.357,32,32,32h128c17.643,0,32-14.357,32-32S348.309,362.667,330.667,362.667z
			 M330.667,405.333h-128c-5.888,0-10.667-4.8-10.667-10.667S196.779,384,202.667,384H224c5.888,0,10.667-4.779,10.667-10.667V288
			c0-5.888-4.779-10.667-10.667-10.667h-21.333c-5.888,0-10.667-4.8-10.667-10.667C192,260.8,196.779,256,202.667,256H288
			c5.888,0,10.667,4.8,10.667,10.667v106.667c0,5.888,4.779,10.667,10.667,10.667h21.333c5.888,0,10.667,4.8,10.667,10.667
			S336.555,405.333,330.667,405.333z"/>
	</g>
</g>
<g>
	<g>
		<path d="M256,85.333c-35.285,0-64,28.715-64,64s28.715,64,64,64s64-28.715,64-64S291.285,85.333,256,85.333z M256,192
			c-23.531,0-42.667-19.136-42.667-42.667c0-23.531,19.136-42.667,42.667-42.667s42.667,19.136,42.667,42.667
			C298.667,172.864,279.531,192,256,192z"/>
	</g>
</g>
<g>
</g>
<g>
</g>
<g>
</g>
<g>
</g>
<g>
</g>
<g>
</g>
<g>
</g>
<g>
</g>
<g>
</g>
<g>
</g>
<g>
</g>
<g>
</g>
<g>
</g>
<g>
</g>
<g>
</g>
</svg>
