<?xml version="1.0" encoding="iso-8859-1"?>
<!-- Generator: Adobe Illustrator 19.0.0, SVG Export Plug-In . SVG Version: 6.00 Build 0)  -->
<svg version="1.1" id="Capa_1" xmlns="http://www.w3.org/2000/svg" xmlns:xlink="http://www.w3.org/1999/xlink" x="0px" y="0px"
	 viewBox="0 0 512 512" style="enable-background:new 0 0 512 512;" xml:space="preserve">
<g>
	<g>
		<path d="M256,0c-76.459,0-138.667,62.208-138.667,138.667c0,47.147,24.384,91.328,64,116.736v11.264
			c0,5.888,4.779,10.667,10.667,10.667h10.667v27.584l-18.219,18.197c-4.16,4.16-4.16,10.923,0,15.083l18.219,18.219v12.501
			l-18.219,18.197c-4.16,4.16-4.16,10.923,0,15.083l18.219,18.219v38.251c0,2.837,1.131,5.547,3.115,7.552l42.667,42.667
			c2.091,2.069,4.821,3.115,7.552,3.115c2.731,0,5.461-1.045,7.552-3.115l42.667-42.667c1.984-2.005,3.115-4.715,3.115-7.552
			V277.333H320c5.888,0,10.667-4.779,10.667-10.667v-11.264c39.616-25.408,64-69.589,64-116.736C394.667,62.208,332.459,0,256,0z
			 M314.645,240.171c-3.285,1.92-5.312,5.44-5.312,9.237V256h-10.667c-5.888,0-10.667,4.779-10.667,10.667v187.584l-32,32l-32-32
			V416c0-2.837-1.131-5.547-3.136-7.552l-13.781-13.781l13.803-13.781c1.984-2.005,3.115-4.715,3.115-7.552V352
			c0-2.837-1.131-5.547-3.136-7.552l-13.781-13.781l13.803-13.781c1.984-2.005,3.115-4.715,3.115-7.552v-42.667
			c0-5.888-4.779-10.667-10.667-10.667h-10.667v-6.592c0-3.797-2.027-7.317-5.312-9.237
			c-36.203-20.971-58.688-59.861-58.688-101.504c0-64.704,52.651-117.333,117.333-117.333c64.683,0,117.333,52.629,117.333,117.333
			C373.333,180.309,350.848,219.2,314.645,240.171z"/>
	</g>
</g>
<g>
	<g>
		<path d="M256,42.667c-29.419,0-53.333,23.936-53.333,53.333s23.915,53.333,53.333,53.333c29.419,0,53.333-23.936,53.333-53.333
			S285.419,42.667,256,42.667z M256,128c-17.643,0-32-14.357-32-32s14.357-32,32-32c17.643,0,32,14.357,32,32
			C288,113.643,273.643,128,256,128z"/>
	</g>
</g>
<g>
	<g>
		<path d="M256,277.333c-5.888,0-10.667,4.779-10.667,10.667v149.333c0,5.888,4.779,10.667,10.667,10.667
			c5.888,0,10.667-4.779,10.667-10.667V288C266.667,282.112,261.888,277.333,256,277.333z"/>
	</g>
</g>
<g>
</g>
<g>
</g>
<g>
</g>
<g>
</g>
<g>
</g>
<g>
</g>
<g>
</g>
<g>
</g>
<g>
</g>
<g>
</g>
<g>
</g>
<g>
</g>
<g>
</g>
<g>
</g>
<g>
</g>
</svg>
