<?xml version="1.0" encoding="iso-8859-1"?>
<!-- Generator: Adobe Illustrator 19.0.0, SVG Export Plug-In . SVG Version: 6.00 Build 0)  -->
<svg version="1.1" id="Capa_1" xmlns="http://www.w3.org/2000/svg" xmlns:xlink="http://www.w3.org/1999/xlink" x="0px" y="0px"
	 viewBox="0 0 512 512" style="enable-background:new 0 0 512 512;" xml:space="preserve">
<g>
	<g>
		<path d="M458.667,170.68H53.333C23.915,170.68,0,194.595,0,224.014v213.333c0,29.419,23.915,53.333,53.333,53.333h405.333
			c29.419,0,53.333-23.915,53.333-53.333V224.014C512,194.595,488.085,170.68,458.667,170.68z M490.667,437.347
			c0,17.643-14.357,32-32,32H53.333c-17.643,0-32-14.357-32-32V224.014c0-17.643,14.357-32,32-32h405.333c17.643,0,32,14.357,32,32
			V437.347z"/>
	</g>
</g>
<g>
	<g>
		<path d="M258.304,51.982c-16.768-7.232-24.085-11.243-23.659-19.435c0.299-5.888-4.224-10.88-10.091-11.2
			c-5.888-0.427-10.901,4.224-11.2,10.091c-1.259,23.872,19.691,32.896,36.523,40.149c18.667,8.043,27.456,13.099,27.456,24.427
			c0,8.619-9.408,12.587-29.419,18.987C224.32,122.51,192,132.835,192,170.68c0,5.888,4.779,10.667,10.667,10.667
			s10.667-4.779,10.667-10.667c0-20.779,15.531-27.221,41.067-35.371c19.733-6.293,44.267-14.123,44.267-39.296
			C298.667,69.39,275.349,59.342,258.304,51.982z"/>
	</g>
</g>
<g>
	<g>
		<path d="M117.333,256.014h-32v-32c0-5.888-4.779-10.667-10.667-10.667S64,218.126,64,224.014v42.667
			c0,5.888,4.779,10.667,10.667,10.667h42.667c5.888,0,10.667-4.779,10.667-10.667S123.221,256.014,117.333,256.014z"/>
	</g>
</g>
<g>
	<g>
		<path d="M224,256.014h-32v-32c0-5.888-4.779-10.667-10.667-10.667s-10.667,4.779-10.667,10.667v42.667
			c0,5.888,4.779,10.667,10.667,10.667H224c5.888,0,10.667-4.779,10.667-10.667S229.888,256.014,224,256.014z"/>
	</g>
</g>
<g>
	<g>
		<path d="M330.667,256.014h-32v-32c0-5.888-4.779-10.667-10.667-10.667s-10.667,4.779-10.667,10.667v42.667
			c0,5.888,4.779,10.667,10.667,10.667h42.667c5.888,0,10.667-4.779,10.667-10.667S336.555,256.014,330.667,256.014z"/>
	</g>
</g>
<g>
	<g>
		<path d="M117.333,341.347h-32v-32c0-5.888-4.779-10.667-10.667-10.667S64,303.459,64,309.347v42.667
			c0,5.888,4.779,10.667,10.667,10.667h42.667c5.888,0,10.667-4.779,10.667-10.667C128,346.126,123.221,341.347,117.333,341.347z"/>
	</g>
</g>
<g>
	<g>
		<path d="M224,341.347h-32v-32c0-5.888-4.779-10.667-10.667-10.667s-10.667,4.779-10.667,10.667v42.667
			c0,5.888,4.779,10.667,10.667,10.667H224c5.888,0,10.667-4.779,10.667-10.667C234.667,346.126,229.888,341.347,224,341.347z"/>
	</g>
</g>
<g>
	<g>
		<path d="M330.667,341.347h-32v-32c0-5.888-4.779-10.667-10.667-10.667s-10.667,4.779-10.667,10.667v42.667
			c0,5.888,4.779,10.667,10.667,10.667h42.667c5.888,0,10.667-4.779,10.667-10.667C341.333,346.126,336.555,341.347,330.667,341.347
			z"/>
	</g>
</g>
<g>
	<g>
		<path d="M437.333,256.014h-32v-32c0-5.888-4.779-10.667-10.667-10.667S384,218.126,384,224.014v42.667
			c0,5.888,4.779,10.667,10.667,10.667h42.667c5.888,0,10.667-4.779,10.667-10.667S443.221,256.014,437.333,256.014z"/>
	</g>
</g>
<g>
	<g>
		<path d="M437.333,341.347h-32v-32c0-5.888-4.779-10.667-10.667-10.667S384,303.459,384,309.347v42.667
			c0,5.888,4.779,10.667,10.667,10.667h42.667c5.888,0,10.667-4.779,10.667-10.667C448,346.126,443.221,341.347,437.333,341.347z"/>
	</g>
</g>
<g>
	<g>
		<path d="M138.667,426.68h-32v-32c0-5.888-4.779-10.667-10.667-10.667s-10.667,4.779-10.667,10.667v42.667
			c0,5.888,4.779,10.667,10.667,10.667h42.667c5.888,0,10.667-4.779,10.667-10.667C149.333,431.459,144.555,426.68,138.667,426.68z"
			/>
	</g>
</g>
<g>
	<g>
		<path d="M309.333,426.68h-96v-32c0-5.888-4.779-10.667-10.667-10.667S192,388.792,192,394.68v42.667
			c0,5.888,4.779,10.667,10.667,10.667h106.667c5.888,0,10.667-4.779,10.667-10.667C320,431.459,315.221,426.68,309.333,426.68z"/>
	</g>
</g>
<g>
	<g>
		<path d="M416,426.68h-32v-32c0-5.888-4.779-10.667-10.667-10.667c-5.888,0-10.667,4.779-10.667,10.667v42.667
			c0,5.888,4.779,10.667,10.667,10.667H416c5.888,0,10.667-4.779,10.667-10.667C426.667,431.459,421.888,426.68,416,426.68z"/>
	</g>
</g>
<g>
</g>
<g>
</g>
<g>
</g>
<g>
</g>
<g>
</g>
<g>
</g>
<g>
</g>
<g>
</g>
<g>
</g>
<g>
</g>
<g>
</g>
<g>
</g>
<g>
</g>
<g>
</g>
<g>
</g>
</svg>
