<?xml version="1.0" encoding="iso-8859-1"?>
<!-- Generator: Adobe Illustrator 19.0.0, SVG Export Plug-In . SVG Version: 6.00 Build 0)  -->
<svg version="1.1" id="Capa_1" xmlns="http://www.w3.org/2000/svg" xmlns:xlink="http://www.w3.org/1999/xlink" x="0px" y="0px"
	 viewBox="0 0 512.021 512.021" style="enable-background:new 0 0 512.021 512.021;" xml:space="preserve">
<g>
	<g>
		<path d="M501.333,490.677h-480v-480c0-5.888-4.779-10.667-10.667-10.667S0,4.789,0,10.677v490.667
			c0,5.888,4.779,10.667,10.667,10.667h490.667c5.888,0,10.667-4.779,10.667-10.667C512,495.456,507.221,490.677,501.333,490.677z"
			/>
	</g>
</g>
<g>
	<g>
		<path d="M506.731,1.461c-5.099-2.944-11.627-1.259-14.592,3.84L350.912,247.413l-54.357-72.469
			c-2.133-2.859-5.909-4.331-9.088-4.267c-3.563,0.192-6.784,2.133-8.619,5.205L159.019,375.605l-22.485-29.973
			c-2.112-2.816-4.885-4.437-9.003-4.267c-3.499,0.128-6.72,2.005-8.576,4.992l-53.333,85.333c-3.136,4.992-1.6,11.584,3.392,14.699
			c1.749,1.109,3.712,1.621,5.653,1.621c3.541,0,7.019-1.771,9.045-5.013l45.077-72.149l22.677,30.229
			c2.112,2.859,5.973,4.48,9.067,4.267c3.563-0.192,6.784-2.133,8.64-5.184l119.829-199.723l54.485,72.64
			c2.155,2.88,5.717,4.373,9.173,4.245c3.563-0.213,6.784-2.176,8.576-5.269l149.333-256
			C513.536,10.955,511.808,4.427,506.731,1.461z"/>
	</g>
</g>
<g>
</g>
<g>
</g>
<g>
</g>
<g>
</g>
<g>
</g>
<g>
</g>
<g>
</g>
<g>
</g>
<g>
</g>
<g>
</g>
<g>
</g>
<g>
</g>
<g>
</g>
<g>
</g>
<g>
</g>
</svg>
