<?xml version="1.0" encoding="iso-8859-1"?>
<!-- Generator: Adobe Illustrator 19.0.0, SVG Export Plug-In . SVG Version: 6.00 Build 0)  -->
<svg version="1.1" id="Capa_1" xmlns="http://www.w3.org/2000/svg" xmlns:xlink="http://www.w3.org/1999/xlink" x="0px" y="0px"
	 viewBox="0 0 511.936 511.936" style="enable-background:new 0 0 511.936 511.936;" xml:space="preserve">
<g>
	<g>
		<path d="M483.829,35.435l-7.317-7.317C458.357,9.984,434.272,0,408.608,0c-25.664,0-49.749,9.984-67.883,28.117l-56.448,56.448
			c-37.419,37.44-37.419,98.347,0,135.765l7.317,7.317c18.155,18.133,42.261,28.117,67.904,28.117
			c25.643,0,49.749-9.984,67.883-28.117l56.448-56.448C521.248,133.76,521.248,72.853,483.829,35.435z M468.725,156.096
			l-56.448,56.448c-28.203,28.224-77.397,28.203-105.6,0l-7.317-7.317c-29.099-29.12-29.099-76.48,0-105.6l56.448-56.448
			c14.123-14.101,32.853-21.867,52.8-21.867c19.968,0,38.72,7.765,52.8,21.867l7.317,7.317
			C497.824,79.616,497.824,126.976,468.725,156.096z"/>
	</g>
</g>
<g>
	<g>
		<path d="M227.659,291.605l-7.317-7.317c-18.155-18.133-42.24-28.117-67.904-28.117c-25.664,0-49.749,9.984-67.883,28.117
			l-56.448,56.448c-37.419,37.44-37.419,98.347,0,135.765l7.317,7.317c18.155,18.133,42.261,28.117,67.904,28.117
			c25.643,0,49.749-9.984,67.883-28.117l56.448-56.448C265.077,389.931,265.077,329.024,227.659,291.605z M212.555,412.267
			l-56.448,56.448c-28.203,28.224-77.397,28.203-105.6,0l-7.317-7.317c-29.099-29.12-29.099-76.48,0-105.6l56.448-56.448
			c14.123-14.101,32.853-21.867,52.8-21.867c19.968,0,38.72,7.765,52.8,21.867l7.317,7.317
			C241.653,335.787,241.653,383.147,212.555,412.267z"/>
	</g>
</g>
<g>
	<g>
		<path d="M357.92,152.149c-4.139-4.16-10.965-4.117-15.083,0.064l-190.229,192c-4.139,4.181-4.096,10.944,0.085,15.083
			c2.069,2.069,4.8,3.093,7.509,3.093c2.752,0,5.504-1.067,7.573-3.157l190.229-192C362.144,163.051,362.101,156.288,357.92,152.149
			z"/>
	</g>
</g>
<g>
</g>
<g>
</g>
<g>
</g>
<g>
</g>
<g>
</g>
<g>
</g>
<g>
</g>
<g>
</g>
<g>
</g>
<g>
</g>
<g>
</g>
<g>
</g>
<g>
</g>
<g>
</g>
<g>
</g>
</svg>
