<?xml version="1.0" encoding="iso-8859-1"?>
<!-- Generator: Adobe Illustrator 19.0.0, SVG Export Plug-In . SVG Version: 6.00 Build 0)  -->
<svg version="1.1" id="Capa_1" xmlns="http://www.w3.org/2000/svg" xmlns:xlink="http://www.w3.org/1999/xlink" x="0px" y="0px"
	 viewBox="0 0 512 512" style="enable-background:new 0 0 512 512;" xml:space="preserve">
<g>
	<g>
		<path d="M256,213.333c-5.888,0-10.667,4.779-10.667,10.667v277.333c0,5.888,4.779,10.667,10.667,10.667
			s10.667-4.779,10.667-10.667V224C266.667,218.112,261.888,213.333,256,213.333z"/>
	</g>
</g>
<g>
	<g>
		<path d="M256,0c-64.683,0-117.333,52.629-117.333,117.333S191.317,234.667,256,234.667s117.333-52.629,117.333-117.333
			S320.683,0,256,0z M256,213.333c-52.928,0-96-43.072-96-96c0-52.928,43.072-96,96-96c52.928,0,96,43.072,96,96
			C352,170.261,308.928,213.333,256,213.333z"/>
	</g>
</g>
<g>
	<g>
		<path d="M256,42.667c-41.173,0-74.667,33.493-74.667,74.667c0,5.888,4.779,10.667,10.667,10.667s10.667-4.779,10.667-10.667
			C202.667,87.936,226.581,64,256,64c5.888,0,10.667-4.779,10.667-10.667S261.888,42.667,256,42.667z"/>
	</g>
</g>
<g>
	<g>
		<path d="M256,0c-64.683,0-117.333,52.629-117.333,117.333S191.317,234.667,256,234.667c5.888,0,10.667-4.779,10.667-10.667
			s-4.779-10.667-10.667-10.667c-52.928,0-96-43.072-96-96c0-52.928,43.072-96,96-96c52.928,0,96,43.072,96,96
			c0,5.888,4.779,10.667,10.667,10.667c5.888,0,10.667-4.779,10.667-10.667C373.333,52.629,320.683,0,256,0z"/>
	</g>
</g>
<g>
</g>
<g>
</g>
<g>
</g>
<g>
</g>
<g>
</g>
<g>
</g>
<g>
</g>
<g>
</g>
<g>
</g>
<g>
</g>
<g>
</g>
<g>
</g>
<g>
</g>
<g>
</g>
<g>
</g>
</svg>
