<?xml version="1.0" encoding="iso-8859-1"?>
<!-- Generator: Adobe Illustrator 19.0.0, SVG Export Plug-In . SVG Version: 6.00 Build 0)  -->
<svg version="1.1" id="Capa_1" xmlns="http://www.w3.org/2000/svg" xmlns:xlink="http://www.w3.org/1999/xlink" x="0px" y="0px"
	 viewBox="0 0 512 512" style="enable-background:new 0 0 512 512;" xml:space="preserve">
<g>
	<g>
		<path d="M480,0H373.333c-17.643,0-32,14.357-32,32v224c0,47.061-38.272,85.333-85.333,85.333S170.667,303.061,170.667,256V32
			c0-17.643-14.357-32-32-32H32C14.357,0,0,14.357,0,32v224c0,141.163,114.837,256,256,256s256-114.837,256-256V32
			C512,14.357,497.643,0,480,0z M490.667,256c0,129.387-105.28,234.667-234.667,234.667S21.333,385.387,21.333,256V32
			c0-5.888,4.779-10.667,10.667-10.667h106.667c5.888,0,10.667,4.779,10.667,10.667v224c0,58.816,47.851,106.667,106.667,106.667
			S362.667,314.816,362.667,256V32c0-5.888,4.779-10.667,10.667-10.667H480c5.888,0,10.667,4.779,10.667,10.667V256z"/>
	</g>
</g>
<g>
	<g>
		<path d="M160,128H10.667C4.779,128,0,132.779,0,138.667s4.779,10.667,10.667,10.667H160c5.888,0,10.667-4.779,10.667-10.667
			S165.888,128,160,128z"/>
	</g>
</g>
<g>
	<g>
		<path d="M501.333,128H352c-5.888,0-10.667,4.779-10.667,10.667s4.779,10.667,10.667,10.667h149.333
			c5.888,0,10.667-4.779,10.667-10.667S507.221,128,501.333,128z"/>
	</g>
</g>
<g>
</g>
<g>
</g>
<g>
</g>
<g>
</g>
<g>
</g>
<g>
</g>
<g>
</g>
<g>
</g>
<g>
</g>
<g>
</g>
<g>
</g>
<g>
</g>
<g>
</g>
<g>
</g>
<g>
</g>
</svg>
