<?xml version="1.0" encoding="iso-8859-1"?>
<!-- Generator: Adobe Illustrator 19.0.0, SVG Export Plug-In . SVG Version: 6.00 Build 0)  -->
<svg version="1.1" id="Capa_1" xmlns="http://www.w3.org/2000/svg" xmlns:xlink="http://www.w3.org/1999/xlink" x="0px" y="0px"
	 viewBox="0 0 512 512" style="enable-background:new 0 0 512 512;" xml:space="preserve">
<g>
	<g>
		<path d="M416,192H96c-52.928,0-96,43.072-96,96v128c0,17.643,14.357,32,32,32h448c17.643,0,32-14.357,32-32V288
			C512,235.072,468.928,192,416,192z M490.667,416c0,5.867-4.779,10.667-10.667,10.667H32c-5.888,0-10.667-4.8-10.667-10.667V288
			c0-41.173,33.493-74.667,74.667-74.667h320c41.173,0,74.667,33.493,74.667,74.667V416z"/>
	</g>
</g>
<g>
	<g>
		<path d="M96,192c-5.888,0-10.667,4.779-10.667,10.667S90.112,213.333,96,213.333c41.173,0,74.667,33.493,74.667,74.667v128
			c0,5.867-4.779,10.667-10.667,10.667s-10.667,4.779-10.667,10.667c0,5.888,4.779,10.667,10.667,10.667c17.643,0,32-14.357,32-32
			V288C192,235.072,148.928,192,96,192z"/>
	</g>
</g>
<g>
	<g>
		<path d="M373.333,64H266.667C260.779,64,256,68.779,256,74.667V288c0,5.888,4.779,10.667,10.667,10.667
			s10.667-4.779,10.667-10.667V149.333h96c5.888,0,10.667-4.779,10.667-10.667v-64C384,68.779,379.221,64,373.333,64z M362.667,128
			h-85.333V85.333h85.333V128z"/>
	</g>
</g>
<g>
</g>
<g>
</g>
<g>
</g>
<g>
</g>
<g>
</g>
<g>
</g>
<g>
</g>
<g>
</g>
<g>
</g>
<g>
</g>
<g>
</g>
<g>
</g>
<g>
</g>
<g>
</g>
<g>
</g>
</svg>
