<?xml version="1.0" encoding="iso-8859-1"?>
<!-- Generator: Adobe Illustrator 19.0.0, SVG Export Plug-In . SVG Version: 6.00 Build 0)  -->
<svg version="1.1" id="Capa_1" xmlns="http://www.w3.org/2000/svg" xmlns:xlink="http://www.w3.org/1999/xlink" x="0px" y="0px"
	 viewBox="0 0 512 512" style="enable-background:new 0 0 512 512;" xml:space="preserve">
<g>
	<g>
		<path d="M394.667,160H32c-17.643,0-32,14.357-32,32v213.333c0,17.643,14.357,32,32,32h362.667c17.643,0,32-14.357,32-32V192
			C426.667,174.357,412.309,160,394.667,160z M405.333,405.333c0,5.888-4.779,10.667-10.667,10.667H32
			c-5.888,0-10.667-4.779-10.667-10.667V192c0-5.888,4.779-10.667,10.667-10.667h362.667c5.888,0,10.667,4.779,10.667,10.667
			V405.333z"/>
	</g>
</g>
<g>
	<g>
		<path d="M480,74.667H117.333c-17.643,0-32,14.357-32,32v64c0,5.888,4.779,10.667,10.667,10.667s10.667-4.779,10.667-10.667v-64
			c0-5.888,4.779-10.667,10.667-10.667H480c5.888,0,10.667,4.779,10.667,10.667V320c0,5.888-4.779,10.667-10.667,10.667h-64
			c-5.888,0-10.667,4.779-10.667,10.667S410.112,352,416,352h64c17.643,0,32-14.357,32-32V106.667
			C512,89.024,497.643,74.667,480,74.667z"/>
	</g>
</g>
<g>
	<g>
		<path d="M418.88,171.115c-3.648-4.651-10.347-5.461-14.976-1.856l-172.821,134.72c-10.795,7.189-24.704,7.168-34.859,0.448
			L22.784,169.259c-4.672-3.605-11.371-2.816-14.976,1.856c-3.627,4.651-2.795,11.349,1.856,14.976l174.08,135.637
			c8.896,5.931,19.093,8.939,29.376,8.939c10.475,0,21.056-3.115,30.464-9.408l173.44-135.168
			C421.675,182.464,422.485,175.765,418.88,171.115z"/>
	</g>
</g>
<g>
	<g>
		<path d="M193.707,303.168c-3.221-4.928-9.856-6.315-14.763-3.072L10.368,410.731c-4.928,3.221-6.293,9.835-3.072,14.763
			c2.048,3.115,5.44,4.821,8.917,4.821c2.005,0,4.032-0.555,5.845-1.749l168.576-110.635
			C195.563,314.709,196.928,308.096,193.707,303.168z"/>
	</g>
</g>
<g>
	<g>
		<path d="M416.384,410.603L247.723,300.096c-4.928-3.2-11.52-1.813-14.763,3.093c-3.2,4.928-1.835,11.541,3.093,14.763
			l168.661,110.507c1.792,1.195,3.819,1.749,5.824,1.749c3.477,0,6.891-1.707,8.939-4.843
			C422.677,420.437,421.312,413.824,416.384,410.603z"/>
	</g>
</g>
<g>
</g>
<g>
</g>
<g>
</g>
<g>
</g>
<g>
</g>
<g>
</g>
<g>
</g>
<g>
</g>
<g>
</g>
<g>
</g>
<g>
</g>
<g>
</g>
<g>
</g>
<g>
</g>
<g>
</g>
</svg>
