<?xml version="1.0" encoding="iso-8859-1"?>
<!-- Generator: Adobe Illustrator 19.0.0, SVG Export Plug-In . SVG Version: 6.00 Build 0)  -->
<svg version="1.1" id="Capa_1" xmlns="http://www.w3.org/2000/svg" xmlns:xlink="http://www.w3.org/1999/xlink" x="0px" y="0px"
	 viewBox="0 0 512.005 512.005" style="enable-background:new 0 0 512.005 512.005;" xml:space="preserve">
<g>
	<g>
		<path d="M254.723,303.621c-4.16-4.16-10.923-4.139-15.083,0c-9.045,9.024-14.443,20.736-15.467,33.344
			c-11.221,12.117-55.339,59.733-131.349,141.781C77.571,494,50.285,493.914,35.288,478.917l-2.005-2.091
			c-7.701-7.701-11.947-17.92-11.947-28.885c0-10.731,4.352-21.248,11.563-28.437l143.915-129.835
			c12.608-0.981,24.363-6.379,33.408-15.445c4.16-4.181,4.16-10.944,0-15.104c-4.16-4.16-10.923-4.16-15.083,0
			c-6.059,6.037-14.08,9.365-22.592,9.365c-0.021,0-0.021,0-0.043,0c-2.645,0-5.184,0.981-7.147,2.752L18.2,404.037
			C6.637,415.578,0.003,431.578,0.003,448.005c0,16.576,6.464,32.171,18.027,43.733l1.984,2.069
			c11.563,11.563,27.563,18.197,43.989,18.197c16.576,0,32.171-6.464,44.181-18.475c0,0,132.096-142.592,134.229-144.853
			c1.856-1.984,2.923-4.629,2.923-7.339c0-8.555,3.328-16.576,9.387-22.613C258.883,314.544,258.883,307.802,254.723,303.621z"/>
	</g>
</g>
<g>
	<g>
		<path d="M508.867,24.474L487.533,3.141c-3.243-3.264-8.192-4.075-12.309-2.005l-85.333,42.667
			c-3.605,1.813-5.888,5.504-5.888,9.536v27.584L264.472,200.474c-4.16,4.16-4.16,10.923,0,15.083c4.16,4.16,10.923,4.16,15.083,0
			L402.221,92.89c1.984-2.005,3.115-4.715,3.115-7.552V59.93l72.555-36.267l10.453,10.453l-36.267,72.555h-25.408
			c-2.837,0-5.547,1.131-7.552,3.136L296.451,232.474c-4.16,4.16-4.16,10.923,0,15.083c2.091,2.069,4.821,3.115,7.552,3.115
			s5.461-1.045,7.531-3.115l119.552-119.552h27.584c4.032,0,7.723-2.283,9.536-5.888l42.667-85.333
			C512.92,32.688,512.109,27.717,508.867,24.474z"/>
	</g>
</g>
<g>
	<g>
		<path d="M495.555,429.68L216.6,158.32c-7.424-7.211-10.859-17.728-9.195-28.181c6.165-38.891-4.395-73.237-30.571-99.392
			c-20.416-20.373-46.101-31.189-72.427-30.72c-23.36,0.512-45.653,8.811-64.427,23.957c-2.731,2.176-4.181,5.547-3.968,9.024
			c0.256,3.477,2.176,6.613,5.184,8.405l65.173,39.125c-1.92,19.584-13.504,36.8-31.253,45.973L16.771,91.504
			c-3.264-1.963-7.744-1.813-11.029,0c-3.243,1.771-5.333,5.077-5.547,8.747c-1.749,29.717,8.491,57.984,28.843,79.595
			c20.096,21.291,48.384,33.493,77.632,33.493c4.757,0,11.691-1.28,21.803-3.989c11.2-3.029,23.125,0.299,31.189,8.576
			l270.144,277.696c10.56,10.581,24.597,16.384,39.531,16.384c23.531,0,42.667-19.136,42.667-42.688
			C512.003,454.618,506.051,440.197,495.555,429.68z M469.336,490.672c-9.237,0-17.92-3.584-24.341-10.027L174.957,203.056
			c-10.176-10.453-24.021-16.128-38.208-16.128c-4.608,0-9.237,0.597-13.803,1.813c-10.944,2.944-15.019,3.264-16.277,3.264
			c-23.744,0-45.781-9.515-62.101-26.816c-12.053-12.8-19.691-28.523-22.272-45.504l46.891,28.139
			c3.093,1.856,6.976,2.005,10.261,0.384l4.501-2.24c27.179-13.589,44.053-40.917,44.053-71.296c0-3.755-1.963-7.211-5.184-9.152
			l-56.32-33.771C78.403,25.2,91.416,21.658,104.856,21.36c21.397-0.427,40.64,8.277,56.875,24.512
			c21.44,21.397,29.675,48.64,24.555,80.96c-2.731,17.28,3.029,34.773,15.403,46.805L480.536,444.89
			c6.528,6.528,10.133,15.211,10.133,24.448C490.669,481.093,481.112,490.672,469.336,490.672z"/>
	</g>
</g>
<g>
</g>
<g>
</g>
<g>
</g>
<g>
</g>
<g>
</g>
<g>
</g>
<g>
</g>
<g>
</g>
<g>
</g>
<g>
</g>
<g>
</g>
<g>
</g>
<g>
</g>
<g>
</g>
<g>
</g>
</svg>
