<?xml version="1.0" encoding="iso-8859-1"?>
<!-- Generator: Adobe Illustrator 19.0.0, SVG Export Plug-In . SVG Version: 6.00 Build 0)  -->
<svg version="1.1" id="Capa_1" xmlns="http://www.w3.org/2000/svg" xmlns:xlink="http://www.w3.org/1999/xlink" x="0px" y="0px"
	 viewBox="0 0 512.009 512.009" style="enable-background:new 0 0 512.009 512.009;" xml:space="preserve">
<g>
	<g>
		<path d="M192.004,128.009c-105.877,0-192,86.144-192,192s86.123,192,192,192s192-86.144,192-192S297.882,128.009,192.004,128.009z
			 M192.004,490.676c-94.101,0-170.667-76.565-170.667-170.667s76.565-170.667,170.667-170.667s170.667,76.565,170.667,170.667
			S286.106,490.676,192.004,490.676z"/>
	</g>
</g>
<g>
	<g>
		<path d="M509.423,3.7h-0.021c-0.469-0.555-1.003-1.045-1.579-1.493c-1.621-1.237-3.584-2.027-5.739-2.176
			c-0.277-0.021-0.299-0.043-0.832-0.021H352.004c-5.888,0-10.667,4.779-10.667,10.667s4.779,10.667,10.667,10.667h123.584
			L312.452,184.478c-4.16,4.16-4.16,10.923,0,15.083c2.091,2.069,4.821,3.115,7.552,3.115s5.461-1.045,7.552-3.136L490.671,36.425
			v123.584c0,5.888,4.779,10.667,10.667,10.667c5.888,0,10.667-4.779,10.667-10.709V10.633v-0.021c0-0.021,0-0.021,0-0.021
			c0-0.021,0-0.021,0-0.043C511.962,7.945,511.002,5.556,509.423,3.7z"/>
	</g>
</g>
<g>
</g>
<g>
</g>
<g>
</g>
<g>
</g>
<g>
</g>
<g>
</g>
<g>
</g>
<g>
</g>
<g>
</g>
<g>
</g>
<g>
</g>
<g>
</g>
<g>
</g>
<g>
</g>
<g>
</g>
</svg>
