<?xml version="1.0" encoding="iso-8859-1"?>
<!-- Generator: Adobe Illustrator 19.0.0, SVG Export Plug-In . SVG Version: 6.00 Build 0)  -->
<svg version="1.1" id="Capa_1" xmlns="http://www.w3.org/2000/svg" xmlns:xlink="http://www.w3.org/1999/xlink" x="0px" y="0px"
	 viewBox="0 0 512 512" style="enable-background:new 0 0 512 512;" xml:space="preserve">
<g>
	<g>
		<path d="M503.915,85.636L333.248,42.969c-1.813-0.427-3.712-0.384-5.504,0.107L181.141,84.953L13.248,42.969
			c-3.179-0.768-6.571-0.085-9.152,1.941C1.515,46.937,0,50.052,0,53.337v362.667c0,4.885,3.328,9.173,8.085,10.347l170.667,42.667
			c1.792,0.448,3.712,0.405,5.504-0.107l146.603-41.877l167.893,41.984c0.853,0.213,1.707,0.32,2.581,0.32
			c2.347,0,4.672-0.768,6.571-2.24c2.581-2.027,4.096-5.141,4.096-8.427V96.004C512,91.119,508.672,86.831,503.915,85.636z
			 M490.667,444.996l-157.419-39.36c-1.813-0.427-3.712-0.405-5.504,0.107L181.141,447.62L21.333,407.663V67.012l157.419,39.339
			c1.792,0.448,3.712,0.405,5.504-0.107l146.603-41.856l159.808,39.957V444.996z"/>
	</g>
</g>
<g>
	<g>
		<path d="M181.333,85.337c-5.888,0-10.667,4.779-10.667,10.667v362.667c0,5.888,4.779,10.667,10.667,10.667
			S192,464.559,192,458.671V96.004C192,90.116,187.221,85.337,181.333,85.337z"/>
	</g>
</g>
<g>
	<g>
		<path d="M330.667,42.671c-5.888,0-10.667,4.779-10.667,10.667v362.667c0,5.888,4.779,10.667,10.667,10.667
			s10.667-4.779,10.667-10.667V53.337C341.333,47.449,336.555,42.671,330.667,42.671z"/>
	</g>
</g>
<g>
</g>
<g>
</g>
<g>
</g>
<g>
</g>
<g>
</g>
<g>
</g>
<g>
</g>
<g>
</g>
<g>
</g>
<g>
</g>
<g>
</g>
<g>
</g>
<g>
</g>
<g>
</g>
<g>
</g>
</svg>
