<?xml version="1.0" encoding="iso-8859-1"?>
<!-- Generator: Adobe Illustrator 19.0.0, SVG Export Plug-In . SVG Version: 6.00 Build 0)  -->
<svg version="1.1" id="Capa_1" xmlns="http://www.w3.org/2000/svg" xmlns:xlink="http://www.w3.org/1999/xlink" x="0px" y="0px"
	 viewBox="0 0 512.066 512.066" style="enable-background:new 0 0 512.066 512.066;" xml:space="preserve">
<g>
	<g>
		<path d="M426.156,313.09c-1.301-3.883-4.715-6.699-8.747-7.211l-103.595-13.419l-48.277-94.635
			c-3.627-7.125-15.381-7.125-19.008,0l-48.277,94.635L94.657,305.879c-4.032,0.533-7.424,3.328-8.747,7.211
			c-1.301,3.883-0.256,8.149,2.667,11.008l75.84,74.197l-20.651,100.949c-0.811,3.989,0.725,8.085,3.947,10.581
			c3.2,2.496,7.573,2.944,11.2,1.152l97.131-47.488l97.109,47.467c1.515,0.725,3.093,1.088,4.693,1.088
			c2.325,0,4.629-0.747,6.507-2.24c3.243-2.496,4.757-6.571,3.947-10.581l-20.651-100.949l75.84-74.176
			C426.412,321.239,427.457,316.973,426.156,313.09z M328.598,387.095c-2.581,2.539-3.712,6.208-3.008,9.771l17.472,85.419
			l-82.325-40.256c-1.493-0.725-3.093-1.088-4.693-1.088s-3.2,0.363-4.672,1.088l-82.325,40.256l17.472-85.419
			c0.704-3.563-0.427-7.232-3.008-9.771l-64.299-62.848l87.36-11.307c3.477-0.469,6.528-2.624,8.128-5.739l41.344-81.003
			l41.344,81.003c1.6,3.136,4.651,5.291,8.128,5.739l87.36,11.307L328.598,387.095z"/>
	</g>
</g>
<g>
	<g>
		<path d="M413.953,12.333c-6.123-7.808-15.317-12.288-25.237-12.288H123.372c-9.92,0-19.115,4.48-25.216,12.288
			c-6.101,7.808-8.235,17.835-5.845,27.456l67.435,269.696c1.408,5.696,7.104,9.088,12.928,7.765
			c5.696-1.429,9.173-7.211,7.765-12.928L113.025,34.626c-0.811-3.2-0.085-6.549,1.941-9.152s5.099-4.096,8.405-4.096h265.344
			c3.307,0,6.357,1.493,8.405,4.096s2.752,5.952,1.941,9.152l-67.413,269.696c-1.429,5.696,2.048,11.499,7.765,12.928
			c0.875,0.213,1.728,0.32,2.581,0.32c4.8,0,9.152-3.243,10.368-8.085l67.413-269.696C422.188,30.167,420.076,20.141,413.953,12.333
			z"/>
	</g>
</g>
<g>
	<g>
		<path d="M234.646,264.109l-32-254.72c-0.768-5.867-6.229-10.112-11.925-9.259c-5.845,0.725-9.984,6.059-9.259,11.904l32,254.72
			c0.683,5.397,5.269,9.344,10.56,9.344c0.469,0,0.896-0.021,1.365-0.064C231.233,275.287,235.372,269.954,234.646,264.109z"/>
	</g>
</g>
<g>
	<g>
		<path d="M321.388,0.109c-5.803-0.853-11.2,3.413-11.925,9.259L277.59,264.343c-0.725,5.867,3.435,11.2,9.259,11.925
			c0.448,0.064,0.896,0.085,1.344,0.085c5.291,0,9.899-3.925,10.581-9.344l31.872-254.976
			C331.372,6.167,327.212,0.834,321.388,0.109z"/>
	</g>
</g>
<g>
</g>
<g>
</g>
<g>
</g>
<g>
</g>
<g>
</g>
<g>
</g>
<g>
</g>
<g>
</g>
<g>
</g>
<g>
</g>
<g>
</g>
<g>
</g>
<g>
</g>
<g>
</g>
<g>
</g>
</svg>
