<?xml version="1.0" encoding="iso-8859-1"?>
<!-- Generator: Adobe Illustrator 19.0.0, SVG Export Plug-In . SVG Version: 6.00 Build 0)  -->
<svg version="1.1" id="Capa_1" xmlns="http://www.w3.org/2000/svg" xmlns:xlink="http://www.w3.org/1999/xlink" x="0px" y="0px"
	 viewBox="0 0 512.013 512.013" style="enable-background:new 0 0 512.013 512.013;" xml:space="preserve">
<g>
	<g>
		<path d="M505.052,0.675c-4.181-1.579-8.896-0.32-11.819,3.072c-79.317,92.544-194.709,145.6-316.587,145.6h-16.64
			c-17.643,0-32,14.357-32,32V330.68c0,17.643,14.357,32,32,32h16.64c121.877,0,237.269,53.056,316.587,145.6
			c2.069,2.411,5.035,3.733,8.107,3.733c1.259,0,2.496-0.213,3.712-0.661c4.181-1.557,6.955-5.547,6.955-10.005V10.68
			C512.007,6.221,509.233,2.232,505.052,0.675z M490.673,473.869c-82.283-84.544-195.221-132.523-314.027-132.523h-16.64
			c-5.867,0-10.667-4.8-10.667-10.667V181.347c0-5.867,4.8-10.667,10.667-10.667h16.64c118.827,0,231.765-47.979,314.027-132.523
			V473.869z"/>
	</g>
</g>
<g>
	<g>
		<path d="M138.673,170.68H53.34c-29.419,0-53.333,23.915-53.333,53.333v64c0,29.419,23.915,53.333,53.333,53.333h85.333
			c5.888,0,10.667-4.779,10.667-10.667V181.347C149.34,175.459,144.561,170.68,138.673,170.68z M128.007,320.013H53.34
			c-17.643,0-32-14.357-32-32v-64c0-17.643,14.357-32,32-32h74.667V320.013z"/>
	</g>
</g>
<g>
	<g>
		<path d="M228.913,461.923c-0.021-0.021-5.675-6.315-7.424-8.512c-4.629-5.803-9.003-12.352-12.992-19.477
			c-11.584-20.693-14.656-45.227-8.704-69.12l2.56-10.219c1.429-5.696-2.027-11.499-7.765-12.928
			c-5.632-1.408-11.499,2.027-12.928,7.765l-2.56,10.219c-7.275,29.163-3.435,59.243,10.795,84.693
			c4.565,8.128,9.579,15.68,14.976,22.4c1.728,2.176,6.827,7.915,7.104,8.021c2.688,4.715,0.896,8.896,0,10.496
			c-0.917,1.621-3.669,5.419-9.301,5.419h-29.781c-15.104,0-27.947-10.304-31.317-25.387l-35.243-137.259
			c-1.451-5.717-7.296-9.173-12.971-7.68c-5.696,1.451-9.131,7.253-7.68,12.971l35.157,136.917
			c5.44,24.576,26.859,41.771,52.053,41.771h29.781c11.691,0,22.08-6.059,27.84-16.235
			C236.273,485.603,236.124,473.549,228.913,461.923z"/>
	</g>
</g>
<g>
	<g>
		<path d="M53.34,234.68c-5.888,0-10.667,4.779-10.667,10.667v21.333c0,5.888,4.779,10.667,10.667,10.667
			s10.667-4.779,10.667-10.667v-21.333C64.007,239.459,59.228,234.68,53.34,234.68z"/>
	</g>
</g>
<g>
	<g>
		<path d="M96.007,234.68c-5.888,0-10.667,4.779-10.667,10.667v21.333c0,5.888,4.779,10.667,10.667,10.667
			s10.667-4.779,10.667-10.667v-21.333C106.673,239.459,101.895,234.68,96.007,234.68z"/>
	</g>
</g>
<g>
</g>
<g>
</g>
<g>
</g>
<g>
</g>
<g>
</g>
<g>
</g>
<g>
</g>
<g>
</g>
<g>
</g>
<g>
</g>
<g>
</g>
<g>
</g>
<g>
</g>
<g>
</g>
<g>
</g>
</svg>
