<?xml version="1.0" encoding="iso-8859-1"?>
<!-- Generator: Adobe Illustrator 19.0.0, SVG Export Plug-In . SVG Version: 6.00 Build 0)  -->
<svg version="1.1" id="Capa_1" xmlns="http://www.w3.org/2000/svg" xmlns:xlink="http://www.w3.org/1999/xlink" x="0px" y="0px"
	 viewBox="0 0 512.021 512.021" style="enable-background:new 0 0 512.021 512.021;" xml:space="preserve">
<g>
	<g>
		<path d="M138.69,0C62.231,0,0.023,62.208,0.023,138.667S62.231,277.333,138.69,277.333s138.667-62.208,138.667-138.667
			S215.148,0,138.69,0z M138.69,256c-64.704,0-117.333-52.629-117.333-117.333S73.986,21.333,138.69,21.333
			s117.333,52.629,117.333,117.333S203.394,256,138.69,256z"/>
	</g>
</g>
<g>
	<g>
		<path d="M214.444,23.829c-3.051-5.056-9.621-6.613-14.656-3.563c-5.035,3.072-6.613,9.621-3.541,14.656
			c11.2,18.368,17.109,39.488,17.109,61.077c0,64.704-52.629,117.333-117.333,117.333c-21.653,0-42.795-5.931-61.12-17.173
			c-5.035-3.093-11.584-1.493-14.677,3.52c-3.093,5.035-1.493,11.605,3.52,14.677c21.696,13.291,46.699,20.309,72.277,20.309
			c76.459,0,138.667-62.208,138.667-138.667C234.69,70.485,227.692,45.525,214.444,23.829z"/>
	</g>
</g>
<g>
	<g>
		<path d="M504.791,444.416c-0.064-0.085-0.128-0.171-0.192-0.235L271.596,174.4c-2.411-2.816-6.101-4.203-9.792-3.563
			c-3.669,0.597-6.741,3.051-8.149,6.507c-14.016,34.496-41.835,62.315-76.331,76.331c-3.435,1.408-5.909,4.48-6.507,8.149
			c-0.597,3.648,0.747,7.36,3.563,9.792l270.016,233.195c5.931,4.821,13.077,7.211,20.203,7.211c8.235,0,16.405-3.157,22.571-9.344
			l15.424-15.424C514.242,475.605,515.18,457.195,504.791,444.416z M487.575,472.128l-15.424,15.424
			c-3.904,3.861-10.027,4.181-14.059,0.917L200.748,266.197c27.669-14.891,50.581-37.803,65.472-65.472l222.165,257.216
			C491.756,462.208,491.436,468.267,487.575,472.128z"/>
	</g>
</g>
<g>
	<g>
		<path d="M316.887,301.803l-42.667-42.667c-4.16-4.16-10.923-4.16-15.083,0c-4.16,4.16-4.16,10.923,0,15.083l42.667,42.667
			c2.091,2.069,4.821,3.115,7.552,3.115c2.731,0,5.461-1.045,7.531-3.115C321.047,312.725,321.047,305.963,316.887,301.803z"/>
	</g>
</g>
<g>
</g>
<g>
</g>
<g>
</g>
<g>
</g>
<g>
</g>
<g>
</g>
<g>
</g>
<g>
</g>
<g>
</g>
<g>
</g>
<g>
</g>
<g>
</g>
<g>
</g>
<g>
</g>
<g>
</g>
</svg>
