<?xml version="1.0" encoding="iso-8859-1"?>
<!-- Generator: Adobe Illustrator 19.0.0, SVG Export Plug-In . SVG Version: 6.00 Build 0)  -->
<svg version="1.1" id="Capa_1" xmlns="http://www.w3.org/2000/svg" xmlns:xlink="http://www.w3.org/1999/xlink" x="0px" y="0px"
	 viewBox="0 0 490.667 490.667" style="enable-background:new 0 0 490.667 490.667;" xml:space="preserve">
<g>
	<g>
		<path d="M423.531,67.136c-4.16-4.16-10.923-4.16-15.083,0L259.115,216.469c-4.16,4.16-4.16,10.923,0,15.083
			c2.091,2.069,4.821,3.115,7.552,3.115c2.731,0,5.461-1.045,7.531-3.115L423.531,82.219
			C427.691,78.059,427.691,71.296,423.531,67.136z"/>
	</g>
</g>
<g>
	<g>
		<path d="M266.667,85.333C260.779,85.333,256,90.112,256,96v128c0,5.888,4.779,10.667,10.667,10.667s10.667-4.779,10.667-10.667V96
			C277.333,90.112,272.555,85.333,266.667,85.333z"/>
	</g>
</g>
<g>
	<g>
		<path d="M394.667,213.333h-128c-5.888,0-10.667,4.779-10.667,10.667s4.779,10.667,10.667,10.667h128
			c5.888,0,10.667-4.779,10.667-10.667S400.555,213.333,394.667,213.333z"/>
	</g>
</g>
<g>
	<g>
		<path d="M231.531,259.136c-4.16-4.16-10.923-4.16-15.083,0L67.115,408.469c-4.16,4.16-4.16,10.923,0,15.083
			c2.091,2.069,4.821,3.115,7.552,3.115c2.731,0,5.461-1.045,7.531-3.115l149.333-149.333
			C235.691,270.059,235.691,263.296,231.531,259.136z"/>
	</g>
</g>
<g>
	<g>
		<path d="M224,256c-5.888,0-10.667,4.779-10.667,10.667v128c0,5.888,4.779,10.667,10.667,10.667s10.667-4.779,10.667-10.667v-128
			C234.667,260.779,229.888,256,224,256z"/>
	</g>
</g>
<g>
	<g>
		<path d="M224,256H96c-5.888,0-10.667,4.779-10.667,10.667S90.112,277.333,96,277.333h128c5.888,0,10.667-4.779,10.667-10.667
			S229.888,256,224,256z"/>
	</g>
</g>
<g>
	<g>
		<path d="M458.667,0H32C14.357,0,0,14.357,0,32v426.667c0,17.643,14.357,32,32,32h426.667c17.643,0,32-14.357,32-32V32
			C490.667,14.357,476.309,0,458.667,0z M469.333,458.667c0,5.867-4.779,10.667-10.667,10.667H32c-5.888,0-10.667-4.8-10.667-10.667
			V32c0-5.867,4.779-10.667,10.667-10.667h426.667c5.888,0,10.667,4.8,10.667,10.667V458.667z"/>
	</g>
</g>
<g>
</g>
<g>
</g>
<g>
</g>
<g>
</g>
<g>
</g>
<g>
</g>
<g>
</g>
<g>
</g>
<g>
</g>
<g>
</g>
<g>
</g>
<g>
</g>
<g>
</g>
<g>
</g>
<g>
</g>
</svg>
