<?xml version="1.0" encoding="iso-8859-1"?>
<!-- Generator: Adobe Illustrator 19.0.0, SVG Export Plug-In . SVG Version: 6.00 Build 0)  -->
<svg version="1.1" id="Capa_1" xmlns="http://www.w3.org/2000/svg" xmlns:xlink="http://www.w3.org/1999/xlink" x="0px" y="0px"
	 viewBox="0 0 512 512" style="enable-background:new 0 0 512 512;" xml:space="preserve">
<g>
	<g>
		<path d="M321.344,351.997H53.333c-17.643,0-32-14.357-32-32v-128c0-17.643,14.357-32,32-32h94.677
			c5.888,0,10.667-4.779,10.667-10.667s-4.779-10.667-10.667-10.667H53.333C23.936,138.664,0,162.6,0,191.997v128
			c0,29.397,23.936,53.333,53.333,53.333h268.011c5.888,0,10.667-4.779,10.667-10.667
			C332.011,356.776,327.232,351.997,321.344,351.997z"/>
	</g>
</g>
<g>
	<g>
		<path d="M480,202.664h-10.667v-10.667c0-29.397-23.936-53.333-53.333-53.333H202.987c-5.909,0-10.667,4.779-10.667,10.667
			s4.779,10.667,10.667,10.667H416c17.643,0,32,14.357,32,32v21.333c0,5.888,4.779,10.667,10.667,10.667H480
			c5.888,0,10.667,4.779,10.667,10.667v42.667c0,5.888-4.779,10.667-10.667,10.667h-21.333c-5.888,0-10.667,4.779-10.667,10.667
			v21.333c0,17.643-14.357,32-32,32h-39.68c-5.888,0-10.667,4.779-10.667,10.667c0,5.888,4.779,10.667,10.667,10.667H416
			c29.397,0,53.333-23.936,53.333-53.333V309.33H480c17.643,0,32-14.357,32-32v-42.667C512,217.021,497.643,202.664,480,202.664z"/>
	</g>
</g>
<g>
	<g>
		<path d="M381.611,419.944L104.277,78.61c-3.712-4.565-10.411-5.269-14.997-1.557c-4.587,3.712-5.269,10.432-1.579,14.997
			l277.333,341.333c2.112,2.603,5.184,3.947,8.299,3.947c2.368,0,4.757-0.789,6.72-2.368
			C384.64,431.229,385.323,424.509,381.611,419.944z"/>
	</g>
</g>
<g>
</g>
<g>
</g>
<g>
</g>
<g>
</g>
<g>
</g>
<g>
</g>
<g>
</g>
<g>
</g>
<g>
</g>
<g>
</g>
<g>
</g>
<g>
</g>
<g>
</g>
<g>
</g>
<g>
</g>
</svg>
