<?xml version="1.0" encoding="iso-8859-1"?>
<!-- Generator: Adobe Illustrator 19.0.0, SVG Export Plug-In . SVG Version: 6.00 Build 0)  -->
<svg version="1.1" id="Capa_1" xmlns="http://www.w3.org/2000/svg" xmlns:xlink="http://www.w3.org/1999/xlink" x="0px" y="0px"
	 viewBox="0 0 512 512" style="enable-background:new 0 0 512 512;" xml:space="preserve">
<g>
	<g>
		<path d="M361.099,197.056c-1.963-3.136-5.397-5.056-9.088-5.056h-42.667c-2.837,0-5.547,1.131-7.552,3.115L195.125,301.781
			c-1.984,2.005-3.115,4.715-3.115,7.552v192c0,4.949,3.392,9.259,8.213,10.389c0.832,0.192,1.643,0.277,2.453,0.277
			c3.989,0,7.701-2.219,9.536-5.909l149.333-298.667C363.211,204.139,363.04,200.192,361.099,197.056z M213.344,456.149v-142.4
			L313.76,213.333h20.992L213.344,456.149z"/>
	</g>
</g>
<g>
	<g>
		<path d="M360.651,4.437C358.667,1.643,355.445,0,352.011,0H181.344c-5.269,0-9.749,3.84-10.539,9.045l-42.667,277.333
			c-0.491,3.093,0.405,6.208,2.432,8.576c2.048,2.368,4.992,3.712,8.107,3.712h25.003c5.888,0,10.667-4.779,10.667-10.667
			s-4.779-10.667-10.667-10.667h-12.565l39.381-256h146.731l-39.851,119.488c-1.856,5.589,1.152,11.627,6.741,13.483
			c5.632,1.856,11.627-1.131,13.504-6.741l44.501-133.504C363.211,10.795,362.677,7.211,360.651,4.437z"/>
	</g>
</g>
<g>
	<g>
		<path d="M508.875,3.136c-4.16-4.16-10.923-4.16-15.083,0L3.125,493.803c-4.16,4.16-4.16,10.923,0,15.083
			C5.216,510.955,7.947,512,10.677,512c2.731,0,5.461-1.045,7.531-3.115L508.875,18.219C513.035,14.059,513.035,7.296,508.875,3.136
			z"/>
	</g>
</g>
<g>
</g>
<g>
</g>
<g>
</g>
<g>
</g>
<g>
</g>
<g>
</g>
<g>
</g>
<g>
</g>
<g>
</g>
<g>
</g>
<g>
</g>
<g>
</g>
<g>
</g>
<g>
</g>
<g>
</g>
</svg>
