<?xml version="1.0" encoding="iso-8859-1"?>
<!-- Generator: Adobe Illustrator 19.0.0, SVG Export Plug-In . SVG Version: 6.00 Build 0)  -->
<svg version="1.1" id="Capa_1" xmlns="http://www.w3.org/2000/svg" xmlns:xlink="http://www.w3.org/1999/xlink" x="0px" y="0px"
	 viewBox="0 0 512 512" style="enable-background:new 0 0 512 512;" xml:space="preserve">
<g>
	<g>
		<path d="M437.333,74.667H74.667c-17.643,0-32,14.357-32,32v256c0,5.888,4.779,10.667,10.667,10.667S64,368.555,64,362.667v-256
			C64,100.779,68.779,96,74.667,96h362.667c5.888,0,10.667,4.779,10.667,10.667v256c0,5.888,4.779,10.667,10.667,10.667
			s10.667-4.779,10.667-10.667v-256C469.333,89.024,454.976,74.667,437.333,74.667z"/>
	</g>
</g>
<g>
	<g>
		<path d="M501.333,352H10.667C4.779,352,0,356.779,0,362.667V384c0,29.397,23.936,53.333,53.333,53.333h405.333
			C488.064,437.333,512,413.397,512,384v-21.333C512,356.779,507.221,352,501.333,352z M490.667,384c0,17.643-14.357,32-32,32
			H53.333c-17.643,0-32-14.357-32-32v-10.667h469.333V384z"/>
	</g>
</g>
<g>
</g>
<g>
</g>
<g>
</g>
<g>
</g>
<g>
</g>
<g>
</g>
<g>
</g>
<g>
</g>
<g>
</g>
<g>
</g>
<g>
</g>
<g>
</g>
<g>
</g>
<g>
</g>
<g>
</g>
</svg>
