<?xml version="1.0" encoding="iso-8859-1"?>
<!-- Generator: Adobe Illustrator 19.0.0, SVG Export Plug-In . SVG Version: 6.00 Build 0)  -->
<svg version="1.1" id="Capa_1" xmlns="http://www.w3.org/2000/svg" xmlns:xlink="http://www.w3.org/1999/xlink" x="0px" y="0px"
	 viewBox="0 0 512.005 512.005" style="enable-background:new 0 0 512.005 512.005;" xml:space="preserve">
<g>
	<g>
		<path d="M388.891,59.216c-40.213-24.533-86.187-37.483-132.885-37.483c-141.163,0-256,114.837-256,256
			c0,46.485,13.013,92.373,37.653,132.715c2.027,3.285,5.525,5.099,9.109,5.099c1.899,0,3.84-0.491,5.568-1.557
			c5.013-3.093,6.613-9.643,3.541-14.677c-22.592-36.992-34.539-79.019-34.539-121.579c0-129.387,105.28-234.667,234.667-234.667
			c42.795,0,84.885,11.883,121.749,34.368c5.077,3.051,11.605,1.472,14.677-3.563S393.904,62.288,388.891,59.216z"/>
	</g>
</g>
<g>
	<g>
		<path d="M123.547,471.184c-15.744-10.795-30.336-23.744-43.328-38.464c-3.947-4.416-10.709-4.821-15.061-0.917
			c-4.416,3.904-4.843,10.645-0.939,15.061c14.187,16.021,30.08,30.123,47.253,41.92c1.856,1.28,3.947,1.877,6.037,1.877
			c3.392,0,6.72-1.621,8.789-4.651C129.627,481.147,128.411,474.512,123.547,471.184z"/>
	</g>
</g>
<g>
	<g>
		<path d="M425.157,85.904C420.72,82,414,82.427,410.096,86.843c-3.904,4.416-3.477,11.157,0.939,15.061
			c50.624,44.672,79.637,108.757,79.637,175.829c0,77.248-38.187,149.547-102.165,193.451c-4.864,3.328-6.08,9.963-2.752,14.827
			c2.069,3.008,5.397,4.629,8.789,4.629c2.091,0,4.181-0.619,6.037-1.877c69.781-47.872,111.424-126.741,111.424-211.029
			C512.005,204.539,480.347,134.629,425.157,85.904z"/>
	</g>
</g>
<g>
	<g>
		<path d="M159.685,418.427c-12.139-8.32-23.573-18.752-33.899-30.955c-3.819-4.48-10.56-5.035-15.04-1.237
			c-4.501,3.819-5.056,10.539-1.259,15.04c11.584,13.653,24.405,25.365,38.144,34.773c1.835,1.259,3.925,1.856,6.016,1.856
			c3.392,0,6.741-1.621,8.811-4.651C165.787,428.389,164.571,421.755,159.685,418.427z"/>
	</g>
</g>
<g>
	<g>
		<path d="M379.696,131.003c-4.459-3.755-11.2-3.221-15.019,1.28c-3.797,4.501-3.221,11.243,1.28,15.04
			c38.592,32.555,60.715,80.085,60.715,130.411c0,56.171-27.776,108.779-74.304,140.693c-4.864,3.328-6.08,9.963-2.752,14.827
			c2.069,3.008,5.397,4.629,8.789,4.629c2.069,0,4.181-0.597,6.037-1.877c52.309-35.883,83.563-95.061,83.563-158.272
			C448.005,221.115,423.109,167.632,379.696,131.003z"/>
	</g>
</g>
<g>
	<g>
		<path d="M341.04,105.787c-26.816-13.312-55.424-20.053-85.035-20.053c-105.877,0-192,86.144-192,192
			c0,29.504,6.784,58.112,20.181,84.992c1.856,3.733,5.611,5.909,9.536,5.909c1.6,0,3.221-0.363,4.736-1.131
			c5.269-2.624,7.424-9.024,4.8-14.293c-11.904-23.915-17.92-49.301-17.92-75.477c0-94.101,76.565-170.667,170.667-170.667
			c26.283,0,51.712,5.995,75.584,17.835c5.227,2.603,11.669,0.469,14.293-4.821C348.485,114.789,346.331,108.411,341.04,105.787z"/>
	</g>
</g>
<g>
	<g>
		<path d="M289.797,154.384c-11.285-3.093-22.677-4.651-33.792-4.651c-70.592,0-128,57.408-128,128
			c0,11.264,1.557,22.656,4.651,33.835c1.301,4.715,5.589,7.829,10.283,7.829c0.939,0,1.899-0.128,2.837-0.384
			c5.696-1.557,9.024-7.424,7.467-13.12c-2.581-9.344-3.904-18.816-3.904-28.16c0-68.053,65.088-121.835,134.848-102.763
			c5.781,1.557,11.563-1.813,13.099-7.488C298.821,161.808,295.493,155.941,289.797,154.384z"/>
	</g>
</g>
<g>
	<g>
		<path d="M195.845,365.691c-9.045-6.187-17.216-14.016-24.299-23.232c-3.605-4.693-10.304-5.547-14.955-1.963
			c-4.672,3.584-5.547,10.283-1.963,14.955c8.448,10.987,18.24,20.352,29.12,27.819c1.856,1.28,3.947,1.877,6.037,1.877
			c3.392,0,6.72-1.621,8.811-4.629C201.925,375.653,200.709,369.019,195.845,365.691z"/>
	</g>
</g>
<g>
	<g>
		<path d="M333.787,176.251c-4.672-3.584-11.349-2.709-14.955,1.963c-3.584,4.672-2.709,11.371,1.963,14.955
			c26.624,20.416,41.877,51.221,41.877,84.565c0,35.115-17.344,67.989-46.443,87.936c-4.885,3.328-6.101,9.963-2.773,14.827
			c2.069,3.008,5.397,4.629,8.789,4.629c2.091,0,4.203-0.619,6.037-1.877c34.88-23.915,55.723-63.36,55.723-105.515
			C384.005,237.712,365.701,200.72,333.787,176.251z"/>
	</g>
</g>
<g>
	<g>
		<path d="M267.824,236.859c-5.739-1.621-11.605,1.6-13.227,7.275c-1.621,5.675,1.621,11.584,7.275,13.227
			c9.109,2.624,15.467,11.008,15.467,20.352c0,11.755-9.557,21.333-21.333,21.333c-9.493,0-17.664-6.208-20.352-15.445
			c-1.643-5.632-7.488-8.939-13.227-7.253c-5.653,1.664-8.917,7.573-7.275,13.227c5.291,18.155,22.08,30.827,40.853,30.827
			c23.531,0,42.667-19.136,42.667-42.667C298.672,258.939,285.979,242.149,267.824,236.859z"/>
	</g>
</g>
<g>
	<g>
		<path d="M508.869,3.131c-4.16-4.16-10.923-4.16-15.083,0L3.12,493.797c-4.16,4.16-4.16,10.923,0,15.083
			c2.091,2.069,4.821,3.115,7.552,3.115c2.731,0,5.461-1.045,7.531-3.115L508.869,18.213
			C513.029,14.053,513.029,7.291,508.869,3.131z"/>
	</g>
</g>
<g>
</g>
<g>
</g>
<g>
</g>
<g>
</g>
<g>
</g>
<g>
</g>
<g>
</g>
<g>
</g>
<g>
</g>
<g>
</g>
<g>
</g>
<g>
</g>
<g>
</g>
<g>
</g>
<g>
</g>
</svg>
