<?xml version="1.0" encoding="iso-8859-1"?>
<!-- Generator: Adobe Illustrator 19.0.0, SVG Export Plug-In . SVG Version: 6.00 Build 0)  -->
<svg version="1.1" id="Capa_1" xmlns="http://www.w3.org/2000/svg" xmlns:xlink="http://www.w3.org/1999/xlink" x="0px" y="0px"
	 viewBox="0 0 512.005 512.005" style="enable-background:new 0 0 512.005 512.005;" xml:space="preserve">
<g>
	<g>
		<path d="M348.507,101.925c-28.8-24.448-65.429-37.931-103.168-37.931c-88.235,0-160,71.765-160,160
			c0,3.627,0.149,7.317,0.469,11.2c-48.149,5.12-85.803,45.973-85.803,95.467c0,32.491,16.363,62.571,43.755,80.384
			c1.792,1.173,3.797,1.728,5.803,1.728c3.477,0,6.891-1.707,8.939-4.864c3.221-4.928,1.813-11.541-3.115-14.741
			c-21.312-13.888-34.048-37.227-34.048-62.507c0-41.173,33.493-74.667,73.963-74.688c3.691,0.512,8.149-0.768,10.496-3.499
			c2.027-2.325,2.944-5.419,2.496-8.491c-1.109-7.637-1.621-13.995-1.621-19.989c0-76.459,62.208-138.667,138.667-138.667
			c32.661,0,64.427,11.669,89.365,32.853c4.501,3.84,11.243,3.285,15.04-1.237C353.541,112.464,353.008,105.744,348.507,101.925z"/>
	</g>
</g>
<g>
	<g>
		<path d="M401.989,192.229c-4.011-19.989-11.797-38.784-23.125-56.043c-1.771-2.688-4.651-4.437-7.829-4.757
			c-3.221-0.363-6.379,0.811-8.619,3.072L88.453,408.443c-3.029,3.051-3.947,7.637-2.304,11.627
			c1.643,3.989,5.547,6.592,9.856,6.592h298.667c64.683,0,117.333-52.651,117.333-117.333
			C512.005,247.099,463.301,196.005,401.989,192.229z M394.672,405.328H121.755l246.037-246.037
			c7.488,14.08,12.416,29.163,14.656,45.035c0.747,5.269,5.248,9.173,10.56,9.173c0.405,0,1.429-0.085,2.091-0.171
			c52.736,0.235,95.573,43.2,95.573,96C490.672,362.256,447.6,405.328,394.672,405.328z"/>
	</g>
</g>
<g>
	<g>
		<path d="M508.869,3.131c-4.16-4.16-10.923-4.16-15.083,0L3.12,493.797c-4.16,4.16-4.16,10.923,0,15.083
			c2.091,2.069,4.821,3.115,7.552,3.115c2.731,0,5.461-1.045,7.531-3.115L508.869,18.213
			C513.029,14.053,513.029,7.291,508.869,3.131z"/>
	</g>
</g>
<g>
</g>
<g>
</g>
<g>
</g>
<g>
</g>
<g>
</g>
<g>
</g>
<g>
</g>
<g>
</g>
<g>
</g>
<g>
</g>
<g>
</g>
<g>
</g>
<g>
</g>
<g>
</g>
<g>
</g>
</svg>
