<?xml version="1.0" encoding="iso-8859-1"?>
<!-- Generator: Adobe Illustrator 19.0.0, SVG Export Plug-In . SVG Version: 6.00 Build 0)  -->
<svg version="1.1" id="Capa_1" xmlns="http://www.w3.org/2000/svg" xmlns:xlink="http://www.w3.org/1999/xlink" x="0px" y="0px"
	 viewBox="0 0 511.877 511.877" style="enable-background:new 0 0 511.877 511.877;" xml:space="preserve">
<g>
	<g>
		<path d="M499.021,167.874c-10.133-11.819-24.896-18.603-40.469-18.603H281.741c-11.52,0-23.061,2.731-33.387,7.872l-58.304,29.163
			c-7.36,3.691-15.616,5.632-23.851,5.632H53.347c-15.872,0-30.784,6.976-40.96,19.179c-10.155,12.16-14.357,28.117-11.52,43.712
			l30.336,166.848c2.773,15.189,16,26.261,31.488,26.261h384.619c15.915,0,29.205-11.413,31.616-27.115l32.32-210.112
			C513.635,195.309,509.176,179.714,499.021,167.874z M490.189,207.448l-32.32,210.112c-0.811,5.227-5.248,9.045-10.56,9.045H62.691
			c-5.141,0-9.557-3.691-10.496-8.768L21.859,250.989c-1.707-9.365,0.811-18.923,6.912-26.219
			c6.101-7.317,15.061-11.499,24.576-11.499H166.2c11.52,0,23.083-2.731,33.387-7.872l58.304-29.163
			c7.381-3.691,15.616-5.632,23.851-5.632h176.811c9.344,0,18.197,4.053,24.299,11.157
			C488.931,188.866,491.597,198.21,490.189,207.448z"/>
	</g>
</g>
<g>
	<g>
		<path d="M437.304,106.605H259.32c-8.405,0-16.661-3.413-22.613-9.387l-17.685-17.664c-10.091-10.069-23.488-15.616-37.717-15.616
			H95.971c-29.397,0-53.333,23.915-53.333,53.333v85.333c0,5.888,4.779,10.667,10.667,10.667c5.909,0,10.667-4.779,10.667-10.667
			v-85.333c0-17.643,14.357-32,32-32h85.333c8.427,0,16.683,3.413,22.635,9.365l17.664,17.685
			c10.091,10.069,23.488,15.616,37.717,15.616h177.984c5.888,0,10.667,4.8,10.667,10.667v21.333c0,5.888,4.779,10.667,10.667,10.667
			c5.888,0,10.667-4.779,10.667-10.667v-21.333C469.304,120.962,454.947,106.605,437.304,106.605z"/>
	</g>
</g>
<g>
</g>
<g>
</g>
<g>
</g>
<g>
</g>
<g>
</g>
<g>
</g>
<g>
</g>
<g>
</g>
<g>
</g>
<g>
</g>
<g>
</g>
<g>
</g>
<g>
</g>
<g>
</g>
<g>
</g>
</svg>
