<?xml version="1.0" encoding="iso-8859-1"?>
<!-- Generator: Adobe Illustrator 19.0.0, SVG Export Plug-In . SVG Version: 6.00 Build 0)  -->
<svg version="1.1" id="Capa_1" xmlns="http://www.w3.org/2000/svg" xmlns:xlink="http://www.w3.org/1999/xlink" x="0px" y="0px"
	 viewBox="0 0 512 512" style="enable-background:new 0 0 512 512;" xml:space="preserve">
<g>
	<g>
		<path d="M501.995,485.781L287.381,330.219c-18.773-13.632-43.968-13.632-62.72,0L10.048,485.781
			c-4.757,3.456-5.824,10.112-2.368,14.891c3.435,4.757,10.091,5.824,14.891,2.368l214.592-155.563
			c11.243-8.192,26.368-8.192,37.653,0L489.451,503.04c1.899,1.365,4.075,2.027,6.251,2.027c3.307,0,6.571-1.536,8.661-4.395
			C507.819,495.915,506.773,489.237,501.995,485.781z"/>
	</g>
</g>
<g>
	<g>
		<path d="M508.992,178.88c-3.456-4.757-10.112-5.845-14.891-2.389L278.293,332.693c-4.779,3.456-5.845,10.112-2.389,14.891
			c2.091,2.88,5.355,4.416,8.661,4.416c2.176,0,4.352-0.661,6.229-2.027l215.808-156.203
			C511.381,190.315,512.448,183.659,508.992,178.88z"/>
	</g>
</g>
<g>
	<g>
		<path d="M233.685,332.693L17.877,176.491c-4.779-3.499-11.435-2.411-14.869,2.389c-3.456,4.757-2.411,11.435,2.368,14.891
			l215.829,156.203c1.877,1.365,4.053,2.027,6.229,2.027c3.285,0,6.549-1.536,8.64-4.416
			C239.531,342.805,238.464,336.149,233.685,332.693z"/>
	</g>
</g>
<g>
	<g>
		<path d="M500.501,166.741l-34.987-29.163c-4.544-3.755-11.264-3.157-15.04,1.365c-3.776,4.544-3.157,11.264,1.365,15.04
			l34.987,29.141c2.453,2.027,3.84,5.013,3.84,8.192V480c0,5.888-4.779,10.667-10.667,10.667H32
			c-5.888,0-10.667-4.779-10.667-10.667V191.317c0-3.179,1.387-6.144,3.84-8.192l34.987-29.141
			c4.523-3.776,5.141-10.496,1.387-15.04c-3.797-4.523-10.517-5.12-15.04-1.365L11.52,166.741C4.203,172.821,0,181.803,0,191.317
			V480c0,17.643,14.357,32,32,32h448c17.643,0,32-14.357,32-32V191.317C512,181.803,507.797,172.843,500.501,166.741z"/>
	</g>
</g>
<g>
	<g>
		<path d="M458.667,0H53.333c-5.888,0-10.667,4.779-10.667,10.667v204.523c0,5.909,4.779,10.667,10.667,10.667
			S64,221.077,64,215.189V21.333h384v193.984c0,5.888,4.779,10.667,10.667,10.667s10.667-4.757,10.667-10.667V10.667
			C469.333,4.779,464.555,0,458.667,0z"/>
	</g>
</g>
<g>
</g>
<g>
</g>
<g>
</g>
<g>
</g>
<g>
</g>
<g>
</g>
<g>
</g>
<g>
</g>
<g>
</g>
<g>
</g>
<g>
</g>
<g>
</g>
<g>
</g>
<g>
</g>
<g>
</g>
</svg>
