<?xml version="1.0" encoding="iso-8859-1"?>
<!-- Generator: Adobe Illustrator 19.0.0, SVG Export Plug-In . SVG Version: 6.00 Build 0)  -->
<svg version="1.1" id="Capa_1" xmlns="http://www.w3.org/2000/svg" xmlns:xlink="http://www.w3.org/1999/xlink" x="0px" y="0px"
	 viewBox="0 0 512.01 512.01" style="enable-background:new 0 0 512.01 512.01;" xml:space="preserve">
<g>
	<g>
		<path d="M188.907,365.791l-42.667-42.667c-2.005-1.984-4.715-3.115-7.552-3.115c-53.483,0-138.667,82.987-138.667,181.333
			c0,4.309,2.603,8.213,6.592,9.856c1.323,0.555,2.709,0.811,4.075,0.811c2.773,0,5.504-1.088,7.552-3.136
			c28.992-28.992,50.901-32.235,87.211-37.611l13.568-2.048c47.083-7.403,73.003-41.429,73.003-95.872
			C192.021,370.506,190.891,367.796,188.907,365.791z M115.691,448.138l-13.376,2.027c-30.037,4.437-53.483,7.936-78.869,26.176
			c12.16-73.067,74.496-130.517,111.083-134.741l36.096,36.096C169.429,418.911,150.955,442.612,115.691,448.138z"/>
	</g>
</g>
<g>
	<g>
		<path d="M508.864,45.791L466.197,3.124c-3.541-3.541-9.067-4.139-13.291-1.451c-0.896,0.576-90.496,58.155-183.125,150.784
			c-92.779,92.779-138.411,169.579-140.309,172.8c-2.987,5.077-1.301,11.605,3.776,14.592c5.099,2.965,11.605,1.301,14.613-3.776
			c0.469-0.768,46.315-77.824,137.024-168.533C360.832,91.594,434.581,39.711,457.301,24.372l30.336,30.336
			c-15.317,22.699-67.136,96.384-143.168,172.416C253.76,317.834,176.704,363.7,175.936,364.148
			c-5.077,3.008-6.763,9.536-3.776,14.613c1.984,3.371,5.547,5.248,9.195,5.248c1.856,0,3.712-0.469,5.376-1.493
			c3.221-1.899,80.021-47.531,172.8-140.309C452.16,149.578,509.739,59.978,510.315,59.082
			C513.003,54.858,512.405,49.332,508.864,45.791z"/>
	</g>
</g>
<g>
	<g>
		<path d="M284.885,291.146l-64-64c-4.16-4.16-10.923-4.16-15.083,0c-4.16,4.16-4.16,10.923,0,15.083l64,64
			c2.091,2.069,4.821,3.115,7.552,3.115c2.731,0,5.461-1.045,7.531-3.115C289.045,302.068,289.045,295.306,284.885,291.146z"/>
	</g>
</g>
<g>
</g>
<g>
</g>
<g>
</g>
<g>
</g>
<g>
</g>
<g>
</g>
<g>
</g>
<g>
</g>
<g>
</g>
<g>
</g>
<g>
</g>
<g>
</g>
<g>
</g>
<g>
</g>
<g>
</g>
</svg>
