<?xml version="1.0" encoding="iso-8859-1"?>
<!-- Generator: Adobe Illustrator 19.0.0, SVG Export Plug-In . SVG Version: 6.00 Build 0)  -->
<svg version="1.1" id="Capa_1" xmlns="http://www.w3.org/2000/svg" xmlns:xlink="http://www.w3.org/1999/xlink" x="0px" y="0px"
	 viewBox="0 0 512 512" style="enable-background:new 0 0 512 512;" xml:space="preserve">
<g>
	<g>
		<path d="M256,0c-64.683,0-117.333,52.629-117.333,117.333V416c0,52.928,43.072,96,96,96s96-43.072,96-96V160
			c0-41.173-33.493-74.667-74.667-74.667S181.333,118.827,181.333,160v192c0,5.888,4.779,10.667,10.667,10.667
			s10.667-4.779,10.667-10.667V160c0-29.397,23.915-53.333,53.333-53.333c29.419,0,53.333,23.936,53.333,53.333v256
			c0,41.173-33.493,74.667-74.667,74.667S160,457.173,160,416V117.333c0-52.928,43.072-96,96-96c52.928,0,96,43.072,96,96V352
			c0,5.888,4.779,10.667,10.667,10.667c5.888,0,10.667-4.779,10.667-10.667V117.333C373.333,52.629,320.683,0,256,0z"/>
	</g>
</g>
<g>
</g>
<g>
</g>
<g>
</g>
<g>
</g>
<g>
</g>
<g>
</g>
<g>
</g>
<g>
</g>
<g>
</g>
<g>
</g>
<g>
</g>
<g>
</g>
<g>
</g>
<g>
</g>
<g>
</g>
</svg>
