<?xml version="1.0" encoding="iso-8859-1"?>
<!-- Generator: Adobe Illustrator 19.0.0, SVG Export Plug-In . SVG Version: 6.00 Build 0)  -->
<svg version="1.1" id="Capa_1" xmlns="http://www.w3.org/2000/svg" xmlns:xlink="http://www.w3.org/1999/xlink" x="0px" y="0px"
	 viewBox="0 0 512 512" style="enable-background:new 0 0 512 512;" xml:space="preserve">
<g>
	<g>
		<path d="M410.048,140.523c-3.989-4.331-10.731-4.587-15.061-0.597c-4.331,3.989-4.608,10.731-0.597,15.061
			c82.923,89.835,112.661,176.192,88.384,200.491c-26.603,26.645-126.208-13.312-219.584-106.667
			c-44.672-44.672-80.043-93.525-99.563-137.557c-17.152-38.677-19.797-69.333-7.104-82.027
			c24.213-24.213,110.805,5.824,201.173,89.045c4.373,3.968,11.093,3.691,15.083-0.619c3.989-4.331,3.712-11.072-0.619-15.083
			C277.44,15.381,178.24-22.635,141.44,14.144c-19.755,19.733-18.795,57.301,2.688,105.792
			c20.565,46.357,57.493,97.493,103.979,143.979c74.88,74.859,157.76,120.491,210.432,120.469c16.448,0,29.952-4.437,39.296-13.824
			C534.763,333.632,497.003,234.731,410.048,140.523z"/>
	</g>
</g>
<g>
	<g>
		<path d="M495.061,359.659c-3.627-4.651-10.283-5.504-14.976-1.899c-41.344,32.021-86.72,47.573-138.752,47.573
			c-129.387,0-234.667-105.28-234.667-234.667c0-52.885,14.933-96.725,46.976-137.941c3.627-4.651,2.795-11.328-1.877-14.955
			c-4.629-3.627-11.349-2.816-14.955,1.877c-34.645,44.523-51.477,93.909-51.477,151.019c0,141.163,114.837,256,256,256
			c56.939,0,106.603-17.024,151.829-52.032C497.813,371.029,498.667,364.331,495.061,359.659z"/>
	</g>
</g>
<g>
	<g>
		<path d="M466.197,45.781c-3.499-3.499-8.939-4.16-13.077-1.557L207.787,193.557c-5.035,3.072-6.613,9.621-3.563,14.656
			c3.072,5.056,9.643,6.635,14.656,3.563L426.752,85.248L300.224,293.12c-3.072,5.035-1.472,11.584,3.563,14.656
			c1.728,1.067,3.648,1.557,5.547,1.557c3.584,0,7.104-1.813,9.088-5.141L467.755,58.859
			C470.315,54.656,469.675,49.259,466.197,45.781z"/>
	</g>
</g>
<g>
	<g>
		<path d="M234.005,454.912l-36.48-96.853c-2.091-5.525-8.235-8.363-13.739-6.229c-5.525,2.091-8.32,8.235-6.229,13.739L208.597,448
			h-75.776l40.043-105.152c2.112-5.504-0.661-11.669-6.165-13.76c-5.461-2.112-11.669,0.619-13.76,6.165l-45.568,119.616
			c-1.237,3.264-0.811,6.955,1.173,9.856c2.005,2.88,5.291,4.608,8.789,4.608H224c3.499,0,6.763-1.707,8.789-4.608
			C234.795,461.845,235.243,458.176,234.005,454.912z"/>
	</g>
</g>
<g>
	<g>
		<path d="M330.667,448h-320C4.779,448,0,452.779,0,458.667v42.667C0,507.221,4.779,512,10.667,512h320
			c5.888,0,10.667-4.779,10.667-10.667v-42.667C341.333,452.779,336.555,448,330.667,448z M320,490.667H21.333v-21.333H320V490.667z
			"/>
	</g>
</g>
<g>
	<g>
		<path d="M480,0c-17.643,0-32,14.357-32,32c0,17.643,14.357,32,32,32c17.643,0,32-14.357,32-32C512,14.357,497.643,0,480,0z
			 M480,42.667c-5.867,0-10.667-4.8-10.667-10.667s4.8-10.667,10.667-10.667c5.867,0,10.667,4.8,10.667,10.667
			S485.867,42.667,480,42.667z"/>
	</g>
</g>
<g>
</g>
<g>
</g>
<g>
</g>
<g>
</g>
<g>
</g>
<g>
</g>
<g>
</g>
<g>
</g>
<g>
</g>
<g>
</g>
<g>
</g>
<g>
</g>
<g>
</g>
<g>
</g>
<g>
</g>
</svg>
