<?xml version="1.0" encoding="iso-8859-1"?>
<!-- Generator: Adobe Illustrator 19.0.0, SVG Export Plug-In . SVG Version: 6.00 Build 0)  -->
<svg version="1.1" id="Capa_1" xmlns="http://www.w3.org/2000/svg" xmlns:xlink="http://www.w3.org/1999/xlink" x="0px" y="0px"
	 viewBox="0 0 512 512" style="enable-background:new 0 0 512 512;" xml:space="preserve">
<g>
	<g>
		<path d="M502.72,119.915C446.357,66.496,370.24,42.667,256,42.667S65.643,66.496,9.067,120.128C3.2,125.952,0,133.803,0,142.187
			c0,8.469,3.371,16.491,9.067,21.845l50.688,50.731c11.712,11.605,32.789,11.285,43.584,0.448
			c15.872-14.656,33.365-26.795,51.797-36.032c11.456-5.525,15.531-19.051,15.531-29.845v-13.376C197.867,128.661,228.8,128,256,128
			c28.821,0,58.965,0.64,85.333,7.915v13.419c0,14.165,5.739,25.408,15.189,30.016c19.307,9.643,36.821,21.781,52.032,36.011
			c5.824,5.504,13.696,8.64,21.632,8.64c8.384,0,16.235-3.2,22.059-9.067l50.688-50.688c5.867-5.824,9.067-13.675,9.067-22.059
			C512,133.803,508.8,125.952,502.72,119.915z M487.851,149.163l-50.688,50.688c-3.52,3.541-10.005,3.733-13.995-0.043
			c-16.747-15.659-35.947-28.971-57.237-39.616c-1.301-0.64-3.264-4.523-3.264-10.859V128c0-4.587-2.944-8.661-7.296-10.133
			c-31.04-10.325-66.112-11.2-99.371-11.2c-31.339,0-67.435,0.853-99.285,11.179c-4.395,1.429-7.381,5.525-7.381,10.155v21.333
			c0,5.845-2.027,9.941-3.605,10.709c-20.373,10.197-39.509,23.509-57.131,39.829c-3.392,3.371-10.133,3.392-13.76-0.192
			l-50.923-50.923c-1.643-1.579-2.581-3.968-2.581-6.571c0-2.688,1.003-5.163,2.603-6.763C76.053,86.016,147.627,64,256,64
			s179.947,22.016,231.851,71.211c1.813,1.813,2.816,4.288,2.816,6.976C490.667,144.875,489.664,147.349,487.851,149.163z"/>
	</g>
</g>
<g>
	<g>
		<path d="M256,149.333c-59.819,0-106.667,32.789-106.667,74.667S196.181,298.667,256,298.667S362.667,265.877,362.667,224
			S315.819,149.333,256,149.333z M256,277.333c-46.251,0-85.333-24.427-85.333-53.333s39.083-53.333,85.333-53.333
			s85.333,24.427,85.333,53.333S302.251,277.333,256,277.333z"/>
	</g>
</g>
<g>
	<g>
		<path d="M496.384,331.968l-65.856-65.856c-7.509-7.509-17.259-11.093-27.883-10.133c-11.072,0.981-21.141,7.04-27.669,16.512
			C355.456,300.907,307.648,320,256,320s-99.456-19.093-118.976-47.509c-6.549-9.515-16.619-15.552-27.691-16.555
			c-10.325-0.96-20.288,2.603-27.797,10.112l-59.584,59.563C6.571,341.013,0,354.176,0,369.664V416
			c0,29.419,23.915,53.333,53.333,53.333h405.333C488.085,469.333,512,445.419,512,416v-46.336
			C512,355.413,506.453,342.037,496.384,331.968z M490.667,416c0,17.643-14.357,32-32,32H53.333c-17.643,0-32-14.357-32-32v-46.336
			c0-6.869,1.899-15.147,15.701-28.971l59.605-59.563c3.2-3.221,6.72-4.011,9.451-4.011c0.448,0,0.896,0.021,1.301,0.043
			c4.715,0.448,9.109,3.157,12.053,7.424c23.68,34.475,77.291,56.747,136.555,56.747s112.875-22.272,136.576-56.768
			c2.901-4.267,7.296-6.933,12.032-7.381c2.773-0.277,7.061,0.213,10.837,3.989l65.856,65.856
			c5.952,5.973,9.365,14.208,9.365,22.635V416z"/>
	</g>
</g>
<g>
</g>
<g>
</g>
<g>
</g>
<g>
</g>
<g>
</g>
<g>
</g>
<g>
</g>
<g>
</g>
<g>
</g>
<g>
</g>
<g>
</g>
<g>
</g>
<g>
</g>
<g>
</g>
<g>
</g>
</svg>
