<?xml version="1.0" encoding="iso-8859-1"?>
<!-- Generator: Adobe Illustrator 19.0.0, SVG Export Plug-In . SVG Version: 6.00 Build 0)  -->
<svg version="1.1" id="Capa_1" xmlns="http://www.w3.org/2000/svg" xmlns:xlink="http://www.w3.org/1999/xlink" x="0px" y="0px"
	 viewBox="0 0 512.007 512.007" style="enable-background:new 0 0 512.007 512.007;" xml:space="preserve">
<g>
	<g>
		<path d="M501.333,0.004H10.667C4.779,0.004,0,4.782,0,10.67v490.667c0,5.888,4.779,10.667,10.667,10.667h490.667
			c5.888,0,10.667-4.779,10.667-10.667V10.67C512,4.782,507.221,0.004,501.333,0.004z M490.667,490.67H21.333V21.337h469.333V490.67
			z"/>
	</g>
</g>
<g>
	<g>
		<path d="M509.589,378.457L360.256,195.929c-2.005-2.475-5.035-3.925-8.213-3.925c0,0-0.021,0-0.043,0
			c-3.157,0-6.165,1.408-8.171,3.819l-50.901,61.056c-3.776,4.544-3.179,11.264,1.344,15.04c4.544,3.755,11.264,3.179,15.019-1.365
			l42.624-51.136L493.077,391.94c2.112,2.581,5.163,3.925,8.256,3.925c2.368,0,4.779-0.789,6.763-2.389
			C512.661,389.721,513.323,383.001,509.589,378.457z"/>
	</g>
</g>
<g>
	<g>
		<path d="M381.589,345.262l-192-234.667c-4.032-4.949-12.459-4.949-16.491,0L2.432,319.193c-3.733,4.565-3.072,11.285,1.493,15.019
			c4.544,3.712,11.264,3.051,14.997-1.515L181.333,134.19l183.744,224.555c2.112,2.581,5.163,3.925,8.256,3.925
			c2.368,0,4.779-0.789,6.763-2.389C384.661,356.526,385.323,349.806,381.589,345.262z"/>
	</g>
</g>
<g>
</g>
<g>
</g>
<g>
</g>
<g>
</g>
<g>
</g>
<g>
</g>
<g>
</g>
<g>
</g>
<g>
</g>
<g>
</g>
<g>
</g>
<g>
</g>
<g>
</g>
<g>
</g>
<g>
</g>
</svg>
