<?xml version="1.0" encoding="iso-8859-1"?>
<!-- Generator: Adobe Illustrator 19.0.0, SVG Export Plug-In . SVG Version: 6.00 Build 0)  -->
<svg version="1.1" id="Capa_1" xmlns="http://www.w3.org/2000/svg" xmlns:xlink="http://www.w3.org/1999/xlink" x="0px" y="0px"
	 viewBox="0 0 512.03 512.03" style="enable-background:new 0 0 512.03 512.03;" xml:space="preserve">
<g>
	<g>
		<path d="M494.308,227.401l-448-224c-9.963-4.992-21.611-4.459-31.125,1.408C5.69,10.675,0.015,20.851,0.015,32.009v448
			c0,11.157,5.675,21.333,15.168,27.2c5.184,3.221,11.008,4.821,16.832,4.821c4.864,0,9.771-1.131,14.315-3.392l448-224
			c10.901-5.461,17.685-16.427,17.685-28.629S505.231,232.84,494.308,227.401z M484.794,265.544l-448,224
			c-4.8,2.432-8.853,0.448-10.389-0.469c-1.515-0.939-5.056-3.712-5.056-9.067v-448c0-5.355,3.541-8.128,5.035-9.067
			c1.003-0.597,3.029-1.621,5.653-1.621c1.451,0,3.051,0.299,4.757,1.152l448,224c3.669,1.835,5.888,5.419,5.888,9.536
			S488.463,263.71,484.794,265.544z"/>
	</g>
</g>
<g>
</g>
<g>
</g>
<g>
</g>
<g>
</g>
<g>
</g>
<g>
</g>
<g>
</g>
<g>
</g>
<g>
</g>
<g>
</g>
<g>
</g>
<g>
</g>
<g>
</g>
<g>
</g>
<g>
</g>
</svg>
