<?xml version="1.0" encoding="iso-8859-1"?>
<!-- Generator: Adobe Illustrator 19.0.0, SVG Export Plug-In . SVG Version: 6.00 Build 0)  -->
<svg version="1.1" id="Capa_1" xmlns="http://www.w3.org/2000/svg" xmlns:xlink="http://www.w3.org/1999/xlink" x="0px" y="0px"
	 viewBox="0 0 511.976 511.976" style="enable-background:new 0 0 511.976 511.976;" xml:space="preserve">
<g>
	<g>
		<path d="M510.741,316.81c-5.355-29.632-29.739-54.101-59.328-59.541c-31.979-5.845-62.976,8.405-78.955,36.373
			c-1.749,3.072-5.141,4.992-9.728,4.992c-0.021,0-0.043,0-0.064,0v-96c0-29.419-23.936-53.333-53.333-53.333l-96-0.021
			c0-3.968,2.283-8.213,5.397-10.027C241.728,125.941,256,101.173,256,74.634c0-22.187-9.771-43.093-26.795-57.301
			C212.16,3.082,189.739-2.742,167.531,1.226c-29.632,5.333-54.123,29.717-59.563,59.328c-5.867,31.957,8.384,62.955,36.373,78.955
			c2.859,1.621,4.992,5.824,4.992,9.792h-96C23.936,149.301,0,173.215,0,202.634v256c0,29.419,23.936,53.333,53.333,53.333h96
			c11.755,0,21.333-9.557,21.333-22.229c0-11.349-6.037-21.867-15.744-27.413c-19.989-11.435-30.187-33.643-25.963-56.576
			c3.861-21.056,21.291-38.4,42.347-42.197c16.171-2.987,31.851,1.152,44.203,11.456c12.181,10.197,19.157,25.109,19.157,40.96
			c0,18.965-10.219,36.651-26.667,46.187c-9.856,5.76-16,16.32-16,28.48c0,11.776,9.579,21.333,21.333,21.333h96
			c29.397,0,53.333-23.915,53.333-53.333l0.896-96c3.755,0,7.168,2.027,9.131,5.419c13.333,22.976,38.101,37.248,64.64,37.248
			c22.187,0,43.093-9.771,57.323-26.795C508.885,361.461,514.752,338.975,510.741,316.81z M478.272,364.81
			c-10.176,12.181-25.088,19.157-40.939,19.157c-18.965,0-36.651-10.219-46.187-26.624c-5.717-9.899-16.299-16.043-28.48-16.043
			c-11.755,0-21.333,9.557-21.333,21.333v96c0,17.643-14.357,32-32,32l-96-0.896c0-3.776,2.027-7.189,5.397-9.152
			C241.728,467.274,256,442.506,256,415.967c0-22.187-9.771-43.093-26.816-57.301c-13.547-11.328-30.485-17.344-48-17.344
			c-4.544,0-9.109,0.427-13.696,1.237c-29.611,5.333-54.101,29.717-59.541,59.307c-5.867,31.979,8.384,62.976,36.373,78.976
			c3.093,1.749,5.013,5.163,5.013,9.792h-96c-17.643,0-32-14.357-32-32v-256c0-17.643,14.357-32,32-32h96
			c11.733,0,21.312-9.557,21.355-21.333c0-11.733-6.208-22.848-15.787-28.309c-19.989-11.435-30.165-33.643-25.963-56.576
			c3.883-21.056,21.291-38.4,42.368-42.197c16.171-2.987,31.851,1.152,44.203,11.456c12.181,10.197,19.157,25.109,19.157,40.96
			c0,18.965-10.197,36.651-26.645,46.187c-9.728,5.675-16.021,16.832-16.021,28.48c0,11.776,9.579,21.333,21.333,21.333h96
			c17.643,0,32,14.357,32,32v96c0,11.776,9.579,21.333,22.229,21.376c11.371,0,21.888-6.037,27.435-15.765
			c11.413-20.011,33.643-30.336,56.576-25.963c21.035,3.84,38.379,21.269,42.176,42.325
			C492.672,336.778,488.576,352.479,478.272,364.81z"/>
	</g>
</g>
<g>
</g>
<g>
</g>
<g>
</g>
<g>
</g>
<g>
</g>
<g>
</g>
<g>
</g>
<g>
</g>
<g>
</g>
<g>
</g>
<g>
</g>
<g>
</g>
<g>
</g>
<g>
</g>
<g>
</g>
</svg>
