<?xml version="1.0" encoding="iso-8859-1"?>
<!-- Generator: Adobe Illustrator 19.0.0, SVG Export Plug-In . SVG Version: 6.00 Build 0)  -->
<svg version="1.1" id="Capa_1" xmlns="http://www.w3.org/2000/svg" xmlns:xlink="http://www.w3.org/1999/xlink" x="0px" y="0px"
	 viewBox="0 0 512 512" style="enable-background:new 0 0 512 512;" xml:space="preserve">
<g>
	<g>
		<path d="M458.667,0H53.333C29.803,0,10.667,19.136,10.667,42.667c0,23.531,19.136,42.667,42.667,42.667h405.333
			c23.531,0,42.667-19.136,42.667-42.667C501.333,19.136,482.197,0,458.667,0z M458.667,64H53.333C41.579,64,32,54.443,32,42.667
			s9.579-21.333,21.333-21.333h405.333c11.755,0,21.333,9.557,21.333,21.333S470.421,64,458.667,64z"/>
	</g>
</g>
<g>
	<g>
		<path d="M448,64H64c-5.888,0-10.667,4.779-10.667,10.667v320c0,5.888,4.779,10.667,10.667,10.667h384
			c5.888,0,10.667-4.779,10.667-10.667v-320C458.667,68.779,453.888,64,448,64z M437.333,384H74.667V85.333h362.667V384z"/>
	</g>
</g>
<g>
	<g>
		<path d="M256,448c-17.643,0-32,14.357-32,32c0,17.643,14.357,32,32,32c17.643,0,32-14.357,32-32C288,462.357,273.643,448,256,448z
			 M256,490.667c-5.888,0-10.667-4.8-10.667-10.667c0-5.867,4.779-10.667,10.667-10.667s10.667,4.8,10.667,10.667
			C266.667,485.867,261.888,490.667,256,490.667z"/>
	</g>
</g>
<g>
	<g>
		<path d="M256,384c-5.888,0-10.667,4.779-10.667,10.667v64c0,5.888,4.779,10.667,10.667,10.667s10.667-4.779,10.667-10.667v-64
			C266.667,388.779,261.888,384,256,384z"/>
	</g>
</g>
<g>
</g>
<g>
</g>
<g>
</g>
<g>
</g>
<g>
</g>
<g>
</g>
<g>
</g>
<g>
</g>
<g>
</g>
<g>
</g>
<g>
</g>
<g>
</g>
<g>
</g>
<g>
</g>
<g>
</g>
</svg>
