<?xml version="1.0" encoding="iso-8859-1"?>
<!-- Generator: Adobe Illustrator 19.0.0, SVG Export Plug-In . SVG Version: 6.00 Build 0)  -->
<svg version="1.1" id="Capa_1" xmlns="http://www.w3.org/2000/svg" xmlns:xlink="http://www.w3.org/1999/xlink" x="0px" y="0px"
	 viewBox="0 0 512 512" style="enable-background:new 0 0 512 512;" xml:space="preserve">
<g>
	<g>
		<path d="M457.987,31.531c-2.709-6.997-13.035-8.533-17.749-3.499c-21.44,18.88-48.939,29.248-77.547,29.248
			c-39.424,0-75.989-19.627-97.771-52.501C262.937,1.792,259.609,0,256.025,0c-3.563,0-6.912,1.792-8.875,4.757
			c-21.845,32.875-58.411,52.501-97.835,52.501c-28.928,0-56.704-10.603-78.208-29.867c-3.115-2.816-7.616-3.499-11.477-1.792
			c-3.84,1.707-6.315,5.525-6.315,9.728v231.317c0,133.205,189.44,239.552,197.504,244.011c1.6,0.896,3.392,1.344,5.163,1.344
			c1.771,0,3.563-0.448,5.163-1.301c8.064-4.459,197.504-110.827,197.504-244.011v-230.4
			C458.777,34.688,458.563,33.067,457.987,31.531z M437.315,266.667c0,109.163-151.232,204.459-181.333,222.336
			C225.859,471.125,74.649,375.936,74.649,266.667V56.811c22.165,14.165,48,21.803,74.667,21.803
			c41.579,0,80.469-18.496,106.667-50.091c26.24,31.616,65.131,50.091,106.709,50.091c26.645,0,52.48-7.637,74.624-21.781V266.667z"
			/>
	</g>
</g>
<g>
	<g>
		<path d="M405.294,256H266.67V73.195c0-4.117-2.347-7.851-6.059-9.643c-3.733-1.749-8.128-1.259-11.285,1.323
			c-38.72,31.04-92.181,42.347-140.011,29.995c-3.179-0.853-6.592-0.149-9.216,1.899c-2.603,2.027-4.117,5.163-4.117,8.448
			l-0.021,161.451c0,2.837,1.109,5.568,3.115,7.552c2.005,1.984,4.715,3.115,7.552,3.115h138.731v174.208
			c0,3.883,2.133,7.467,5.547,9.344c1.6,0.875,3.371,1.323,5.12,1.323c2.005,0,3.989-0.555,5.739-1.685
			c36.203-23.168,154.219-105.579,154.197-193.856C415.961,260.779,411.182,256,405.294,256z M245.337,256H117.315V118.421
			c43.883,7.808,90.347-1.173,128.021-24.64V256z M266.691,431.637V277.333h127.232
			C386.755,331.243,327.257,389.803,266.691,431.637z"/>
	</g>
</g>
<g>
</g>
<g>
</g>
<g>
</g>
<g>
</g>
<g>
</g>
<g>
</g>
<g>
</g>
<g>
</g>
<g>
</g>
<g>
</g>
<g>
</g>
<g>
</g>
<g>
</g>
<g>
</g>
<g>
</g>
</svg>
