<?xml version="1.0" encoding="iso-8859-1"?>
<!-- Generator: Adobe Illustrator 19.0.0, SVG Export Plug-In . SVG Version: 6.00 Build 0)  -->
<svg version="1.1" id="Capa_1" xmlns="http://www.w3.org/2000/svg" xmlns:xlink="http://www.w3.org/1999/xlink" x="0px" y="0px"
	 viewBox="0 0 512 512" style="enable-background:new 0 0 512 512;" xml:space="preserve">
<g>
	<g>
		<path d="M437.333,277.333H234.667V74.667C234.667,68.779,229.888,64,224,64C100.48,64,0,164.48,0,288s100.48,224,224,224
			s224-100.48,224-224C448,282.112,443.221,277.333,437.333,277.333z M224,490.667c-111.744,0-202.667-90.923-202.667-202.667
			c0-108.16,85.184-196.821,192-202.389V288c0,5.888,4.779,10.667,10.667,10.667h202.389
			C420.821,405.483,332.16,490.667,224,490.667z"/>
	</g>
</g>
<g>
	<g>
		<path d="M288,0c-5.888,0-10.667,4.779-10.667,10.667V224c0,5.888,4.779,10.667,10.667,10.667h213.333
			c5.888,0,10.667-4.779,10.667-10.667C512,100.48,411.52,0,288,0z M298.667,213.333V21.611
			c103.275,5.397,186.325,88.448,191.723,191.723H298.667z"/>
	</g>
</g>
<g>
</g>
<g>
</g>
<g>
</g>
<g>
</g>
<g>
</g>
<g>
</g>
<g>
</g>
<g>
</g>
<g>
</g>
<g>
</g>
<g>
</g>
<g>
</g>
<g>
</g>
<g>
</g>
<g>
</g>
</svg>
