<?xml version="1.0" encoding="iso-8859-1"?>
<!-- Generator: Adobe Illustrator 19.0.0, SVG Export Plug-In . SVG Version: 6.00 Build 0)  -->
<svg version="1.1" id="Capa_1" xmlns="http://www.w3.org/2000/svg" xmlns:xlink="http://www.w3.org/1999/xlink" x="0px" y="0px"
	 viewBox="0 0 490.667 490.667" style="enable-background:new 0 0 490.667 490.667;" xml:space="preserve">
<g>
	<g>
		<path d="M245.333,213.333c-17.643,0-32,14.357-32,32c0,17.643,14.357,32,32,32c17.643,0,32-14.357,32-32
			C277.333,227.691,262.976,213.333,245.333,213.333z M245.333,256c-5.888,0-10.667-4.8-10.667-10.667
			c0-5.867,4.779-10.667,10.667-10.667S256,239.467,256,245.333C256,251.2,251.221,256,245.333,256z"/>
	</g>
</g>
<g>
	<g>
		<path d="M328.299,162.368c-4.16-4.16-10.923-4.16-15.083,0c-4.16,4.16-4.16,10.923,0,15.083
			c18.133,18.133,28.117,42.24,28.117,67.883c0,52.928-43.072,96-96,96c-52.928,0-96-43.072-96-96c0-52.928,43.072-96,96-96
			c5.888,0,10.667-4.779,10.667-10.667S251.221,128,245.333,128C180.629,128,128,180.651,128,245.333
			s52.629,117.333,117.333,117.333s117.333-52.651,117.333-117.333C362.667,213.973,350.464,184.512,328.299,162.368z"/>
	</g>
</g>
<g>
	<g>
		<path d="M373.547,117.099c-4.16-4.16-10.923-4.16-15.083,0c-4.16,4.16-4.16,10.923,0,15.083
			c30.229,30.229,46.869,70.421,46.869,113.152c0,88.235-71.765,160-160,160s-160-71.765-160-160s71.765-160,160-160
			c5.888,0,10.667-4.779,10.667-10.667S251.221,64,245.333,64C145.344,64,64,145.344,64,245.333s81.344,181.333,181.333,181.333
			s181.333-81.344,181.333-181.333C426.667,196.885,407.808,151.381,373.547,117.099z"/>
	</g>
</g>
<g>
	<g>
		<path d="M418.816,71.851c-4.16-4.16-10.923-4.16-15.083,0c-4.16,4.16-4.16,10.923,0,15.083c42.304,42.347,65.6,98.581,65.6,158.4
			c0,123.52-100.48,224-224,224s-224-100.48-224-224c0-119.936,94.741-218.176,213.333-223.744v223.744
			c0,5.888,4.779,10.667,10.667,10.667S256,251.221,256,245.333V10.667C256,4.779,251.221,0,245.333,0
			C110.059,0,0,110.059,0,245.333s110.059,245.333,245.333,245.333s245.333-110.059,245.333-245.333
			C490.667,179.819,465.152,118.208,418.816,71.851z"/>
	</g>
</g>
<g>
</g>
<g>
</g>
<g>
</g>
<g>
</g>
<g>
</g>
<g>
</g>
<g>
</g>
<g>
</g>
<g>
</g>
<g>
</g>
<g>
</g>
<g>
</g>
<g>
</g>
<g>
</g>
<g>
</g>
</svg>
