<?xml version="1.0" encoding="iso-8859-1"?>
<!-- Generator: Adobe Illustrator 19.0.0, SVG Export Plug-In . SVG Version: 6.00 Build 0)  -->
<svg version="1.1" id="Capa_1" xmlns="http://www.w3.org/2000/svg" xmlns:xlink="http://www.w3.org/1999/xlink" x="0px" y="0px"
	 viewBox="0 0 512 512" style="enable-background:new 0 0 512 512;" xml:space="preserve">
<g>
	<g>
		<path d="M437.333,192H74.667C33.493,192,0,225.493,0,266.667v170.667C0,478.507,33.493,512,74.667,512h362.667
			C478.507,512,512,478.507,512,437.333V266.667C512,225.493,478.507,192,437.333,192z M490.667,437.333
			c0,29.419-23.936,53.333-53.333,53.333H74.667c-29.397,0-53.333-23.915-53.333-53.333V266.667
			c0-29.419,23.936-53.333,53.333-53.333h362.667c29.397,0,53.333,23.915,53.333,53.333V437.333z"/>
	</g>
</g>
<g>
	<g>
		<path d="M160,234.667c-64.704,0-117.333,52.651-117.333,117.333S95.296,469.333,160,469.333S277.333,416.683,277.333,352
			S224.704,234.667,160,234.667z M160,448c-52.928,0-96-43.072-96-96s43.072-96,96-96s96,43.072,96,96S212.928,448,160,448z"/>
	</g>
</g>
<g>
	<g>
		<path d="M458.667,277.333H295.275c-5.888,0-10.667,4.779-10.667,10.667s4.779,10.667,10.667,10.667h163.392
			c5.888,0,10.667-4.779,10.667-10.667S464.555,277.333,458.667,277.333z"/>
	</g>
</g>
<g>
	<g>
		<path d="M458.667,341.333H309.333c-5.888,0-10.667,4.779-10.667,10.667c0,5.888,4.779,10.667,10.667,10.667h149.333
			c5.888,0,10.667-4.779,10.667-10.667C469.333,346.112,464.555,341.333,458.667,341.333z"/>
	</g>
</g>
<g>
	<g>
		<path d="M458.667,405.333H294.784c-5.888,0-10.667,4.779-10.667,10.667c0,5.888,4.779,10.667,10.667,10.667h163.883
			c5.888,0,10.667-4.779,10.667-10.667C469.333,410.112,464.555,405.333,458.667,405.333z"/>
	</g>
</g>
<g>
	<g>
		<path d="M160,320c-17.643,0-32,14.357-32,32c0,17.643,14.357,32,32,32s32-14.357,32-32C192,334.357,177.643,320,160,320z
			 M160,362.667c-5.888,0-10.667-4.8-10.667-10.667c0-5.867,4.779-10.667,10.667-10.667s10.667,4.8,10.667,10.667
			C170.667,357.867,165.888,362.667,160,362.667z"/>
	</g>
</g>
<g>
	<g>
		<path d="M500.352,16.875c-2.453-5.333-8.768-7.701-14.144-5.227L91.541,192.981c-5.333,2.453-7.701,8.789-5.227,14.144
			c1.792,3.904,5.653,6.208,9.685,6.208c1.493,0,3.008-0.32,4.459-0.981L495.125,31.019
			C500.459,28.565,502.827,22.229,500.352,16.875z"/>
	</g>
</g>
<g>
	<g>
		<path d="M490.667,0c-11.755,0-21.333,9.557-21.333,21.333s9.579,21.333,21.333,21.333S512,33.109,512,21.333S502.421,0,490.667,0z
			"/>
	</g>
</g>
<g>
</g>
<g>
</g>
<g>
</g>
<g>
</g>
<g>
</g>
<g>
</g>
<g>
</g>
<g>
</g>
<g>
</g>
<g>
</g>
<g>
</g>
<g>
</g>
<g>
</g>
<g>
</g>
<g>
</g>
</svg>
