<?xml version="1.0" encoding="iso-8859-1"?>
<!-- Generator: Adobe Illustrator 19.0.0, SVG Export Plug-In . SVG Version: 6.00 Build 0)  -->
<svg version="1.1" id="Capa_1" xmlns="http://www.w3.org/2000/svg" xmlns:xlink="http://www.w3.org/1999/xlink" x="0px" y="0px"
	 viewBox="0 0 512.005 512.005" style="enable-background:new 0 0 512.005 512.005;" xml:space="preserve">
<g>
	<g>
		<path d="M181.333,373.336c-29.419,0-53.333,23.936-53.333,53.333s23.915,53.333,53.333,53.333
			c29.419,0,53.333-23.936,53.333-53.333S210.752,373.336,181.333,373.336z M181.333,458.669c-17.643,0-32-14.357-32-32
			c0-17.643,14.357-32,32-32c17.643,0,32,14.357,32,32C213.333,444.312,198.976,458.669,181.333,458.669z"/>
	</g>
</g>
<g>
	<g>
		<path d="M251.541,330.669h-60.416c-25.344,0-47.339-18.027-52.288-42.88L85.12,19.245c-1.003-4.992-5.376-8.576-10.453-8.576h-64
			C4.779,10.669,0,15.448,0,21.336s4.779,10.667,10.667,10.667H65.92l51.989,259.989c6.976,34.773,37.739,60.011,73.216,60.011
			h60.416c5.888,0,10.667-4.779,10.667-10.667C262.208,335.448,257.429,330.669,251.541,330.669z"/>
	</g>
</g>
<g>
	<g>
		<path d="M509.397,78.338c-2.027-2.325-4.971-3.669-8.064-3.669H96c-3.136,0-6.101,1.365-8.149,3.776
			c-2.027,2.389-2.901,5.547-2.368,8.64l32,192c0.875,5.205,5.376,8.917,10.496,8.917c0.448,0,0.875-0.021,1.323-0.043
			l193.664-23.488c5.845-0.725,10.005-6.037,9.301-11.883c-0.725-5.867-6.144-10.069-11.883-9.323l-183.531,22.251L108.587,96.002
			h380.459l-17.301,120.939c-0.683,4.757-4.48,8.491-9.28,9.067l-29.397,3.563c-5.845,0.725-10.005,6.037-9.301,11.883
			c0.725,5.867,6.101,9.941,11.883,9.323l29.376-3.563c14.357-1.749,25.792-12.949,27.84-27.243l19.029-133.141
			C512.341,83.778,511.424,80.664,509.397,78.338z"/>
	</g>
</g>
<g>
	<g>
		<path d="M394.667,266.669c-64.683,0-117.333,52.629-117.333,117.333s52.651,117.333,117.333,117.333S512,448.706,512,384.002
			S459.349,266.669,394.667,266.669z M394.667,480.002c-52.928,0-96-43.072-96-96s43.072-96,96-96c52.928,0,96,43.072,96,96
			S447.595,480.002,394.667,480.002z"/>
	</g>
</g>
<g>
	<g>
		<path d="M437.333,373.336H352c-5.888,0-10.667,4.779-10.667,10.667s4.779,10.667,10.667,10.667h85.333
			c5.888,0,10.667-4.779,10.667-10.667S443.221,373.336,437.333,373.336z"/>
	</g>
</g>
<g>
</g>
<g>
</g>
<g>
</g>
<g>
</g>
<g>
</g>
<g>
</g>
<g>
</g>
<g>
</g>
<g>
</g>
<g>
</g>
<g>
</g>
<g>
</g>
<g>
</g>
<g>
</g>
<g>
</g>
</svg>
