<?xml version="1.0" encoding="iso-8859-1"?>
<!-- Generator: Adobe Illustrator 19.0.0, SVG Export Plug-In . SVG Version: 6.00 Build 0)  -->
<svg version="1.1" id="Capa_1" xmlns="http://www.w3.org/2000/svg" xmlns:xlink="http://www.w3.org/1999/xlink" x="0px" y="0px"
	 viewBox="0 0 512.061 512.061" style="enable-background:new 0 0 512.061 512.061;" xml:space="preserve">
<g>
	<g>
		<path d="M434.203,244.233c-51.968-53.867-126.229-82.133-220.864-84.096V64.03c0-4.309-2.603-8.213-6.592-9.856
			c-3.947-1.685-8.555-0.747-11.627,2.325l-192,192c-4.16,4.16-4.16,10.923,0,15.083l192,192c3.072,3.051,7.68,3.989,11.627,2.304
			c3.989-1.643,6.592-5.547,6.592-9.856v-95.936c214.336,3.157,278.315,100.587,278.933,101.547c1.984,3.2,5.44,5.056,9.067,5.056
			c0.917,0,1.835-0.107,2.731-0.363c4.544-1.195,7.765-5.227,7.936-9.92C512.176,443.55,515.376,328.393,434.203,244.233z
			 M202.672,330.697c-5.888,0-10.667,4.779-10.667,10.667v80.917L25.755,256.03L192.005,89.78v80.917
			c0,5.888,4.779,10.667,10.667,10.667c93.611,0,166.293,26.091,216,77.525c50.987,52.736,65.941,120.597,70.272,158.933
			C453.765,384.884,370.395,330.697,202.672,330.697z"/>
	</g>
</g>
<g>
</g>
<g>
</g>
<g>
</g>
<g>
</g>
<g>
</g>
<g>
</g>
<g>
</g>
<g>
</g>
<g>
</g>
<g>
</g>
<g>
</g>
<g>
</g>
<g>
</g>
<g>
</g>
<g>
</g>
</svg>
