<?xml version="1.0" encoding="iso-8859-1"?>
<!-- Generator: Adobe Illustrator 19.0.0, SVG Export Plug-In . SVG Version: 6.00 Build 0)  -->
<svg version="1.1" id="Capa_1" xmlns="http://www.w3.org/2000/svg" xmlns:xlink="http://www.w3.org/1999/xlink" x="0px" y="0px"
	 viewBox="0 0 512 512" style="enable-background:new 0 0 512 512;" xml:space="preserve">
<g>
	<g>
		<path d="M96,426.667c5.888,0,10.667-4.779,10.667-10.667V10.667C106.667,4.779,101.888,0,96,0H10.667C4.779,0,0,4.779,0,10.667
			v490.667C0,507.221,4.779,512,10.667,512H96c5.888,0,10.667-4.779,10.667-10.667c0-5.888-4.779-10.667-10.667-10.667H21.333
			V21.333h64V416C85.333,421.888,90.112,426.667,96,426.667z"/>
	</g>
</g>
<g>
	<g>
		<path d="M501.333,405.333H96c-5.888,0-10.667,4.779-10.667,10.667c0,5.888,4.779,10.667,10.667,10.667h394.667v64H96
			c-5.888,0-10.667,4.779-10.667,10.667C85.333,507.221,90.112,512,96,512h405.333c5.888,0,10.667-4.779,10.667-10.667V416
			C512,410.112,507.221,405.333,501.333,405.333z"/>
	</g>
</g>
<g>
	<g>
		<path d="M96,64H74.667C68.779,64,64,68.779,64,74.667s4.779,10.667,10.667,10.667h10.667V128H74.667
			C68.779,128,64,132.779,64,138.667s4.779,10.667,10.667,10.667h10.667V192h-32c-5.888,0-10.667,4.779-10.667,10.667
			s4.779,10.667,10.667,10.667h32V256H74.667C68.779,256,64,260.779,64,266.667s4.779,10.667,10.667,10.667h10.667V320H74.667
			C68.779,320,64,324.779,64,330.667s4.779,10.667,10.667,10.667h10.667V384h-32c-5.888,0-10.667,4.779-10.667,10.667
			s4.779,10.667,10.667,10.667H96c5.888,0,10.667-4.779,10.667-10.667v-320C106.667,68.779,101.888,64,96,64z"/>
	</g>
</g>
<g>
	<g>
		<path d="M437.333,405.333h-320c-5.888,0-10.667,4.779-10.667,10.667v42.667c0,5.888,4.779,10.667,10.667,10.667
			S128,464.555,128,458.667v-32h42.667v10.667c0,5.888,4.779,10.667,10.667,10.667S192,443.221,192,437.333v-10.667h42.667v10.667
			c0,5.888,4.779,10.667,10.667,10.667S256,443.221,256,437.333v-10.667h42.667v32c0,5.888,4.779,10.667,10.667,10.667
			S320,464.555,320,458.667v-32h42.667v10.667c0,5.888,4.779,10.667,10.667,10.667c5.888,0,10.667-4.779,10.667-10.667v-10.667
			h42.667v10.667c0,5.888,4.779,10.667,10.667,10.667c5.888,0,10.667-4.779,10.667-10.667V416
			C448,410.112,443.221,405.333,437.333,405.333z"/>
	</g>
</g>
<g>
	<g>
		<path d="M480,64H138.667C132.779,64,128,68.779,128,74.667s4.779,10.667,10.667,10.667H480c5.888,0,10.667-4.779,10.667-10.667
			S485.888,64,480,64z"/>
	</g>
</g>
<g>
	<g>
		<path d="M480,192H138.667c-5.888,0-10.667,4.779-10.667,10.667s4.779,10.667,10.667,10.667H480
			c5.888,0,10.667-4.779,10.667-10.667S485.888,192,480,192z"/>
	</g>
</g>
<g>
	<g>
		<path d="M480,320H138.667c-5.888,0-10.667,4.779-10.667,10.667s4.779,10.667,10.667,10.667H480
			c5.888,0,10.667-4.779,10.667-10.667S485.888,320,480,320z"/>
	</g>
</g>
<g>
	<g>
		<path d="M437.333,21.333c-5.888,0-10.667,4.779-10.667,10.667v341.333c0,5.888,4.779,10.667,10.667,10.667
			c5.888,0,10.667-4.779,10.667-10.667V32C448,26.112,443.221,21.333,437.333,21.333z"/>
	</g>
</g>
<g>
	<g>
		<path d="M309.333,21.333c-5.888,0-10.667,4.779-10.667,10.667v341.333c0,5.888,4.779,10.667,10.667,10.667
			S320,379.221,320,373.333V32C320,26.112,315.221,21.333,309.333,21.333z"/>
	</g>
</g>
<g>
	<g>
		<path d="M181.333,21.333c-5.888,0-10.667,4.779-10.667,10.667v341.333c0,5.888,4.779,10.667,10.667,10.667
			S192,379.221,192,373.333V32C192,26.112,187.221,21.333,181.333,21.333z"/>
	</g>
</g>
<g>
</g>
<g>
</g>
<g>
</g>
<g>
</g>
<g>
</g>
<g>
</g>
<g>
</g>
<g>
</g>
<g>
</g>
<g>
</g>
<g>
</g>
<g>
</g>
<g>
</g>
<g>
</g>
<g>
</g>
</svg>
