<?xml version="1.0" encoding="iso-8859-1"?>
<!-- Generator: Adobe Illustrator 19.0.0, SVG Export Plug-In . SVG Version: 6.00 Build 0)  -->
<svg version="1.1" id="Capa_1" xmlns="http://www.w3.org/2000/svg" xmlns:xlink="http://www.w3.org/1999/xlink" x="0px" y="0px"
	 viewBox="0 0 512 512" style="enable-background:new 0 0 512 512;" xml:space="preserve">
<g>
	<g>
		<path d="M458.667,213.333H53.333C23.915,213.333,0,237.269,0,266.667v42.667c0,29.397,23.915,53.333,53.333,53.333h405.333
			c29.419,0,53.333-23.936,53.333-53.333v-42.667C512,237.269,488.085,213.333,458.667,213.333z M490.667,309.333
			c0,17.643-14.357,32-32,32H53.333c-17.643,0-32-14.357-32-32v-42.667c0-17.643,14.357-32,32-32h405.333c17.643,0,32,14.357,32,32
			V309.333z"/>
	</g>
</g>
<g>
	<g>
		<path d="M74.667,256c-17.643,0-32,14.357-32,32s14.357,32,32,32c17.643,0,32-14.357,32-32S92.309,256,74.667,256z M74.667,298.667
			C68.8,298.667,64,293.888,64,288s4.8-10.667,10.667-10.667c5.867,0,10.667,4.779,10.667,10.667S80.533,298.667,74.667,298.667z"/>
	</g>
</g>
<g>
	<g>
		<path d="M437.333,256c-5.888,0-10.667,4.779-10.667,10.667v42.667c0,5.888,4.779,10.667,10.667,10.667
			c5.888,0,10.667-4.779,10.667-10.667v-42.667C448,260.779,443.221,256,437.333,256z"/>
	</g>
</g>
<g>
	<g>
		<path d="M394.667,256c-5.888,0-10.667,4.779-10.667,10.667v42.667c0,5.888,4.779,10.667,10.667,10.667s10.667-4.779,10.667-10.667
			v-42.667C405.333,260.779,400.555,256,394.667,256z"/>
	</g>
</g>
<g>
	<g>
		<path d="M352,256c-5.888,0-10.667,4.779-10.667,10.667v42.667c0,5.888,4.779,10.667,10.667,10.667
			c5.888,0,10.667-4.779,10.667-10.667v-42.667C362.667,260.779,357.888,256,352,256z"/>
	</g>
</g>
<g>
	<g>
		<path d="M309.333,256c-5.888,0-10.667,4.779-10.667,10.667v42.667c0,5.888,4.779,10.667,10.667,10.667S320,315.221,320,309.333
			v-42.667C320,260.779,315.221,256,309.333,256z"/>
	</g>
</g>
<g>
	<g>
		<path d="M458.667,42.667H53.333C23.915,42.667,0,66.603,0,96v42.667C0,168.064,23.915,192,53.333,192h405.333
			C488.085,192,512,168.064,512,138.667V96C512,66.603,488.085,42.667,458.667,42.667z M490.667,138.667c0,17.643-14.357,32-32,32
			H53.333c-17.643,0-32-14.357-32-32V96c0-17.643,14.357-32,32-32h405.333c17.643,0,32,14.357,32,32V138.667z"/>
	</g>
</g>
<g>
	<g>
		<path d="M74.667,85.333c-17.643,0-32,14.357-32,32c0,17.643,14.357,32,32,32c17.643,0,32-14.357,32-32
			C106.667,99.691,92.309,85.333,74.667,85.333z M74.667,128C68.8,128,64,123.221,64,117.333s4.8-10.667,10.667-10.667
			c5.867,0,10.667,4.779,10.667,10.667S80.533,128,74.667,128z"/>
	</g>
</g>
<g>
	<g>
		<path d="M437.333,85.333c-5.888,0-10.667,4.779-10.667,10.667v42.667c0,5.888,4.779,10.667,10.667,10.667
			c5.888,0,10.667-4.779,10.667-10.667V96C448,90.112,443.221,85.333,437.333,85.333z"/>
	</g>
</g>
<g>
	<g>
		<path d="M394.667,85.333C388.779,85.333,384,90.112,384,96v42.667c0,5.888,4.779,10.667,10.667,10.667s10.667-4.779,10.667-10.667
			V96C405.333,90.112,400.555,85.333,394.667,85.333z"/>
	</g>
</g>
<g>
	<g>
		<path d="M352,85.333c-5.888,0-10.667,4.779-10.667,10.667v42.667c0,5.888,4.779,10.667,10.667,10.667
			c5.888,0,10.667-4.779,10.667-10.667V96C362.667,90.112,357.888,85.333,352,85.333z"/>
	</g>
</g>
<g>
	<g>
		<path d="M309.333,85.333c-5.888,0-10.667,4.779-10.667,10.667v42.667c0,5.888,4.779,10.667,10.667,10.667S320,144.555,320,138.667
			V96C320,90.112,315.221,85.333,309.333,85.333z"/>
	</g>
</g>
<g>
	<g>
		<path d="M202.667,170.667c-5.888,0-10.667,4.779-10.667,10.667V224c0,5.888,4.779,10.667,10.667,10.667
			s10.667-4.779,10.667-10.667v-42.667C213.333,175.445,208.555,170.667,202.667,170.667z"/>
	</g>
</g>
<g>
	<g>
		<path d="M245.333,405.333h-10.667v-10.667c0-5.888-4.779-10.667-10.667-10.667h-42.667c-5.888,0-10.667,4.779-10.667,10.667
			v10.667H160c-5.888,0-10.667,4.779-10.667,10.667v42.667c0,5.888,4.779,10.667,10.667,10.667h85.333
			c5.888,0,10.667-4.779,10.667-10.667V416C256,410.112,251.221,405.333,245.333,405.333z M234.667,448h-64v-21.333h10.667
			c5.888,0,10.667-4.779,10.667-10.667v-10.667h21.333V416c0,5.888,4.779,10.667,10.667,10.667h10.667V448z"/>
	</g>
</g>
<g>
	<g>
		<path d="M202.667,341.333c-5.888,0-10.667,4.779-10.667,10.667v42.667c0,5.888,4.779,10.667,10.667,10.667
			s10.667-4.779,10.667-10.667V352C213.333,346.112,208.555,341.333,202.667,341.333z"/>
	</g>
</g>
<g>
	<g>
		<path d="M352,426.667H245.333c-5.888,0-10.667,4.779-10.667,10.667c0,5.888,4.779,10.667,10.667,10.667H352
			c5.888,0,10.667-4.779,10.667-10.667C362.667,431.445,357.888,426.667,352,426.667z"/>
	</g>
</g>
<g>
	<g>
		<path d="M160,426.667H53.333c-5.888,0-10.667,4.779-10.667,10.667c0,5.888,4.779,10.667,10.667,10.667H160
			c5.888,0,10.667-4.779,10.667-10.667C170.667,431.445,165.888,426.667,160,426.667z"/>
	</g>
</g>
<g>
</g>
<g>
</g>
<g>
</g>
<g>
</g>
<g>
</g>
<g>
</g>
<g>
</g>
<g>
</g>
<g>
</g>
<g>
</g>
<g>
</g>
<g>
</g>
<g>
</g>
<g>
</g>
<g>
</g>
</svg>
