<?xml version="1.0" encoding="iso-8859-1"?>
<!-- Generator: Adobe Illustrator 19.0.0, SVG Export Plug-In . SVG Version: 6.00 Build 0)  -->
<svg version="1.1" id="Capa_1" xmlns="http://www.w3.org/2000/svg" xmlns:xlink="http://www.w3.org/1999/xlink" x="0px" y="0px"
	 viewBox="0 0 512 512" style="enable-background:new 0 0 512 512;" xml:space="preserve">
<g>
	<g>
		<path d="M426.667,0c-47.061,0-85.333,38.272-85.333,85.333c0,47.061,38.272,85.333,85.333,85.333S512,132.395,512,85.333
			S473.728,0,426.667,0z M426.667,149.333c-35.285,0-64-28.715-64-64s28.715-64,64-64s64,28.715,64,64
			S461.952,149.333,426.667,149.333z"/>
	</g>
</g>
<g>
	<g>
		<path d="M426.667,341.333c-47.061,0-85.333,38.272-85.333,85.333S379.605,512,426.667,512S512,473.728,512,426.667
			S473.728,341.333,426.667,341.333z M426.667,490.667c-35.285,0-64-28.715-64-64s28.715-64,64-64s64,28.715,64,64
			S461.952,490.667,426.667,490.667z"/>
	</g>
</g>
<g>
	<g>
		<path d="M85.333,170.667C38.272,170.667,0,208.939,0,256s38.272,85.333,85.333,85.333s85.333-38.272,85.333-85.333
			S132.395,170.667,85.333,170.667z M85.333,320c-35.285,0-64-28.715-64-64s28.715-64,64-64s64,28.715,64,64S120.619,320,85.333,320
			z"/>
	</g>
</g>
<g>
	<g>
		<path d="M369.429,113.984c-2.667-5.291-9.024-7.381-14.315-4.779L147.371,213.077c-5.269,2.645-7.403,9.045-4.779,14.315
			c1.877,3.733,5.632,5.888,9.536,5.888c1.6,0,3.221-0.384,4.779-1.109l207.744-103.872
			C369.92,125.653,372.053,119.253,369.429,113.984z"/>
	</g>
</g>
<g>
	<g>
		<path d="M364.629,383.723L156.885,279.851c-5.248-2.56-11.669-0.512-14.315,4.779c-2.624,5.269-0.491,11.669,4.779,14.315
			l207.744,103.872c1.557,0.768,3.179,1.131,4.779,1.131c3.904,0,7.68-2.176,9.536-5.909
			C372.032,392.768,369.899,386.368,364.629,383.723z"/>
	</g>
</g>
<g>
</g>
<g>
</g>
<g>
</g>
<g>
</g>
<g>
</g>
<g>
</g>
<g>
</g>
<g>
</g>
<g>
</g>
<g>
</g>
<g>
</g>
<g>
</g>
<g>
</g>
<g>
</g>
<g>
</g>
</svg>
