<?xml version="1.0" encoding="iso-8859-1"?>
<!-- Generator: Adobe Illustrator 19.0.0, SVG Export Plug-In . SVG Version: 6.00 Build 0)  -->
<svg version="1.1" id="Capa_1" xmlns="http://www.w3.org/2000/svg" xmlns:xlink="http://www.w3.org/1999/xlink" x="0px" y="0px"
	 viewBox="0 0 512 512" style="enable-background:new 0 0 512 512;" xml:space="preserve">
<g>
	<g>
		<path d="M106.667,320H21.333c-5.888,0-10.667,4.779-10.667,10.667v170.667c0,5.888,4.779,10.667,10.667,10.667h85.333
			c5.888,0,10.667-4.779,10.667-10.667V330.667C117.333,324.779,112.555,320,106.667,320z M96,490.667H32V341.333h64V490.667z"/>
	</g>
</g>
<g>
	<g>
		<path d="M234.667,213.333h-85.333c-5.888,0-10.667,4.779-10.667,10.667v277.333c0,5.888,4.779,10.667,10.667,10.667h85.333
			c5.888,0,10.667-4.779,10.667-10.667V224C245.333,218.112,240.555,213.333,234.667,213.333z M224,490.667h-64v-256h64V490.667z"/>
	</g>
</g>
<g>
	<g>
		<path d="M362.667,106.667h-85.333c-5.888,0-10.667,4.779-10.667,10.667v384c0,5.888,4.779,10.667,10.667,10.667h85.333
			c5.888,0,10.667-4.779,10.667-10.667v-384C373.333,111.445,368.555,106.667,362.667,106.667z M352,490.667h-64V128h64V490.667z"/>
	</g>
</g>
<g>
	<g>
		<path d="M490.667,0h-85.333c-5.888,0-10.667,4.779-10.667,10.667v490.667c0,5.888,4.779,10.667,10.667,10.667h85.333
			c5.888,0,10.667-4.779,10.667-10.667V10.667C501.333,4.779,496.555,0,490.667,0z M480,490.667h-64V21.333h64V490.667z"/>
	</g>
</g>
<g>
</g>
<g>
</g>
<g>
</g>
<g>
</g>
<g>
</g>
<g>
</g>
<g>
</g>
<g>
</g>
<g>
</g>
<g>
</g>
<g>
</g>
<g>
</g>
<g>
</g>
<g>
</g>
<g>
</g>
</svg>
