<?xml version="1.0" encoding="iso-8859-1"?>
<!-- Generator: Adobe Illustrator 19.0.0, SVG Export Plug-In . SVG Version: 6.00 Build 0)  -->
<svg version="1.1" id="Capa_1" xmlns="http://www.w3.org/2000/svg" xmlns:xlink="http://www.w3.org/1999/xlink" x="0px" y="0px"
	 viewBox="0 0 512 512" style="enable-background:new 0 0 512 512;" xml:space="preserve">
<g>
	<g>
		<path d="M384,42.667H106.667c-2.837,0-5.547,1.131-7.552,3.136L56.448,88.469c-4.16,4.16-4.16,10.923,0,15.083l42.667,42.667
			c2.005,1.984,4.715,3.115,7.552,3.115H384c17.643,0,32-14.357,32-32V74.667C416,57.024,401.643,42.667,384,42.667z
			 M394.667,117.333C394.667,123.2,389.888,128,384,128H111.083l-32-32l32-32H384c5.888,0,10.667,4.8,10.667,10.667V117.333z"/>
	</g>
</g>
<g>
	<g>
		<path d="M455.552,237.781l-42.667-42.667c-2.005-1.984-4.715-3.115-7.552-3.115H128c-17.643,0-32,14.357-32,32v42.667
			c0,17.643,14.357,32,32,32h277.333c2.837,0,5.547-1.131,7.552-3.136l42.667-42.667
			C459.712,248.704,459.712,241.941,455.552,237.781z M400.917,277.333H128c-5.888,0-10.667-4.8-10.667-10.667V224
			c0-5.867,4.779-10.667,10.667-10.667h272.917l32,32L400.917,277.333z"/>
	</g>
</g>
<g>
	<g>
		<path d="M256,0c-5.888,0-10.667,4.779-10.667,10.667v42.667C245.333,59.221,250.112,64,256,64s10.667-4.779,10.667-10.667V10.667
			C266.667,4.779,261.888,0,256,0z"/>
	</g>
</g>
<g>
	<g>
		<path d="M256,128c-5.888,0-10.667,4.779-10.667,10.667v64c0,5.888,4.779,10.667,10.667,10.667s10.667-4.779,10.667-10.667v-64
			C266.667,132.779,261.888,128,256,128z"/>
	</g>
</g>
<g>
	<g>
		<path d="M256,277.333c-5.888,0-10.667,4.779-10.667,10.667v213.333c0,5.888,4.779,10.667,10.667,10.667
			s10.667-4.779,10.667-10.667V288C266.667,282.112,261.888,277.333,256,277.333z"/>
	</g>
</g>
<g>
	<g>
		<path d="M320,490.667H192c-5.888,0-10.667,4.779-10.667,10.667c0,5.888,4.779,10.667,10.667,10.667h128
			c5.888,0,10.667-4.779,10.667-10.667C330.667,495.445,325.888,490.667,320,490.667z"/>
	</g>
</g>
<g>
</g>
<g>
</g>
<g>
</g>
<g>
</g>
<g>
</g>
<g>
</g>
<g>
</g>
<g>
</g>
<g>
</g>
<g>
</g>
<g>
</g>
<g>
</g>
<g>
</g>
<g>
</g>
<g>
</g>
</svg>
