<?xml version="1.0" encoding="iso-8859-1"?>
<!-- Generator: Adobe Illustrator 19.0.0, SVG Export Plug-In . SVG Version: 6.00 Build 0)  -->
<svg version="1.1" id="Capa_1" xmlns="http://www.w3.org/2000/svg" xmlns:xlink="http://www.w3.org/1999/xlink" x="0px" y="0px"
	 viewBox="0 0 512 512" style="enable-background:new 0 0 512 512;" xml:space="preserve">
<g>
	<g>
		<path d="M466.219,109.781L359.552,3.115C357.547,1.131,354.837,0,352,0H96C66.603,0,42.667,23.915,42.667,53.333v405.333
			C42.667,488.085,66.603,512,96,512h320c29.397,0,53.333-23.915,53.333-53.333V117.333
			C469.333,114.496,468.203,111.787,466.219,109.781z M448,458.667c0,17.643-14.357,32-32,32H96c-17.643,0-32-14.357-32-32V53.333
			c0-17.643,14.357-32,32-32h251.584L448,121.749V458.667z"/>
	</g>
</g>
<g>
	<g>
		<path d="M288,106.667H160c-41.173,0-74.667,33.493-74.667,74.667v213.333c0,41.173,33.493,74.667,74.667,74.667h128
			c41.173,0,74.667-33.493,74.667-74.667V181.333C362.667,140.16,329.173,106.667,288,106.667z M341.333,394.667
			C341.333,424.085,317.397,448,288,448H160c-29.397,0-53.333-23.915-53.333-53.333V181.333C106.667,151.915,130.603,128,160,128
			h128c29.397,0,53.333,23.915,53.333,53.333V394.667z"/>
	</g>
</g>
<g>
	<g>
		<path d="M181.333,362.667c-5.888,0-10.667,4.779-10.667,10.667v85.333c0,5.888,4.779,10.667,10.667,10.667
			S192,464.555,192,458.667v-85.333C192,367.445,187.221,362.667,181.333,362.667z"/>
	</g>
</g>
<g>
	<g>
		<path d="M266.667,362.667c-5.888,0-10.667,4.779-10.667,10.667v85.333c0,5.888,4.779,10.667,10.667,10.667
			s10.667-4.779,10.667-10.667v-85.333C277.333,367.445,272.555,362.667,266.667,362.667z"/>
	</g>
</g>
<g>
	<g>
		<path d="M181.333,106.667c-5.888,0-10.667,4.779-10.667,10.667v85.333c0,5.888,4.779,10.667,10.667,10.667
			S192,208.555,192,202.667v-85.333C192,111.445,187.221,106.667,181.333,106.667z"/>
	</g>
</g>
<g>
	<g>
		<path d="M266.667,106.667c-5.888,0-10.667,4.779-10.667,10.667v85.333c0,5.888,4.779,10.667,10.667,10.667
			s10.667-4.779,10.667-10.667v-85.333C277.333,111.445,272.555,106.667,266.667,106.667z"/>
	</g>
</g>
<g>
	<g>
		<path d="M138.667,277.333H96c-5.888,0-10.667,4.779-10.667,10.667S90.112,298.667,96,298.667h42.667
			c5.888,0,10.667-4.779,10.667-10.667S144.555,277.333,138.667,277.333z"/>
	</g>
</g>
<g>
	<g>
		<path d="M352,277.333h-42.667c-5.888,0-10.667,4.779-10.667,10.667s4.779,10.667,10.667,10.667H352
			c5.888,0,10.667-4.779,10.667-10.667S357.888,277.333,352,277.333z"/>
	</g>
</g>
<g>
</g>
<g>
</g>
<g>
</g>
<g>
</g>
<g>
</g>
<g>
</g>
<g>
</g>
<g>
</g>
<g>
</g>
<g>
</g>
<g>
</g>
<g>
</g>
<g>
</g>
<g>
</g>
<g>
</g>
</svg>
