<?xml version="1.0" encoding="iso-8859-1"?>
<!-- Generator: Adobe Illustrator 19.0.0, SVG Export Plug-In . SVG Version: 6.00 Build 0)  -->
<svg version="1.1" id="Capa_1" xmlns="http://www.w3.org/2000/svg" xmlns:xlink="http://www.w3.org/1999/xlink" x="0px" y="0px"
	 viewBox="0 0 490.675 490.675" style="enable-background:new 0 0 490.675 490.675;" xml:space="preserve">
<g>
	<g>
		<path d="M490.17,188.34c-1.408-4.395-5.525-7.403-10.155-7.403H306.532L255.524,17.759c-2.773-8.917-17.579-8.917-20.352,0
			l-51.008,163.179H10.681c-4.629,0-8.747,3.008-10.176,7.403c-1.408,4.416,0.192,9.259,3.968,11.947l142.677,101.888
			l-61.12,163.008c-1.643,4.395-0.235,9.344,3.499,12.203c3.712,2.837,8.875,2.944,12.693,0.213L245.348,375.37L388.474,477.62
			c1.856,1.323,4.032,1.984,6.208,1.984c2.283,0,4.587-0.747,6.464-2.197c3.733-2.859,5.141-7.808,3.499-12.203l-61.12-163.008
			l142.677-101.909C489.978,197.599,491.578,192.756,490.17,188.34z M324.516,289.567c-3.925,2.816-5.504,7.915-3.797,12.437
			l51.712,137.899l-120.875-86.315c-1.856-1.323-4.032-1.984-6.208-1.984s-4.352,0.661-6.187,2.005l-120.875,86.315l51.712-137.899
			c1.685-4.544,0.128-9.643-3.797-12.437l-122.24-87.317h148.053c4.672,0,8.789-3.029,10.176-7.488l43.157-138.091l43.157,138.091
			c1.387,4.459,5.504,7.488,10.176,7.488h148.053L324.516,289.567z"/>
	</g>
</g>
<g>
</g>
<g>
</g>
<g>
</g>
<g>
</g>
<g>
</g>
<g>
</g>
<g>
</g>
<g>
</g>
<g>
</g>
<g>
</g>
<g>
</g>
<g>
</g>
<g>
</g>
<g>
</g>
<g>
</g>
</svg>
