<?xml version="1.0" encoding="iso-8859-1"?>
<!-- Generator: Adobe Illustrator 19.0.0, SVG Export Plug-In . SVG Version: 6.00 Build 0)  -->
<svg version="1.1" id="Capa_1" xmlns="http://www.w3.org/2000/svg" xmlns:xlink="http://www.w3.org/1999/xlink" x="0px" y="0px"
	 viewBox="0 0 512 512" style="enable-background:new 0 0 512 512;" xml:space="preserve">
<g>
	<g>
		<path d="M437.333,106.667H74.667C33.493,106.667,0,140.16,0,181.333v213.333c0,41.173,33.493,74.667,74.667,74.667h362.667
			c41.173,0,74.667-33.493,74.667-74.667V181.333C512,140.16,478.507,106.667,437.333,106.667z M490.667,394.667
			c0,29.419-23.915,53.333-53.333,53.333H74.667c-29.419,0-53.333-23.915-53.333-53.333V181.333
			c0-29.419,23.915-53.333,53.333-53.333h362.667c29.419,0,53.333,23.915,53.333,53.333V394.667z"/>
	</g>
</g>
<g>
	<g>
		<path d="M309.333,42.667H202.667c-17.643,0-32,14.357-32,32v42.667c0,5.888,4.779,10.667,10.667,10.667h149.333
			c5.888,0,10.667-4.779,10.667-10.667V74.667C341.333,57.024,326.976,42.667,309.333,42.667z M320,106.667H192v-32
			C192,68.8,196.8,64,202.667,64h106.667C315.2,64,320,68.8,320,74.667V106.667z"/>
	</g>
</g>
<g>
	<g>
		<path d="M138.667,106.667H96c-5.888,0-10.667,4.779-10.667,10.667v341.333c0,5.888,4.779,10.667,10.667,10.667h42.667
			c5.888,0,10.667-4.779,10.667-10.667V117.333C149.333,111.445,144.555,106.667,138.667,106.667z M128,448h-21.333V128H128V448z"/>
	</g>
</g>
<g>
	<g>
		<path d="M416,106.667h-42.667c-5.888,0-10.667,4.779-10.667,10.667v341.333c0,5.888,4.779,10.667,10.667,10.667H416
			c5.888,0,10.667-4.779,10.667-10.667V117.333C426.667,111.445,421.888,106.667,416,106.667z M405.333,448H384V128h21.333V448z"/>
	</g>
</g>
<g>
</g>
<g>
</g>
<g>
</g>
<g>
</g>
<g>
</g>
<g>
</g>
<g>
</g>
<g>
</g>
<g>
</g>
<g>
</g>
<g>
</g>
<g>
</g>
<g>
</g>
<g>
</g>
<g>
</g>
</svg>
