<?xml version="1.0" encoding="iso-8859-1"?>
<!-- Generator: Adobe Illustrator 19.0.0, SVG Export Plug-In . SVG Version: 6.00 Build 0)  -->
<svg version="1.1" id="Capa_1" xmlns="http://www.w3.org/2000/svg" xmlns:xlink="http://www.w3.org/1999/xlink" x="0px" y="0px"
	 viewBox="0 0 490.667 490.667" style="enable-background:new 0 0 490.667 490.667;" xml:space="preserve">
<g>
	<g>
		<path d="M245.333,128C180.629,128,128,180.629,128,245.333s52.629,117.333,117.333,117.333s117.333-52.629,117.333-117.333
			S310.037,128,245.333,128z M245.333,341.333c-52.928,0-96-43.072-96-96c0-52.928,43.072-96,96-96c52.928,0,96,43.072,96,96
			C341.333,298.261,298.261,341.333,245.333,341.333z"/>
	</g>
</g>
<g>
	<g>
		<path d="M245.333,0c-5.888,0-10.667,4.779-10.667,10.667V96c0,5.888,4.779,10.667,10.667,10.667S256,101.888,256,96V10.667
			C256,4.779,251.221,0,245.333,0z"/>
	</g>
</g>
<g>
	<g>
		<path d="M245.333,384c-5.888,0-10.667,4.779-10.667,10.667V480c0,5.888,4.779,10.667,10.667,10.667S256,485.888,256,480v-85.333
			C256,388.779,251.221,384,245.333,384z"/>
	</g>
</g>
<g>
	<g>
		<path d="M480,234.667h-85.333c-5.888,0-10.667,4.779-10.667,10.667S388.779,256,394.667,256H480
			c5.888,0,10.667-4.779,10.667-10.667S485.888,234.667,480,234.667z"/>
	</g>
</g>
<g>
	<g>
		<path d="M96,234.667H10.667C4.779,234.667,0,239.445,0,245.333S4.779,256,10.667,256H96c5.888,0,10.667-4.779,10.667-10.667
			S101.888,234.667,96,234.667z"/>
	</g>
</g>
<g>
	<g>
		<path d="M418.795,403.733l-60.352-60.352c-4.16-4.16-10.923-4.16-15.083,0c-4.16,4.16-4.16,10.923,0,15.083l60.352,60.352
			c2.091,2.069,4.821,3.115,7.552,3.115c2.731,0,5.461-1.045,7.531-3.115C422.955,414.656,422.955,407.893,418.795,403.733z"/>
	</g>
</g>
<g>
	<g>
		<path d="M147.285,132.203L86.933,71.851c-4.16-4.16-10.923-4.16-15.083,0c-4.16,4.16-4.16,10.923,0,15.083l60.331,60.352
			c2.091,2.069,4.821,3.115,7.552,3.115s5.461-1.045,7.552-3.115C151.445,143.125,151.445,136.363,147.285,132.203z"/>
	</g>
</g>
<g>
	<g>
		<path d="M418.816,71.851c-4.16-4.16-10.923-4.16-15.083,0l-60.352,60.352c-4.16,4.16-4.16,10.923,0,15.083
			c2.091,2.069,4.821,3.115,7.552,3.115s5.461-1.045,7.531-3.115l60.352-60.352C422.976,82.773,422.976,76.011,418.816,71.851z"/>
	</g>
</g>
<g>
	<g>
		<path d="M147.285,343.381c-4.16-4.16-10.923-4.16-15.083,0l-60.352,60.352c-4.16,4.16-4.16,10.923,0,15.083
			c2.091,2.069,4.821,3.115,7.552,3.115c2.731,0,5.461-1.045,7.531-3.115l60.352-60.352
			C151.445,354.304,151.445,347.541,147.285,343.381z"/>
	</g>
</g>
<g>
</g>
<g>
</g>
<g>
</g>
<g>
</g>
<g>
</g>
<g>
</g>
<g>
</g>
<g>
</g>
<g>
</g>
<g>
</g>
<g>
</g>
<g>
</g>
<g>
</g>
<g>
</g>
<g>
</g>
</svg>
