<?xml version="1.0" encoding="iso-8859-1"?>
<!-- Generator: Adobe Illustrator 19.0.0, SVG Export Plug-In . SVG Version: 6.00 Build 0)  -->
<svg version="1.1" id="Capa_1" xmlns="http://www.w3.org/2000/svg" xmlns:xlink="http://www.w3.org/1999/xlink" x="0px" y="0px"
	 viewBox="0 0 512.012 512.012" style="enable-background:new 0 0 512.012 512.012;" xml:space="preserve">
<g>
	<g>
		<path d="M508.892,152.475l-27.584-27.584c-4.16-4.16-10.923-4.16-15.083,0c-6.208,6.187-18.219,1.173-18.219-7.552
			c0-2.859,1.109-5.525,3.136-7.531c4.16-4.16,4.16-10.923,0-15.083l-33.835-33.835c-4.16-4.16-10.923-4.16-15.083,0
			c-6.187,6.187-18.219,1.173-18.219-7.552c0-2.859,1.109-5.525,3.136-7.552c4.16-4.16,4.16-10.923,0-15.083L359.558,3.121
			c-2.005-1.984-4.715-3.115-7.552-3.115h-0.021c-2.859,0-5.568,1.152-7.595,3.157C215.644,133.425,20.785,329.649,5.19,342.854
			c-1.237,0.747-2.325,1.728-3.2,2.965c-3.029,4.267-2.56,10.048,1.131,13.739l149.333,149.333c2.091,2.069,4.821,3.115,7.552,3.115
			s5.461-1.045,7.552-3.115l341.333-341.333C513.052,163.398,513.052,156.635,508.892,152.475z M160.006,486.257L25.67,351.899
			c27.733-24.107,102.613-99.712,326.379-326.101l13.739,13.739c-2.027,4.267-3.115,8.939-3.115,13.803c0,17.643,14.357,32,32,32
			c4.864,0,9.536-1.088,13.824-3.093l21.291,21.291c-2.027,4.267-3.115,8.939-3.115,13.803c0,17.643,14.357,32,32,32
			c4.864,0,9.536-1.088,13.803-3.115l13.781,13.781L160.006,486.257z"/>
	</g>
</g>
<g>
	<g>
		<path d="M210.204,237.809c-4.16-4.16-10.923-4.16-15.083,0L88.454,344.475c-4.16,4.16-4.16,10.923,0,15.083
			c2.091,2.069,4.821,3.115,7.552,3.115s5.461-1.045,7.531-3.115l106.667-106.667C214.364,248.731,214.364,241.968,210.204,237.809z
			"/>
	</g>
</g>
<g>
	<g>
		<path d="M338.204,195.142c-4.16-4.16-10.923-4.16-15.083,0l-192,192c-4.16,4.16-4.16,10.923,0,15.083
			c2.091,2.069,4.821,3.115,7.552,3.115s5.461-1.045,7.531-3.115l192-192C342.364,206.064,342.364,199.302,338.204,195.142z"/>
	</g>
</g>
<g>
</g>
<g>
</g>
<g>
</g>
<g>
</g>
<g>
</g>
<g>
</g>
<g>
</g>
<g>
</g>
<g>
</g>
<g>
</g>
<g>
</g>
<g>
</g>
<g>
</g>
<g>
</g>
<g>
</g>
</svg>
