<?xml version="1.0" encoding="iso-8859-1"?>
<!-- Generator: Adobe Illustrator 19.0.0, SVG Export Plug-In . SVG Version: 6.00 Build 0)  -->
<svg version="1.1" id="Capa_1" xmlns="http://www.w3.org/2000/svg" xmlns:xlink="http://www.w3.org/1999/xlink" x="0px" y="0px"
	 viewBox="0 0 490.667 490.667" style="enable-background:new 0 0 490.667 490.667;" xml:space="preserve">
<g>
	<g>
		<path d="M330.667,85.333H160c-88.235,0-160,71.765-160,160s71.765,160,160,160h170.667c88.235,0,160-71.765,160-160
			S418.901,85.333,330.667,85.333z M330.667,384H160c-76.459,0-138.667-62.208-138.667-138.667S83.541,106.667,160,106.667h170.667
			c76.459,0,138.667,62.208,138.667,138.667S407.125,384,330.667,384z"/>
	</g>
</g>
<g>
	<g>
		<path d="M330.667,128c-64.704,0-117.333,52.629-117.333,117.333s52.629,117.333,117.333,117.333S448,310.037,448,245.333
			S395.371,128,330.667,128z M330.667,341.333c-52.928,0-96-43.072-96-96s43.072-96,96-96s96,43.072,96,96
			S383.595,341.333,330.667,341.333z"/>
	</g>
</g>
<g>
</g>
<g>
</g>
<g>
</g>
<g>
</g>
<g>
</g>
<g>
</g>
<g>
</g>
<g>
</g>
<g>
</g>
<g>
</g>
<g>
</g>
<g>
</g>
<g>
</g>
<g>
</g>
<g>
</g>
</svg>
