<?xml version="1.0" encoding="iso-8859-1"?>
<!-- Generator: Adobe Illustrator 19.0.0, SVG Export Plug-In . SVG Version: 6.00 Build 0)  -->
<svg version="1.1" id="Capa_1" xmlns="http://www.w3.org/2000/svg" xmlns:xlink="http://www.w3.org/1999/xlink" x="0px" y="0px"
	 viewBox="0 0 511.984 511.984" style="enable-background:new 0 0 511.984 511.984;" xml:space="preserve">
<g>
	<g>
		<path d="M330.667,149.317h-320C4.779,149.317,0,154.096,0,159.984v298.667c0,29.397,23.915,53.333,53.333,53.333H288
			c29.419,0,53.333-23.936,53.333-53.333V159.984C341.333,154.096,336.555,149.317,330.667,149.317z M320,458.651
			c0,17.643-14.357,32-32,32H53.333c-17.643,0-32-14.357-32-32v-288H320V458.651z"/>
	</g>
</g>
<g>
	<g>
		<path d="M508.864,259.568l-8.299-8.299c5.739-8.64,8.832-18.795,8.832-29.419c0-14.251-5.525-27.648-15.616-37.717L327.851,18.203
			c-18.197-18.219-46.421-20.459-67.115-6.784l-8.299-8.299c-4.16-4.16-10.923-4.16-15.083,0l-30.165,30.165
			c-4.16,4.16-4.16,10.923,0,15.083l256.427,256.448c2.005,1.984,4.715,3.115,7.552,3.115s5.547-1.131,7.531-3.115l30.165-30.165
			C513.024,270.491,513.024,263.728,508.864,259.568z M478.677,259.547l7.552,7.552l-15.083,15.083L229.803,40.816l15.061-15.104
			l7.552,7.552c4.16,4.16,10.923,4.16,15.083,0c12.459-12.459,32.789-12.459,45.248,0l165.931,165.931
			c6.037,6.059,9.365,14.08,9.365,22.635c0,8.555-3.328,16.597-9.365,22.635C474.517,248.624,474.517,255.387,478.677,259.547z"/>
	</g>
</g>
<g>
	<g>
		<path d="M74.667,213.317c-5.888,0-10.667,4.779-10.667,10.667v213.333c0,5.888,4.779,10.667,10.667,10.667
			s10.667-4.779,10.667-10.667V223.984C85.333,218.096,80.555,213.317,74.667,213.317z"/>
	</g>
</g>
<g>
	<g>
		<path d="M170.667,213.317c-5.888,0-10.667,4.779-10.667,10.667v213.333c0,5.888,4.779,10.667,10.667,10.667
			s10.667-4.779,10.667-10.667V223.984C181.333,218.096,176.555,213.317,170.667,213.317z"/>
	</g>
</g>
<g>
	<g>
		<path d="M266.667,213.317c-5.888,0-10.667,4.779-10.667,10.667v213.333c0,5.888,4.779,10.667,10.667,10.667
			s10.667-4.779,10.667-10.667V223.984C277.333,218.096,272.555,213.317,266.667,213.317z"/>
	</g>
</g>
<g>
	<g>
		<path d="M224,106.651h-33.067c-4.949-24.32-26.517-42.667-52.267-42.667S91.349,82.331,86.4,106.651H74.667
			c-29.419,0-53.333,23.936-53.333,53.333c0,5.888,4.779,10.667,10.667,10.667s10.667-4.779,10.667-10.667c0-17.643,14.357-32,32-32
			H96c5.888,0,10.667-4.779,10.667-10.667c0-17.643,14.357-32,32-32c17.643,0,32,14.357,32,32c0,5.888,4.779,10.667,10.667,10.667
			H224c17.643,0,32,14.357,32,32c0,5.888,4.779,10.667,10.667,10.667s10.667-4.779,10.667-10.667
			C277.333,130.587,253.419,106.651,224,106.651z"/>
	</g>
</g>
<g>
</g>
<g>
</g>
<g>
</g>
<g>
</g>
<g>
</g>
<g>
</g>
<g>
</g>
<g>
</g>
<g>
</g>
<g>
</g>
<g>
</g>
<g>
</g>
<g>
</g>
<g>
</g>
<g>
</g>
</svg>
