<?xml version="1.0" encoding="iso-8859-1"?>
<!-- Generator: Adobe Illustrator 19.0.0, SVG Export Plug-In . SVG Version: 6.00 Build 0)  -->
<svg version="1.1" id="Capa_1" xmlns="http://www.w3.org/2000/svg" xmlns:xlink="http://www.w3.org/1999/xlink" x="0px" y="0px"
	 viewBox="0 0 512 512" style="enable-background:new 0 0 512 512;" xml:space="preserve">
<g>
	<g>
		<path d="M181.342,0H10.675C4.787,0,0.009,4.779,0.009,10.667s4.779,10.667,10.667,10.667h170.667
			c5.888,0,10.667-4.779,10.667-10.667S187.23,0,181.342,0z"/>
	</g>
</g>
<g>
	<g>
		<path d="M181.342,490.667H10.675c-5.888,0-10.667,4.779-10.667,10.667c0,5.888,4.779,10.667,10.667,10.667h170.667
			c5.888,0,10.667-4.779,10.667-10.667C192.009,495.445,187.23,490.667,181.342,490.667z"/>
	</g>
</g>
<g>
	<g>
		<path d="M96.009,0c-5.888,0-10.667,4.779-10.667,10.667v490.667c0,5.888,4.779,10.667,10.667,10.667s10.667-4.779,10.667-10.667
			V10.667C106.675,4.779,101.897,0,96.009,0z"/>
	</g>
</g>
<g>
	<g>
		<path d="M510.985,411.477l-149.333-320c-3.499-7.531-15.829-7.531-19.328,0l-149.333,320c-2.475,5.333-0.171,11.691,5.163,14.187
			c5.376,2.496,11.691,0.171,14.187-5.163l139.669-299.285l139.648,299.285c1.813,3.883,5.675,6.165,9.685,6.165
			c1.515,0,3.051-0.32,4.48-1.003C511.177,423.168,513.481,416.811,510.985,411.477z"/>
	</g>
</g>
<g>
	<g>
		<path d="M437.342,277.333H266.675c-5.888,0-10.667,4.779-10.667,10.667s4.779,10.667,10.667,10.667h170.667
			c5.888,0,10.667-4.779,10.667-10.667S443.23,277.333,437.342,277.333z"/>
	</g>
</g>
<g>
</g>
<g>
</g>
<g>
</g>
<g>
</g>
<g>
</g>
<g>
</g>
<g>
</g>
<g>
</g>
<g>
</g>
<g>
</g>
<g>
</g>
<g>
</g>
<g>
</g>
<g>
</g>
<g>
</g>
</svg>
