<?xml version="1.0" encoding="iso-8859-1"?>
<!-- Generator: Adobe Illustrator 19.0.0, SVG Export Plug-In . SVG Version: 6.00 Build 0)  -->
<svg version="1.1" id="Capa_1" xmlns="http://www.w3.org/2000/svg" xmlns:xlink="http://www.w3.org/1999/xlink" x="0px" y="0px"
	 viewBox="0 0 512 512" style="enable-background:new 0 0 512 512;" xml:space="preserve">
<g>
	<g>
		<path d="M479.979,212.587C471.637,93.376,373.248,0,256,0S40.363,93.376,32.021,212.608c-0.341,4.779,2.581,9.195,7.104,10.795
			c4.544,1.557,9.579-0.043,12.309-3.989C60.203,206.763,77.141,192,96,192c19.648,0,35.819,14.037,44.416,27.157
			c1.963,3.029,5.312,4.843,8.917,4.843s6.955-1.813,8.917-4.821C166.848,206.037,183.04,192,202.667,192
			c19.648,0,35.819,14.037,44.416,27.157c1.963,3.029,5.312,4.843,8.917,4.843c3.584,0,6.955-1.813,8.917-4.821
			C273.515,206.037,289.707,192,309.333,192c19.648,0,35.819,14.037,44.416,27.157c1.963,3.029,5.312,4.843,8.917,4.843
			c3.584,0,6.955-1.813,8.917-4.821C380.181,206.037,396.373,192,416,192c18.859,0,35.797,14.763,44.565,27.413
			c2.048,2.923,5.333,4.587,8.768,4.587c1.195,0,2.368-0.192,3.541-0.619C477.397,221.803,480.32,217.365,479.979,212.587z
			 M416,170.667c-19.584,0-38.763,9.259-53.355,25.301c-14.592-15.872-34.048-25.301-53.312-25.301
			c-19.584,0-38.763,9.259-53.355,25.301c-14.592-15.872-34.048-25.301-53.312-25.301c-19.584,0-38.763,9.259-53.355,25.301
			C134.72,180.096,115.264,170.667,96,170.667c-14.251,0-27.307,5.248-38.272,12.779C78.229,90.432,160.149,21.333,256,21.333
			s177.771,69.099,198.272,162.112C443.307,175.915,430.251,170.667,416,170.667z"/>
	</g>
</g>
<g>
	<g>
		<path d="M341.333,448c-5.888,0-10.667,4.779-10.667,10.667c0,17.643-14.357,32-32,32s-32-14.357-32-32V213.333
			c0-5.888-4.779-10.667-10.667-10.667s-10.667,4.779-10.667,10.667v245.333c0,29.397,23.936,53.333,53.333,53.333
			S352,488.064,352,458.667C352,452.779,347.221,448,341.333,448z"/>
	</g>
</g>
<g>
</g>
<g>
</g>
<g>
</g>
<g>
</g>
<g>
</g>
<g>
</g>
<g>
</g>
<g>
</g>
<g>
</g>
<g>
</g>
<g>
</g>
<g>
</g>
<g>
</g>
<g>
</g>
<g>
</g>
</svg>
