<?xml version="1.0" encoding="iso-8859-1"?>
<!-- Generator: Adobe Illustrator 19.0.0, SVG Export Plug-In . SVG Version: 6.00 Build 0)  -->
<svg version="1.1" id="Capa_1" xmlns="http://www.w3.org/2000/svg" xmlns:xlink="http://www.w3.org/1999/xlink" x="0px" y="0px"
	 viewBox="0 0 490.667 490.667" style="enable-background:new 0 0 490.667 490.667;" xml:space="preserve">
<g>
	<g>
		<path d="M482.368,318.04l-44.971-61.589c-10.005-13.675-26.112-21.867-43.072-21.867h-20.992c-5.888,0-10.667,4.779-10.667,10.667
			s4.779,10.667,10.667,10.667h20.992c10.176,0,19.84,4.885,25.856,13.12l46.037,62.827c1.984,1.984,3.115,4.736,3.115,7.552v97.835
			c0,17.643-14.357,32-32,32h-384c-17.643,0-32-14.357-32-32v-97.835c0-2.816,1.131-5.568,4.203-8.789l44.971-61.589
			c5.995-8.235,15.637-13.12,25.835-13.12h20.992c5.888,0,10.667-4.779,10.667-10.667s-4.779-10.667-10.667-10.667H96.341
			c-16.96,0-33.067,8.192-43.072,21.867L9.365,316.781C3.413,322.755,0,330.989,0,339.416v97.835
			c0,29.419,23.936,53.333,53.333,53.333h384c29.397,0,53.333-23.915,53.333-53.333v-97.835
			C490.667,331.011,487.253,322.755,482.368,318.04z"/>
	</g>
</g>
<g>
	<g>
		<path d="M469.333,319.917h-448c-5.888,0-10.667,4.779-10.667,10.667c0,5.888,4.779,10.667,10.667,10.667h448
			c5.888,0,10.667-4.779,10.667-10.667C480,324.696,475.221,319.917,469.333,319.917z"/>
	</g>
</g>
<g>
	<g>
		<path d="M381.44,152.984l-128-149.333c-4.053-4.757-12.16-4.757-16.192,0l-128,149.333c-2.731,3.157-3.328,7.595-1.6,11.392
			c1.728,3.797,5.525,6.208,9.685,6.208h32v117.333c0,5.888,4.779,10.667,10.667,10.667s10.667-4.779,10.667-10.667v-128
			c0-5.888-4.779-10.667-10.667-10.667h-19.477L245.333,26.989l104.811,122.261h-19.477c-5.888,0-10.667,4.779-10.667,10.667v128
			c0,5.888,4.779,10.667,10.667,10.667s10.667-4.779,10.667-10.667V170.584h32c4.16,0,7.979-2.411,9.707-6.208
			C384.768,160.579,384.149,156.141,381.44,152.984z"/>
	</g>
</g>
<g>
</g>
<g>
</g>
<g>
</g>
<g>
</g>
<g>
</g>
<g>
</g>
<g>
</g>
<g>
</g>
<g>
</g>
<g>
</g>
<g>
</g>
<g>
</g>
<g>
</g>
<g>
</g>
<g>
</g>
</svg>
