<?xml version="1.0" encoding="iso-8859-1"?>
<!-- Generator: Adobe Illustrator 19.0.0, SVG Export Plug-In . SVG Version: 6.00 Build 0)  -->
<svg version="1.1" id="Capa_1" xmlns="http://www.w3.org/2000/svg" xmlns:xlink="http://www.w3.org/1999/xlink" x="0px" y="0px"
	 viewBox="0 0 512 512" style="enable-background:new 0 0 512 512;" xml:space="preserve">
<g>
	<g>
		<path d="M490.667,362.667c-5.888,0-10.667,4.779-10.667,10.667V480c0,5.867-4.779,10.667-10.667,10.667H42.667
			C36.779,490.667,32,485.867,32,480V373.333c0-5.888-4.779-10.667-10.667-10.667s-10.667,4.779-10.667,10.667V480
			c0,17.643,14.357,32,32,32h426.667c17.643,0,32-14.357,32-32V373.333C501.333,367.445,496.555,362.667,490.667,362.667z"/>
	</g>
</g>
<g>
	<g>
		<path d="M256,0c-5.888,0-10.667,4.779-10.667,10.667V416c0,5.888,4.779,10.667,10.667,10.667s10.667-4.779,10.667-10.667V10.667
			C266.667,4.779,261.888,0,256,0z"/>
	</g>
</g>
<g>
	<g>
		<path d="M391.552,131.136l-128-128c-4.16-4.16-10.923-4.16-15.083,0l-128,128c-4.16,4.16-4.16,10.923,0,15.083
			c4.16,4.16,10.923,4.16,15.083,0L256,25.749l120.448,120.469c2.091,2.069,4.821,3.115,7.552,3.115
			c2.731,0,5.461-1.045,7.552-3.115C395.712,142.059,395.712,135.296,391.552,131.136z"/>
	</g>
</g>
<g>
</g>
<g>
</g>
<g>
</g>
<g>
</g>
<g>
</g>
<g>
</g>
<g>
</g>
<g>
</g>
<g>
</g>
<g>
</g>
<g>
</g>
<g>
</g>
<g>
</g>
<g>
</g>
<g>
</g>
</svg>
