<?xml version="1.0" encoding="iso-8859-1"?>
<!-- Generator: Adobe Illustrator 19.0.0, SVG Export Plug-In . SVG Version: 6.00 Build 0)  -->
<svg version="1.1" id="Capa_1" xmlns="http://www.w3.org/2000/svg" xmlns:xlink="http://www.w3.org/1999/xlink" x="0px" y="0px"
	 viewBox="0 0 512.005 512.005" style="enable-background:new 0 0 512.005 512.005;" xml:space="preserve">
<g>
	<g>
		<path d="M458.672,202.669c-29.397,0-53.333,23.936-53.333,53.333s23.936,53.333,53.333,53.333s53.333-23.936,53.333-53.333
			S488.069,202.669,458.672,202.669z M458.672,288.003c-17.643,0-32-14.357-32-32c0-17.643,14.357-32,32-32s32,14.357,32,32
			C490.672,273.645,476.315,288.003,458.672,288.003z"/>
	</g>
</g>
<g>
	<g>
		<path d="M416.005,245.336H10.672c-5.888,0-10.667,4.779-10.667,10.667s4.779,10.667,10.667,10.667h405.333
			c5.888,0,10.667-4.779,10.667-10.667S421.893,245.336,416.005,245.336z"/>
	</g>
</g>
<g>
	<g>
		<path d="M82.203,184.472c-4.16-4.16-10.923-4.16-15.083,0l-64,64c-4.16,4.16-4.16,10.923,0,15.083
			c2.091,2.069,4.821,3.115,7.552,3.115c2.731,0,5.461-1.045,7.531-3.115l64-64C86.363,195.395,86.363,188.632,82.203,184.472z"/>
	</g>
</g>
<g>
	<g>
		<path d="M82.203,312.472l-64-64c-4.16-4.16-10.923-4.16-15.083,0c-4.16,4.16-4.16,10.923,0,15.083l64,64
			c2.091,2.069,4.821,3.115,7.552,3.115c2.731,0,5.461-1.045,7.531-3.115C86.363,323.395,86.363,316.632,82.203,312.472z"/>
	</g>
</g>
<g>
	<g>
		<path d="M399.451,246.445c-5.269-2.624-11.669-0.512-14.315,4.779l-46.315,92.629c-9.088,18.197-27.371,29.483-47.701,29.483
			h-24.448c-5.888,0-10.667,4.779-10.667,10.667s4.779,10.667,10.667,10.667h24.448c28.459,0,54.037-15.808,66.795-41.28
			l46.315-92.629C406.853,255.491,404.72,249.069,399.451,246.445z"/>
	</g>
</g>
<g>
	<g>
		<path d="M382.875,251.245l-46.315-92.629c-12.736-25.472-38.315-41.28-66.773-41.28h-24.448c-5.888,0-10.667,4.779-10.667,10.667
			c0,5.888,4.779,10.667,10.667,10.667h24.448c20.331,0,38.613,11.285,47.68,29.483l46.315,92.629
			c1.877,3.733,5.632,5.888,9.557,5.888c1.621,0,3.243-0.363,4.757-1.109C383.365,262.915,385.52,256.515,382.875,251.245z"/>
	</g>
</g>
<g>
	<g>
		<path d="M224.005,330.669c-29.397,0-53.333,23.936-53.333,53.333s23.936,53.333,53.333,53.333s53.333-23.936,53.333-53.333
			S253.403,330.669,224.005,330.669z M224.005,416.003c-17.643,0-32-14.357-32-32s14.357-32,32-32s32,14.357,32,32
			S241.648,416.003,224.005,416.003z"/>
	</g>
</g>
<g>
	<g>
		<path d="M245.339,74.669h-85.333c-5.888,0-10.667,4.779-10.667,10.667v85.333c0,5.888,4.779,10.667,10.667,10.667h85.333
			c5.888,0,10.667-4.779,10.667-10.667V85.336C256.005,79.448,251.227,74.669,245.339,74.669z M234.672,160.003h-64v-64h64V160.003z
			"/>
	</g>
</g>
<g>
</g>
<g>
</g>
<g>
</g>
<g>
</g>
<g>
</g>
<g>
</g>
<g>
</g>
<g>
</g>
<g>
</g>
<g>
</g>
<g>
</g>
<g>
</g>
<g>
</g>
<g>
</g>
<g>
</g>
</svg>
