<?xml version="1.0" encoding="iso-8859-1"?>
<!-- Generator: Adobe Illustrator 19.0.0, SVG Export Plug-In . SVG Version: 6.00 Build 0)  -->
<svg version="1.1" id="Capa_1" xmlns="http://www.w3.org/2000/svg" xmlns:xlink="http://www.w3.org/1999/xlink" x="0px" y="0px"
	 viewBox="0 0 512 512" style="enable-background:new 0 0 512 512;" xml:space="preserve">
<g>
	<g>
		<path d="M507.307,129.835c-2.944-1.963-6.677-2.389-9.941-1.067l-92.032,36.821V160c0-29.397-23.915-53.333-53.333-53.333H53.333
			C23.915,106.667,0,130.603,0,160v192c0,29.397,23.915,53.333,53.333,53.333H352c29.419,0,53.333-23.936,53.333-53.333v-5.589
			l92.032,36.821c3.285,1.301,7.019,0.917,9.941-1.067c2.944-1.984,4.693-5.291,4.693-8.832V138.667
			C512,135.125,510.251,131.819,507.307,129.835z M490.667,357.589l-92.032-36.821c-3.264-1.323-7.019-0.917-9.941,1.067
			c-2.944,1.984-4.693,5.291-4.693,8.832V352c0,17.643-14.357,32-32,32H53.333c-17.643,0-32-14.357-32-32V160
			c0-17.643,14.357-32,32-32H352c17.643,0,32,14.357,32,32v21.333c0,3.541,1.749,6.848,4.693,8.832
			c2.923,1.963,6.677,2.368,9.941,1.067l92.032-36.821V357.589z"/>
	</g>
</g>
<g>
</g>
<g>
</g>
<g>
</g>
<g>
</g>
<g>
</g>
<g>
</g>
<g>
</g>
<g>
</g>
<g>
</g>
<g>
</g>
<g>
</g>
<g>
</g>
<g>
</g>
<g>
</g>
<g>
</g>
</svg>
