<?xml version="1.0" encoding="iso-8859-1"?>
<!-- Generator: Adobe Illustrator 19.0.0, SVG Export Plug-In . SVG Version: 6.00 Build 0)  -->
<svg version="1.1" id="Capa_1" xmlns="http://www.w3.org/2000/svg" xmlns:xlink="http://www.w3.org/1999/xlink" x="0px" y="0px"
	 viewBox="0 0 512 512" style="enable-background:new 0 0 512 512;" xml:space="preserve">
<g>
	<g>
		<path d="M106.667,149.333C47.851,149.333,0,197.184,0,256s47.851,106.667,106.667,106.667
			c58.816,0,106.667-47.851,106.667-106.667S165.483,149.333,106.667,149.333z M106.667,341.333
			c-47.061,0-85.333-38.272-85.333-85.333s38.272-85.333,85.333-85.333S192,208.939,192,256S153.728,341.333,106.667,341.333z"/>
	</g>
</g>
<g>
	<g>
		<path d="M405.333,149.333c-58.816,0-106.667,47.851-106.667,106.667s47.851,106.667,106.667,106.667
			C464.149,362.667,512,314.816,512,256S464.149,149.333,405.333,149.333z M405.333,341.333C358.272,341.333,320,303.061,320,256
			s38.272-85.333,85.333-85.333c47.061,0,85.333,38.272,85.333,85.333S452.395,341.333,405.333,341.333z"/>
	</g>
</g>
<g>
	<g>
		<path d="M405.333,341.333H106.667C100.779,341.333,96,346.112,96,352c0,5.888,4.779,10.667,10.667,10.667h298.667
			c5.888,0,10.667-4.779,10.667-10.667C416,346.112,411.221,341.333,405.333,341.333z"/>
	</g>
</g>
<g>
</g>
<g>
</g>
<g>
</g>
<g>
</g>
<g>
</g>
<g>
</g>
<g>
</g>
<g>
</g>
<g>
</g>
<g>
</g>
<g>
</g>
<g>
</g>
<g>
</g>
<g>
</g>
<g>
</g>
</svg>
