<?xml version="1.0" encoding="iso-8859-1"?>
<!-- Generator: Adobe Illustrator 19.0.0, SVG Export Plug-In . SVG Version: 6.00 Build 0)  -->
<svg version="1.1" id="Capa_1" xmlns="http://www.w3.org/2000/svg" xmlns:xlink="http://www.w3.org/1999/xlink" x="0px" y="0px"
	 viewBox="0 0 512.037 512.037" style="enable-background:new 0 0 512.037 512.037;" xml:space="preserve">
<g>
	<g>
		<path d="M502.677,171.195L383.509,52.027c-12.48-12.48-32.768-12.48-45.248,0L195.136,195.152c-4.16,4.16-4.16,10.923,0,15.083
			c4.16,4.16,10.923,4.16,15.083,0L353.323,67.131c4.16-4.16,10.923-4.16,15.083,0l119.168,119.168c4.16,4.16,4.16,10.923,0,15.083
			L365.781,323.173c-4.16,4.16-4.16,10.923,0,15.083c2.091,2.069,4.821,3.115,7.552,3.115c2.731,0,5.461-1.045,7.552-3.136
			l121.792-121.792C515.157,203.963,515.157,183.675,502.677,171.195z"/>
	</g>
</g>
<g>
	<g>
		<path d="M402.197,88.507c-4.16-4.16-10.923-4.16-15.083,0L280.448,195.173c-4.16,4.16-4.16,10.923,0,15.083
			c2.091,2.069,4.821,3.115,7.552,3.115c2.731,0,5.461-1.045,7.531-3.115l106.667-106.667
			C406.357,99.429,406.357,92.667,402.197,88.507z"/>
	</g>
</g>
<g>
	<g>
		<path d="M330.667,192.037H32c-5.888,0-10.667-4.779-10.667-10.667S26.112,170.704,32,170.704h213.333
			c5.888,0,10.667-4.779,10.667-10.667s-4.779-10.667-10.667-10.667H32c-17.643,0-32,14.357-32,32v256c0,17.643,14.357,32,32,32
			h298.667c29.397,0,53.333-23.936,53.333-53.333V245.371C384,215.973,360.064,192.037,330.667,192.037z M362.667,416.037
			c0,17.643-14.357,32-32,32H32c-5.888,0-10.667-4.779-10.667-10.667V211.557c3.328,1.173,6.933,1.813,10.667,1.813h298.667
			c17.643,0,32,14.357,32,32V416.037z"/>
	</g>
</g>
<g>
</g>
<g>
</g>
<g>
</g>
<g>
</g>
<g>
</g>
<g>
</g>
<g>
</g>
<g>
</g>
<g>
</g>
<g>
</g>
<g>
</g>
<g>
</g>
<g>
</g>
<g>
</g>
<g>
</g>
</svg>
