<?xml version="1.0" encoding="iso-8859-1"?>
<!-- Generator: Adobe Illustrator 19.0.0, SVG Export Plug-In . SVG Version: 6.00 Build 0)  -->
<svg version="1.1" id="Capa_1" xmlns="http://www.w3.org/2000/svg" xmlns:xlink="http://www.w3.org/1999/xlink" x="0px" y="0px"
	 viewBox="0 0 490.667 490.667" style="enable-background:new 0 0 490.667 490.667;" xml:space="preserve">
<g>
	<g>
		<path d="M234.667,106.667C158.208,106.667,96,168.875,96,245.333S158.208,384,234.667,384s138.667-62.208,138.667-138.667
			S311.125,106.667,234.667,106.667z M234.667,362.667c-64.704,0-117.333-52.651-117.333-117.333S169.963,128,234.667,128
			C299.371,128,352,180.651,352,245.333S299.371,362.667,234.667,362.667z"/>
	</g>
</g>
<g>
	<g>
		<path d="M320,330.667c-5.888,0-10.667,4.779-10.667,10.667v117.333c0,5.867-4.779,10.667-10.667,10.667h-128
			c-5.888,0-10.667-4.8-10.667-10.667V341.333c0-5.888-4.779-10.667-10.667-10.667s-10.667,4.779-10.667,10.667v117.333
			c0,17.643,14.357,32,32,32h128c17.643,0,32-14.357,32-32V341.333C330.667,335.445,325.888,330.667,320,330.667z"/>
	</g>
</g>
<g>
	<g>
		<path d="M298.667,0h-128c-17.643,0-32,14.357-32,32v117.333c0,5.888,4.779,10.667,10.667,10.667S160,155.221,160,149.333V32
			c0-5.867,4.779-10.667,10.667-10.667h128c5.888,0,10.667,4.8,10.667,10.667v117.333c0,5.888,4.779,10.667,10.667,10.667
			s10.667-4.779,10.667-10.667V32C330.667,14.357,316.309,0,298.667,0z"/>
	</g>
</g>
<g>
	<g>
		<path d="M384,213.333c-5.888,0-10.667,4.779-10.667,10.667v42.667c0,5.888,4.779,10.667,10.667,10.667s10.667-4.779,10.667-10.667
			V224C394.667,218.112,389.888,213.333,384,213.333z"/>
	</g>
</g>
<g>
</g>
<g>
</g>
<g>
</g>
<g>
</g>
<g>
</g>
<g>
</g>
<g>
</g>
<g>
</g>
<g>
</g>
<g>
</g>
<g>
</g>
<g>
</g>
<g>
</g>
<g>
</g>
<g>
</g>
</svg>
