<?xml version="1.0" encoding="iso-8859-1"?>
<!-- Generator: Adobe Illustrator 19.0.0, SVG Export Plug-In . SVG Version: 6.00 Build 0)  -->
<svg version="1.1" id="Capa_1" xmlns="http://www.w3.org/2000/svg" xmlns:xlink="http://www.w3.org/1999/xlink" x="0px" y="0px"
	 viewBox="0 0 512.283 512.283" style="enable-background:new 0 0 512.283 512.283;" xml:space="preserve">
<g>
	<g>
		<path d="M125.147,109.928l-64.213-64c-4.117-4.139-10.923-4.16-15.083,0.021c-4.16,4.181-4.16,10.923,0.021,15.083l64.213,64
			c2.069,2.069,4.8,3.115,7.531,3.115s5.483-1.045,7.573-3.136C129.328,120.829,129.328,114.088,125.147,109.928z"/>
	</g>
</g>
<g>
	<g>
		<path d="M96.069,149.48H10.736c-5.888,0-10.667,4.779-10.667,10.667s4.779,10.667,10.667,10.667h85.333
			c5.888,0,10.667-4.779,10.667-10.667S101.957,149.48,96.069,149.48z"/>
	</g>
</g>
<g>
	<g>
		<path d="M160.283,0.147c-5.888,0-10.667,4.779-10.667,10.667v85.333c0,5.888,4.779,10.667,10.667,10.667
			s10.667-4.779,10.667-10.667V10.813C170.949,4.925,166.171,0.147,160.283,0.147z"/>
	</g>
</g>
<g>
	<g>
		<path d="M466.459,429.928l-64.213-64c-4.117-4.139-10.923-4.16-15.083,0.021c-4.139,4.181-4.139,10.923,0.043,15.083l64.213,64
			c2.069,2.069,4.8,3.115,7.531,3.115c2.731,0,5.483-1.045,7.552-3.136C470.64,440.829,470.64,434.088,466.459,429.928z"/>
	</g>
</g>
<g>
	<g>
		<path d="M501.616,320.147h-85.333c-5.888,0-10.667,4.779-10.667,10.667s4.779,10.667,10.667,10.667h85.333
			c5.888,0,10.667-4.779,10.667-10.667S507.504,320.147,501.616,320.147z"/>
	</g>
</g>
<g>
	<g>
		<path d="M352.069,384.147c-5.888,0-10.667,4.779-10.667,10.667v85.333c0,5.888,4.779,10.667,10.667,10.667
			s10.667-4.779,10.667-10.667v-85.333C362.736,388.925,357.957,384.147,352.069,384.147z"/>
	</g>
</g>
<g>
	<g>
		<path d="M484.037,28.157c-37.419-37.419-98.325-37.419-135.744,0l-93.099,93.099c-4.16,4.16-4.16,10.923,0,15.083
			c4.16,4.16,10.923,4.16,15.083,0l93.099-93.099c29.12-29.099,76.459-29.099,105.579,0c29.099,29.12,29.099,76.48,0,105.6
			L333.211,284.605c-29.099,29.099-76.459,29.141-105.6,0c-4.16-4.16-10.923-4.16-15.083,0s-4.16,10.923,0,15.083
			c18.709,18.731,43.307,28.075,67.883,28.075c24.597,0,49.173-9.365,67.883-28.075l135.744-135.765
			C521.477,126.504,521.477,65.576,484.037,28.157z"/>
	</g>
</g>
<g>
	<g>
		<path d="M299.589,212.605c-37.461-37.461-98.389-37.419-135.765,0L28.08,348.371c-37.44,37.419-37.44,98.347,0,135.765
			c18.709,18.709,43.307,28.053,67.883,28.053c24.597,0,49.173-9.344,67.883-28.053l93.099-93.099c4.16-4.16,4.16-10.923,0-15.083
			c-4.16-4.16-10.923-4.16-15.083,0l-93.099,93.099c-29.12,29.099-76.459,29.099-105.579,0c-29.099-29.12-29.099-76.48,0-105.6
			l135.723-135.765c29.12-29.077,76.48-29.099,105.6,0c4.16,4.16,10.923,4.16,15.083,0S303.749,216.765,299.589,212.605z"/>
	</g>
</g>
<g>
</g>
<g>
</g>
<g>
</g>
<g>
</g>
<g>
</g>
<g>
</g>
<g>
</g>
<g>
</g>
<g>
</g>
<g>
</g>
<g>
</g>
<g>
</g>
<g>
</g>
<g>
</g>
<g>
</g>
</svg>
