<?xml version="1.0" encoding="iso-8859-1"?>
<!-- Generator: Adobe Illustrator 19.0.0, SVG Export Plug-In . SVG Version: 6.00 Build 0)  -->
<svg version="1.1" id="Capa_1" xmlns="http://www.w3.org/2000/svg" xmlns:xlink="http://www.w3.org/1999/xlink" x="0px" y="0px"
	 viewBox="0 0 512 512" style="enable-background:new 0 0 512 512;" xml:space="preserve">
<g>
	<g>
		<path d="M458.667,0H53.333C23.936,0,0,23.915,0,53.333v405.333C0,488.085,23.936,512,53.333,512h405.333
			C488.064,512,512,488.085,512,458.667V53.333C512,23.915,488.064,0,458.667,0z M490.667,458.667c0,17.643-14.357,32-32,32H53.333
			c-17.643,0-32-14.357-32-32V53.333c0-17.643,14.357-32,32-32h405.333c17.643,0,32,14.357,32,32V458.667z"/>
	</g>
</g>
<g>
	<g>
		<path d="M501.333,85.333H10.667C4.779,85.333,0,90.112,0,96s4.779,10.667,10.667,10.667h490.667
			c5.888,0,10.667-4.779,10.667-10.667S507.221,85.333,501.333,85.333z"/>
	</g>
</g>
<g>
	<g>
		<circle cx="53.333" cy="53.333" r="10.667"/>
	</g>
</g>
<g>
	<g>
		<circle cx="96" cy="53.333" r="10.667"/>
	</g>
</g>
<g>
	<g>
		<circle cx="138.667" cy="53.333" r="10.667"/>
	</g>
</g>
<g>
	<g>
		<path d="M416,192H96c-5.888,0-10.667,4.779-10.667,10.667S90.112,213.333,96,213.333h320c5.888,0,10.667-4.779,10.667-10.667
			S421.888,192,416,192z"/>
	</g>
</g>
<g>
	<g>
		<path d="M416,277.333H96c-5.888,0-10.667,4.779-10.667,10.667S90.112,298.667,96,298.667h320c5.888,0,10.667-4.779,10.667-10.667
			S421.888,277.333,416,277.333z"/>
	</g>
</g>
<g>
	<g>
		<path d="M416,362.667H96c-5.888,0-10.667,4.779-10.667,10.667C85.333,379.221,90.112,384,96,384h320
			c5.888,0,10.667-4.779,10.667-10.667C426.667,367.445,421.888,362.667,416,362.667z"/>
	</g>
</g>
<g>
</g>
<g>
</g>
<g>
</g>
<g>
</g>
<g>
</g>
<g>
</g>
<g>
</g>
<g>
</g>
<g>
</g>
<g>
</g>
<g>
</g>
<g>
</g>
<g>
</g>
<g>
</g>
<g>
</g>
</svg>
