<?xml version="1.0" encoding="iso-8859-1"?>
<!-- Generator: Adobe Illustrator 19.0.0, SVG Export Plug-In . SVG Version: 6.00 Build 0)  -->
<svg version="1.1" id="Capa_1" xmlns="http://www.w3.org/2000/svg" xmlns:xlink="http://www.w3.org/1999/xlink" x="0px" y="0px"
	 viewBox="0 0 512 512" style="enable-background:new 0 0 512 512;" xml:space="preserve">
<g>
	<g>
		<path d="M256,21.547c-141.163,0-256,114.837-256,256c0,84.288,41.664,163.2,111.488,211.051c1.835,1.259,3.925,1.856,6.016,1.856
			c3.392,0,6.72-1.621,8.789-4.629c3.328-4.843,2.112-11.499-2.773-14.827C59.541,427.136,21.333,354.816,21.333,277.547
			C21.333,148.16,126.613,42.88,256,42.88s234.667,105.28,234.667,234.667c0,77.248-38.187,149.547-102.165,193.429
			c-4.864,3.328-6.08,9.963-2.752,14.827c3.328,4.885,9.963,6.101,14.827,2.773C470.357,440.704,512,361.835,512,277.547
			C512,136.384,397.163,21.547,256,21.547z"/>
	</g>
</g>
<g>
	<g>
		<path d="M256,85.547c-105.877,0-192,86.144-192,192c0,63.232,31.253,122.411,83.627,158.293c1.835,1.259,3.925,1.856,6.016,1.856
			c3.392,0,6.741-1.621,8.789-4.629c3.328-4.864,2.112-11.499-2.773-14.827c-46.528-31.915-74.325-84.501-74.325-140.693
			c0-94.101,76.565-170.667,170.667-170.667s170.667,76.565,170.667,170.667c0,56.171-27.776,108.757-74.304,140.672
			c-4.864,3.328-6.08,9.963-2.752,14.827c3.349,4.885,9.941,6.101,14.827,2.773C416.747,399.936,448,340.757,448,277.547
			C448,171.691,361.877,85.547,256,85.547z"/>
	</g>
</g>
<g>
	<g>
		<path d="M256,149.547c-70.592,0-128,57.408-128,128c0,42.155,20.843,81.6,55.765,105.536c1.835,1.259,3.925,1.856,6.016,1.856
			c3.392,0,6.72-1.621,8.789-4.629c3.328-4.864,2.112-11.499-2.773-14.827c-29.099-19.947-46.464-52.821-46.464-87.936
			c0-58.816,47.851-106.667,106.667-106.667s106.667,47.851,106.667,106.667c0,35.115-17.344,67.968-46.421,87.915
			c-4.885,3.328-6.101,9.963-2.773,14.827c3.328,4.885,9.984,6.101,14.805,2.773C363.157,359.147,384,319.701,384,277.547
			C384,206.955,326.592,149.547,256,149.547z"/>
	</g>
</g>
<g>
	<g>
		<path d="M256,234.88c-23.531,0-42.667,19.136-42.667,42.667c0,23.531,19.136,42.667,42.667,42.667s42.667-19.136,42.667-42.667
			C298.667,254.016,279.531,234.88,256,234.88z M256,298.88c-11.776,0-21.333-9.579-21.333-21.333
			c0-11.755,9.557-21.333,21.333-21.333s21.333,9.579,21.333,21.333C277.333,289.301,267.776,298.88,256,298.88z"/>
	</g>
</g>
<g>
</g>
<g>
</g>
<g>
</g>
<g>
</g>
<g>
</g>
<g>
</g>
<g>
</g>
<g>
</g>
<g>
</g>
<g>
</g>
<g>
</g>
<g>
</g>
<g>
</g>
<g>
</g>
<g>
</g>
</svg>
