<?xml version="1.0" encoding="iso-8859-1"?>
<!-- Generator: Adobe Illustrator 19.0.0, SVG Export Plug-In . SVG Version: 6.00 Build 0)  -->
<svg version="1.1" id="Capa_1" xmlns="http://www.w3.org/2000/svg" xmlns:xlink="http://www.w3.org/1999/xlink" x="0px" y="0px"
	 viewBox="0 0 448 448" style="enable-background:new 0 0 448 448;" xml:space="preserve">
<g>
	<g>
		<path d="M224,0C100.48,0,0,100.48,0,224s100.48,224,224,224s224-100.48,224-224S347.52,0,224,0z M224,426.667
			c-111.744,0-202.667-90.923-202.667-202.667S112.256,21.333,224,21.333S426.667,112.256,426.667,224S335.744,426.667,224,426.667z
			"/>
	</g>
</g>
<g>
	<g>
		<path d="M224,213.333c-52.928,0-96-43.072-96-96c0-52.928,43.072-96,96-96c5.888,0,10.667-4.779,10.667-10.667S229.888,0,224,0
			c-64.683,0-117.333,52.629-117.333,117.333S159.317,234.667,224,234.667c52.928,0,96,43.072,96,96s-43.072,96-96,96
			c-5.888,0-10.667,4.779-10.667,10.667S218.112,448,224,448c64.683,0,117.333-52.629,117.333-117.333S288.683,213.333,224,213.333z
			"/>
	</g>
</g>
<g>
	<g>
		<path d="M224,96c-11.776,0-21.333,9.579-21.333,21.333c0,11.755,9.557,21.333,21.333,21.333s21.333-9.579,21.333-21.333
			C245.333,105.579,235.776,96,224,96z"/>
	</g>
</g>
<g>
	<g>
		<path d="M224,309.333c-11.776,0-21.333,9.579-21.333,21.333S212.224,352,224,352s21.333-9.579,21.333-21.333
			S235.776,309.333,224,309.333z"/>
	</g>
</g>
<g>
</g>
<g>
</g>
<g>
</g>
<g>
</g>
<g>
</g>
<g>
</g>
<g>
</g>
<g>
</g>
<g>
</g>
<g>
</g>
<g>
</g>
<g>
</g>
<g>
</g>
<g>
</g>
<g>
</g>
</svg>
